<?xml version="1.0" encoding="UTF-8" standalone="no"?>
<!DOCTYPE svg PUBLIC "-//W3C//DTD SVG 1.1//EN"
 "http://www.w3.org/Graphics/SVG/1.1/DTD/svg11.dtd">
<!-- Generated by graphviz version 2.43.0 (0)
 -->
<!-- Title: packages Pages: 1 -->
<svg width="4936pt" height="476pt"
 viewBox="0.00 0.00 4935.50 476.00" xmlns="http://www.w3.org/2000/svg" xmlns:xlink="http://www.w3.org/1999/xlink">
<g id="graph0" class="graph" transform="scale(1 1) rotate(0) translate(4 472)">
<title>packages</title>
<polygon fill="white" stroke="transparent" points="-4,4 -4,-472 4931.5,-472 4931.5,4 -4,4"/>
<!-- 0 -->
<g id="node1" class="node">
<title>0</title>
<polygon fill="none" stroke="black" points="1038.5,-36 916.5,-36 916.5,0 1038.5,0 1038.5,-36"/>
<text text-anchor="middle" x="977.5" y="-14.3" font-family="Times,serif" font-size="14.00">src.declare4py</text>
</g>
<!-- 1 -->
<g id="node2" class="node">
<title>1</title>
<polygon fill="none" stroke="black" points="1286.5,-36 1056.5,-36 1056.5,0 1286.5,0 1286.5,-36"/>
<text text-anchor="middle" x="1171.5" y="-14.3" font-family="Times,serif" font-size="14.00">src.declare4py.log_generation</text>
</g>
<!-- 2 -->
<g id="node3" class="node">
<title>2</title>
<polygon fill="none" stroke="black" points="1564,-36 1305,-36 1305,0 1564,0 1564,-36"/>
<text text-anchor="middle" x="1434.5" y="-14.3" font-family="Times,serif" font-size="14.00">src.declare4py.log_generation.asp</text>
</g>
<!-- 3 -->
<g id="node4" class="node">
<title>3</title>
<polygon fill="none" stroke="black" points="1741,-108 1376,-108 1376,-72 1741,-72 1741,-108"/>
<text text-anchor="middle" x="1558.5" y="-86.3" font-family="Times,serif" font-size="14.00">src.declare4py.log_generation.asp.asp_generator</text>
</g>
<!-- 5 -->
<g id="node6" class="node">
<title>5</title>
<polygon fill="none" stroke="black" points="1794.5,-180 1322.5,-180 1322.5,-144 1794.5,-144 1794.5,-180"/>
<text text-anchor="middle" x="1558.5" y="-158.3" font-family="Times,serif" font-size="14.00">src.declare4py.log_generation.asp.asp_translator.asp_translator</text>
</g>
<!-- 3&#45;&gt;5 -->
<g id="edge1" class="edge">
<title>3&#45;&gt;5</title>
<path fill="none" stroke="black" d="M1558.5,-108.3C1558.5,-116.02 1558.5,-125.29 1558.5,-133.89"/>
<polygon fill="black" stroke="black" points="1558.5,-143.9 1554,-133.9 1558.5,-138.9 1558.5,-133.9 1558.5,-133.9 1558.5,-133.9 1558.5,-138.9 1563,-133.9 1558.5,-143.9 1558.5,-143.9"/>
</g>
<!-- 8 -->
<g id="node9" class="node">
<title>8</title>
<polygon fill="none" stroke="black" points="860,-180 433,-180 433,-144 860,-144 860,-180"/>
<text text-anchor="middle" x="646.5" y="-158.3" font-family="Times,serif" font-size="14.00">src.declare4py.log_generation.asp.asp_utils.asp_encoding</text>
</g>
<!-- 3&#45;&gt;8 -->
<g id="edge2" class="edge">
<title>3&#45;&gt;8</title>
<path fill="none" stroke="black" d="M1375.86,-105.02C1230.24,-116.2 1025.66,-131.9 870.21,-143.83"/>
<polygon fill="black" stroke="black" points="860.05,-144.61 869.67,-139.36 865.03,-144.23 870.02,-143.84 870.02,-143.84 870.02,-143.84 865.03,-144.23 870.36,-148.33 860.05,-144.61 860.05,-144.61"/>
</g>
<!-- 9 -->
<g id="node10" class="node">
<title>9</title>
<polygon fill="none" stroke="black" points="1304.5,-180 878.5,-180 878.5,-144 1304.5,-144 1304.5,-180"/>
<text text-anchor="middle" x="1091.5" y="-158.3" font-family="Times,serif" font-size="14.00">src.declare4py.log_generation.asp.asp_utils.asp_template</text>
</g>
<!-- 3&#45;&gt;9 -->
<g id="edge3" class="edge">
<title>3&#45;&gt;9</title>
<path fill="none" stroke="black" d="M1444.86,-108.03C1375.36,-118.45 1286.44,-131.78 1215.18,-142.46"/>
<polygon fill="black" stroke="black" points="1205.25,-143.95 1214.47,-138.02 1210.19,-143.21 1215.14,-142.47 1215.14,-142.47 1215.14,-142.47 1210.19,-143.21 1215.8,-146.92 1205.25,-143.95 1205.25,-143.95"/>
</g>
<!-- 10 -->
<g id="node11" class="node">
<title>10</title>
<polygon fill="none" stroke="black" points="415,-180 0,-180 0,-144 415,-144 415,-180"/>
<text text-anchor="middle" x="207.5" y="-158.3" font-family="Times,serif" font-size="14.00">src.declare4py.log_generation.asp.asp_utils.distribution</text>
</g>
<!-- 3&#45;&gt;10 -->
<g id="edge4" class="edge">
<title>3&#45;&gt;10</title>
<path fill="none" stroke="black" d="M1375.58,-97.75C1153.37,-106.35 766.82,-122.64 425.37,-143.89"/>
<polygon fill="black" stroke="black" points="415.28,-144.52 424.98,-139.41 420.27,-144.21 425.26,-143.9 425.26,-143.9 425.26,-143.9 420.27,-144.21 425.54,-148.39 415.28,-144.52 415.28,-144.52"/>
</g>
<!-- 11 -->
<g id="node12" class="node">
<title>11</title>
<polygon fill="none" stroke="black" points="2758,-180 2425,-180 2425,-144 2758,-144 2758,-180"/>
<text text-anchor="middle" x="2591.5" y="-158.3" font-family="Times,serif" font-size="14.00">src.declare4py.log_generation.log_generator</text>
</g>
<!-- 3&#45;&gt;11 -->
<g id="edge5" class="edge">
<title>3&#45;&gt;11</title>
<path fill="none" stroke="black" d="M1741.27,-100.47C1912.41,-109.77 2175.54,-125.15 2414.48,-143.94"/>
<polygon fill="black" stroke="black" points="2424.76,-144.75 2414.44,-148.45 2419.78,-144.35 2414.79,-143.96 2414.79,-143.96 2414.79,-143.96 2419.78,-144.35 2415.15,-139.47 2424.76,-144.75 2424.76,-144.75"/>
</g>
<!-- 28 -->
<g id="node29" class="node">
<title>28</title>
<polygon fill="none" stroke="black" points="2058.5,-324 1738.5,-324 1738.5,-288 2058.5,-288 2058.5,-324"/>
<text text-anchor="middle" x="1898.5" y="-302.3" font-family="Times,serif" font-size="14.00">src.declare4py.process_models.decl_model</text>
</g>
<!-- 3&#45;&gt;28 -->
<g id="edge6" class="edge">
<title>3&#45;&gt;28</title>
<path fill="none" stroke="black" d="M1689.17,-108.02C1737.64,-116.63 1785.27,-128.57 1803.5,-144 1842.93,-177.38 1818.3,-208.71 1846.5,-252 1853.25,-262.36 1862.24,-272.39 1870.84,-280.9"/>
<polygon fill="black" stroke="black" points="1878.24,-287.94 1867.9,-284.3 1874.62,-284.49 1871,-281.04 1871,-281.04 1871,-281.04 1874.62,-284.49 1874.1,-277.79 1878.24,-287.94 1878.24,-287.94"/>
</g>
<!-- 4 -->
<g id="node5" class="node">
<title>4</title>
<polygon fill="none" stroke="black" points="2220.5,-36 1854.5,-36 1854.5,0 2220.5,0 2220.5,-36"/>
<text text-anchor="middle" x="2037.5" y="-14.3" font-family="Times,serif" font-size="14.00">src.declare4py.log_generation.asp.asp_translator</text>
</g>
<!-- 6 -->
<g id="node7" class="node">
<title>6</title>
<polygon fill="none" stroke="black" points="1756.5,-252 1190.5,-252 1190.5,-216 1756.5,-216 1756.5,-252"/>
<text text-anchor="middle" x="1473.5" y="-230.3" font-family="Times,serif" font-size="14.00">src.declare4py.log_generation.asp.asp_translator.declare_constraint_resolver</text>
</g>
<!-- 5&#45;&gt;6 -->
<g id="edge7" class="edge">
<title>5&#45;&gt;6</title>
<path fill="none" stroke="black" d="M1537.49,-180.3C1526.78,-189.12 1513.61,-199.97 1502,-209.53"/>
<polygon fill="black" stroke="black" points="1494.27,-215.9 1499.13,-206.06 1498.13,-212.72 1501.99,-209.54 1501.99,-209.54 1501.99,-209.54 1498.13,-212.72 1504.85,-213.01 1494.27,-215.9 1494.27,-215.9"/>
</g>
<!-- 5&#45;&gt;28 -->
<g id="edge8" class="edge">
<title>5&#45;&gt;28</title>
<path fill="none" stroke="black" d="M1662.34,-180.06C1696.39,-188.11 1733.65,-199.67 1765.5,-216 1787.68,-227.37 1788.14,-237.63 1808.5,-252 1823.98,-262.93 1841.82,-273.76 1857.51,-282.76"/>
<polygon fill="black" stroke="black" points="1866.47,-287.84 1855.55,-286.82 1862.12,-285.37 1857.76,-282.91 1857.76,-282.91 1857.76,-282.91 1862.12,-285.37 1859.98,-278.99 1866.47,-287.84 1866.47,-287.84"/>
</g>
<!-- 6&#45;&gt;28 -->
<g id="edge9" class="edge">
<title>6&#45;&gt;28</title>
<path fill="none" stroke="black" d="M1576.92,-252.03C1639.78,-262.39 1720.1,-275.62 1784.75,-286.26"/>
<polygon fill="black" stroke="black" points="1794.98,-287.95 1784.38,-290.76 1790.05,-287.14 1785.11,-286.32 1785.11,-286.32 1785.11,-286.32 1790.05,-287.14 1785.85,-281.88 1794.98,-287.95 1794.98,-287.95"/>
</g>
<!-- 7 -->
<g id="node8" class="node">
<title>7</title>
<polygon fill="none" stroke="black" points="2564.5,-36 2238.5,-36 2238.5,0 2564.5,0 2564.5,-36"/>
<text text-anchor="middle" x="2401.5" y="-14.3" font-family="Times,serif" font-size="14.00">src.declare4py.log_generation.asp.asp_utils</text>
</g>
<!-- 13 -->
<g id="node14" class="node">
<title>13</title>
<polygon fill="none" stroke="black" points="3880.5,-252 3626.5,-252 3626.5,-216 3880.5,-216 3880.5,-252"/>
<text text-anchor="middle" x="3753.5" y="-230.3" font-family="Times,serif" font-size="14.00">src.declare4py.pm_tasks.pm_task</text>
</g>
<!-- 11&#45;&gt;13 -->
<g id="edge10" class="edge">
<title>11&#45;&gt;13</title>
<path fill="none" stroke="black" d="M2758.3,-173.05C2989.26,-186.96 3402.17,-211.84 3616.28,-224.73"/>
<polygon fill="black" stroke="black" points="3626.33,-225.34 3616.07,-229.23 3621.33,-225.04 3616.34,-224.74 3616.34,-224.74 3616.34,-224.74 3621.33,-225.04 3616.61,-220.25 3626.33,-225.34 3626.33,-225.34"/>
</g>
<!-- 30 -->
<g id="node31" class="node">
<title>30</title>
<polygon fill="none" stroke="black" points="3963.5,-468 3617.5,-468 3617.5,-432 3963.5,-432 3963.5,-468"/>
<text text-anchor="middle" x="3790.5" y="-446.3" font-family="Times,serif" font-size="14.00">src.declare4py.process_models.process_model</text>
</g>
<!-- 11&#45;&gt;30 -->
<g id="edge11" class="edge">
<title>11&#45;&gt;30</title>
<path fill="none" stroke="black" d="M2579.66,-180.36C2559.23,-212.65 2522.84,-282.42 2558.5,-324 2625.45,-402.06 3280.5,-433.26 3607.18,-444.04"/>
<polygon fill="black" stroke="black" points="3617.22,-444.37 3607.08,-448.54 3612.23,-444.21 3607.23,-444.04 3607.23,-444.04 3607.23,-444.04 3612.23,-444.21 3607.38,-439.55 3617.22,-444.37 3617.22,-444.37"/>
</g>
<!-- 12 -->
<g id="node13" class="node">
<title>12</title>
<polygon fill="none" stroke="black" points="2774,-36 2583,-36 2583,0 2774,0 2774,-36"/>
<text text-anchor="middle" x="2678.5" y="-14.3" font-family="Times,serif" font-size="14.00">src.declare4py.pm_tasks</text>
</g>
<!-- 19 -->
<g id="node20" class="node">
<title>19</title>
<polygon fill="none" stroke="black" points="3763,-324 3434,-324 3434,-288 3763,-288 3763,-324"/>
<text text-anchor="middle" x="3598.5" y="-302.3" font-family="Times,serif" font-size="14.00">src.declare4py.process_mining.log_analyzer</text>
</g>
<!-- 13&#45;&gt;19 -->
<g id="edge12" class="edge">
<title>13&#45;&gt;19</title>
<path fill="none" stroke="black" d="M3715.58,-252.12C3694.49,-261.65 3668.04,-273.59 3645.63,-283.72"/>
<polygon fill="black" stroke="black" points="3636.29,-287.93 3643.56,-279.71 3640.85,-285.87 3645.41,-283.82 3645.41,-283.82 3645.41,-283.82 3640.85,-285.87 3647.26,-287.92 3636.29,-287.93 3636.29,-287.93"/>
</g>
<!-- 13&#45;&gt;30 -->
<g id="edge13" class="edge">
<title>13&#45;&gt;30</title>
<path fill="none" stroke="black" d="M3760.88,-252.36C3764.92,-262.56 3769.67,-275.81 3772.5,-288 3783.23,-334.28 3787.64,-389.58 3789.39,-421.84"/>
<polygon fill="black" stroke="black" points="3789.89,-431.86 3784.9,-422.1 3789.64,-426.87 3789.39,-421.87 3789.39,-421.87 3789.39,-421.87 3789.64,-426.87 3793.89,-421.65 3789.89,-431.86 3789.89,-431.86"/>
</g>
<!-- 14 -->
<g id="node15" class="node">
<title>14</title>
<polygon fill="none" stroke="black" points="3027,-36 2792,-36 2792,0 3027,0 3027,-36"/>
<text text-anchor="middle" x="2909.5" y="-14.3" font-family="Times,serif" font-size="14.00">src.declare4py.process_mining</text>
</g>
<!-- 15 -->
<g id="node16" class="node">
<title>15</title>
<polygon fill="none" stroke="black" points="3423.5,-36 3045.5,-36 3045.5,0 3423.5,0 3423.5,-36"/>
<text text-anchor="middle" x="3234.5" y="-14.3" font-family="Times,serif" font-size="14.00">src.declare4py.process_mining.conformance_check</text>
</g>
<!-- 16 -->
<g id="node17" class="node">
<title>16</title>
<polygon fill="none" stroke="black" points="3340.5,-252 2696.5,-252 2696.5,-216 3340.5,-216 3340.5,-252"/>
<text text-anchor="middle" x="3018.5" y="-230.3" font-family="Times,serif" font-size="14.00">src.declare4py.process_mining.conformance_check.basic_conformance_checking_results</text>
</g>
<!-- 34 -->
<g id="node35" class="node">
<title>34</title>
<polygon fill="none" stroke="black" points="2978,-324 2567,-324 2567,-288 2978,-288 2978,-324"/>
<text text-anchor="middle" x="2772.5" y="-302.3" font-family="Times,serif" font-size="14.00">src.declare4py.utility.template_checkers.checker_result</text>
</g>
<!-- 16&#45;&gt;34 -->
<g id="edge14" class="edge">
<title>16&#45;&gt;34</title>
<path fill="none" stroke="black" d="M2958.64,-252.03C2923.52,-262.03 2878.98,-274.7 2842.27,-285.15"/>
<polygon fill="black" stroke="black" points="2832.63,-287.89 2841.02,-280.82 2837.44,-286.52 2842.25,-285.15 2842.25,-285.15 2842.25,-285.15 2837.44,-286.52 2843.48,-289.48 2832.63,-287.89 2832.63,-287.89"/>
</g>
<!-- 17 -->
<g id="node18" class="node">
<title>17</title>
<polygon fill="none" stroke="black" points="3770.5,-108 3094.5,-108 3094.5,-72 3770.5,-72 3770.5,-108"/>
<text text-anchor="middle" x="3432.5" y="-86.3" font-family="Times,serif" font-size="14.00">src.declare4py.process_mining.conformance_check.basic_mp_declare_conformance_checking</text>
</g>
<!-- 17&#45;&gt;16 -->
<g id="edge15" class="edge">
<title>17&#45;&gt;16</title>
<path fill="none" stroke="black" d="M3114.78,-108C3023.35,-116.14 2944.11,-127.77 2929.5,-144 2918.8,-155.89 2921.59,-166.09 2929.5,-180 2936.86,-192.96 2948.79,-203.08 2961.55,-210.84"/>
<polygon fill="black" stroke="black" points="2970.47,-215.85 2959.55,-214.88 2966.11,-213.4 2961.75,-210.96 2961.75,-210.96 2961.75,-210.96 2966.11,-213.4 2963.95,-207.03 2970.47,-215.85 2970.47,-215.85"/>
</g>
<!-- 18 -->
<g id="node19" class="node">
<title>18</title>
<polygon fill="none" stroke="black" points="4505.5,-180 4023.5,-180 4023.5,-144 4505.5,-144 4505.5,-180"/>
<text text-anchor="middle" x="4264.5" y="-158.3" font-family="Times,serif" font-size="14.00">src.declare4py.process_mining.conformance_check.conf_checking</text>
</g>
<!-- 17&#45;&gt;18 -->
<g id="edge16" class="edge">
<title>17&#45;&gt;18</title>
<path fill="none" stroke="black" d="M3634.7,-108.01C3761.03,-118.64 3923.47,-132.31 4051.74,-143.1"/>
<polygon fill="black" stroke="black" points="4062.08,-143.97 4051.74,-147.62 4057.1,-143.55 4052.12,-143.13 4052.12,-143.13 4052.12,-143.13 4057.1,-143.55 4052.5,-138.65 4062.08,-143.97 4062.08,-143.97"/>
</g>
<!-- 17&#45;&gt;19 -->
<g id="edge17" class="edge">
<title>17&#45;&gt;19</title>
<path fill="none" stroke="black" d="M3474.83,-108.08C3492.27,-116.77 3511.6,-128.76 3525.5,-144 3561.38,-183.36 3582.16,-243.35 3591.83,-277.9"/>
<polygon fill="black" stroke="black" points="3594.47,-287.76 3587.53,-279.27 3593.18,-282.93 3591.88,-278.1 3591.88,-278.1 3591.88,-278.1 3593.18,-282.93 3596.23,-276.94 3594.47,-287.76 3594.47,-287.76"/>
</g>
<!-- 29 -->
<g id="node30" class="node">
<title>29</title>
<polygon fill="none" stroke="black" points="3340.5,-396 3034.5,-396 3034.5,-360 3340.5,-360 3340.5,-396"/>
<text text-anchor="middle" x="3187.5" y="-374.3" font-family="Times,serif" font-size="14.00">src.declare4py.process_models.ltl_model</text>
</g>
<!-- 17&#45;&gt;29 -->
<g id="edge18" class="edge">
<title>17&#45;&gt;29</title>
<path fill="none" stroke="black" d="M3430.36,-108.1C3424.02,-151.3 3401.26,-265.56 3332.5,-324 3315.76,-338.22 3294.88,-348.77 3274.23,-356.54"/>
<polygon fill="black" stroke="black" points="3264.77,-359.92 3272.67,-352.32 3269.48,-358.24 3274.19,-356.56 3274.19,-356.56 3274.19,-356.56 3269.48,-358.24 3275.7,-360.79 3264.77,-359.92 3264.77,-359.92"/>
</g>
<!-- 35 -->
<g id="node36" class="node">
<title>35</title>
<polygon fill="none" stroke="black" points="2406.5,-180 1964.5,-180 1964.5,-144 2406.5,-144 2406.5,-180"/>
<text text-anchor="middle" x="2185.5" y="-158.3" font-family="Times,serif" font-size="14.00">src.declare4py.utility.template_checkers.constraint_checker</text>
</g>
<!-- 17&#45;&gt;35 -->
<g id="edge19" class="edge">
<title>17&#45;&gt;35</title>
<path fill="none" stroke="black" d="M3094.35,-107.86C2856.83,-119.85 2558.76,-135.22 2417.13,-143.97"/>
<polygon fill="black" stroke="black" points="2406.8,-144.62 2416.5,-139.5 2411.79,-144.31 2416.78,-143.99 2416.78,-143.99 2416.78,-143.99 2411.79,-144.31 2417.06,-148.49 2406.8,-144.62 2406.8,-144.62"/>
</g>
<!-- 18&#45;&gt;13 -->
<g id="edge20" class="edge">
<title>18&#45;&gt;13</title>
<path fill="none" stroke="black" d="M4140.15,-180.03C4063.8,-190.49 3966.01,-203.89 3887.88,-214.59"/>
<polygon fill="black" stroke="black" points="3877.97,-215.95 3887.26,-210.13 3882.92,-215.27 3887.87,-214.59 3887.87,-214.59 3887.87,-214.59 3882.92,-215.27 3888.48,-219.05 3877.97,-215.95 3877.97,-215.95"/>
</g>
<!-- 18&#45;&gt;19 -->
<g id="edge21" class="edge">
<title>18&#45;&gt;19</title>
<path fill="none" stroke="black" d="M4197.34,-180.07C4122.48,-198.83 3997.72,-229.32 3889.5,-252 3830.24,-264.42 3763.83,-276.64 3709.44,-286.21"/>
<polygon fill="black" stroke="black" points="3699.42,-287.97 3708.5,-281.81 3704.35,-287.11 3709.27,-286.24 3709.27,-286.24 3709.27,-286.24 3704.35,-287.11 3710.05,-290.68 3699.42,-287.97 3699.42,-287.97"/>
</g>
<!-- 18&#45;&gt;30 -->
<g id="edge22" class="edge">
<title>18&#45;&gt;30</title>
<path fill="none" stroke="black" d="M4236.27,-180.03C4154.78,-229.2 3919.15,-371.38 3827.54,-426.65"/>
<polygon fill="black" stroke="black" points="3818.88,-431.87 3825.12,-422.86 3823.16,-429.29 3827.44,-426.71 3827.44,-426.71 3827.44,-426.71 3823.16,-429.29 3829.77,-430.56 3818.88,-431.87 3818.88,-431.87"/>
</g>
<!-- 20 -->
<g id="node21" class="node">
<title>20</title>
<polygon fill="none" stroke="black" points="3799.5,-36 3441.5,-36 3441.5,0 3799.5,0 3799.5,-36"/>
<text text-anchor="middle" x="3620.5" y="-14.3" font-family="Times,serif" font-size="14.00">src.declare4py.process_mining.model_discovery</text>
</g>
<!-- 21 -->
<g id="node22" class="node">
<title>21</title>
<polygon fill="none" stroke="black" points="3075.5,-108 2515.5,-108 2515.5,-72 3075.5,-72 3075.5,-108"/>
<text text-anchor="middle" x="2795.5" y="-86.3" font-family="Times,serif" font-size="14.00">src.declare4py.process_mining.model_discovery.basic_mp_declare_discovery</text>
</g>
<!-- 21&#45;&gt;19 -->
<g id="edge23" class="edge">
<title>21&#45;&gt;19</title>
<path fill="none" stroke="black" d="M3050.56,-108.01C3243.77,-121.28 3477.75,-138.39 3487.5,-144 3501.41,-152 3555.31,-235.99 3582.55,-279.37"/>
<polygon fill="black" stroke="black" points="3587.93,-287.97 3578.81,-281.88 3585.28,-283.73 3582.63,-279.49 3582.63,-279.49 3582.63,-279.49 3585.28,-283.73 3586.44,-277.1 3587.93,-287.97 3587.93,-287.97"/>
</g>
<!-- 22 -->
<g id="node23" class="node">
<title>22</title>
<polygon fill="none" stroke="black" points="4005.5,-180 3577.5,-180 3577.5,-144 4005.5,-144 4005.5,-180"/>
<text text-anchor="middle" x="3791.5" y="-158.3" font-family="Times,serif" font-size="14.00">src.declare4py.process_mining.model_discovery.discovery</text>
</g>
<!-- 21&#45;&gt;22 -->
<g id="edge24" class="edge">
<title>21&#45;&gt;22</title>
<path fill="none" stroke="black" d="M3037.56,-108.01C3198.84,-119.35 3409.3,-134.14 3566.86,-145.21"/>
<polygon fill="black" stroke="black" points="3577.16,-145.94 3566.87,-149.72 3572.17,-145.59 3567.19,-145.23 3567.19,-145.23 3567.19,-145.23 3572.17,-145.59 3567.5,-140.75 3577.16,-145.94 3577.16,-145.94"/>
</g>
<!-- 21&#45;&gt;28 -->
<g id="edge25" class="edge">
<title>21&#45;&gt;28</title>
<path fill="none" stroke="black" d="M2515.33,-107.78C2272.14,-122.49 1958.35,-141.85 1955.5,-144 1933.73,-160.44 1913.81,-236.41 1904.33,-277.85"/>
<polygon fill="black" stroke="black" points="1902.09,-287.82 1899.89,-277.08 1903.19,-282.94 1904.28,-278.07 1904.28,-278.07 1904.28,-278.07 1903.19,-282.94 1908.67,-279.05 1902.09,-287.82 1902.09,-287.82"/>
</g>
<!-- 21&#45;&gt;29 -->
<g id="edge26" class="edge">
<title>21&#45;&gt;29</title>
<path fill="none" stroke="black" d="M2799.99,-108.29C2803.95,-127.73 2806.95,-159.3 2791.5,-180 2762.24,-219.2 2715.87,-176.16 2687.5,-216 2678.22,-229.03 2676.88,-240.03 2687.5,-252 2732.06,-302.23 2922.77,-270.15 2987.5,-288 3045.67,-304.04 3108.62,-334.42 3148.04,-355.18"/>
<polygon fill="black" stroke="black" points="3157.05,-359.97 3146.11,-359.25 3152.64,-357.63 3148.22,-355.28 3148.22,-355.28 3148.22,-355.28 3152.64,-357.63 3150.34,-351.3 3157.05,-359.97 3157.05,-359.97"/>
</g>
<!-- 21&#45;&gt;34 -->
<g id="edge27" class="edge">
<title>21&#45;&gt;34</title>
<path fill="none" stroke="black" d="M2794.69,-108.13C2792.84,-128.03 2786.82,-160.61 2767.5,-180 2730.3,-217.34 2685.6,-173.45 2654.5,-216 2645.06,-228.92 2645.81,-238.57 2654.5,-252 2663.39,-265.74 2676.78,-275.95 2691.39,-283.53"/>
<polygon fill="black" stroke="black" points="2700.62,-287.92 2689.65,-287.69 2696.1,-285.77 2691.58,-283.62 2691.58,-283.62 2691.58,-283.62 2696.1,-285.77 2693.52,-279.56 2700.62,-287.92 2700.62,-287.92"/>
</g>
<!-- 21&#45;&gt;35 -->
<g id="edge28" class="edge">
<title>21&#45;&gt;35</title>
<path fill="none" stroke="black" d="M2647.06,-108.03C2555.27,-118.57 2437.53,-132.08 2343.95,-142.82"/>
<polygon fill="black" stroke="black" points="2333.81,-143.98 2343.24,-138.37 2338.78,-143.41 2343.75,-142.84 2343.75,-142.84 2343.75,-142.84 2338.78,-143.41 2344.26,-147.31 2333.81,-143.98 2333.81,-143.98"/>
</g>
<!-- 22&#45;&gt;13 -->
<g id="edge29" class="edge">
<title>22&#45;&gt;13</title>
<path fill="none" stroke="black" d="M3782.11,-180.3C3777.74,-188.36 3772.44,-198.11 3767.6,-207.02"/>
<polygon fill="black" stroke="black" points="3762.79,-215.9 3763.6,-204.96 3765.17,-211.5 3767.56,-207.11 3767.56,-207.11 3767.56,-207.11 3765.17,-211.5 3771.51,-209.25 3762.79,-215.9 3762.79,-215.9"/>
</g>
<!-- 22&#45;&gt;19 -->
<g id="edge30" class="edge">
<title>22&#45;&gt;19</title>
<path fill="none" stroke="black" d="M3673.98,-180.16C3652.8,-188.05 3632.66,-199.48 3617.5,-216 3602.26,-232.6 3598.11,-258.32 3597.41,-277.85"/>
<polygon fill="black" stroke="black" points="3597.33,-287.96 3592.91,-277.93 3597.37,-282.96 3597.41,-277.96 3597.41,-277.96 3597.41,-277.96 3597.37,-282.96 3601.91,-278 3597.33,-287.96 3597.33,-287.96"/>
</g>
<!-- 22&#45;&gt;30 -->
<g id="edge31" class="edge">
<title>22&#45;&gt;30</title>
<path fill="none" stroke="black" d="M3846.32,-180.04C3863.16,-188.13 3879.79,-199.72 3889.5,-216 3897.69,-229.74 3893.19,-236.43 3889.5,-252 3873.83,-318.09 3832.31,-387.22 3808.31,-423.41"/>
<polygon fill="black" stroke="black" points="3802.61,-431.88 3804.46,-421.07 3805.4,-427.74 3808.19,-423.59 3808.19,-423.59 3808.19,-423.59 3805.4,-427.74 3811.93,-426.1 3802.61,-431.88 3802.61,-431.88"/>
</g>
<!-- 23 -->
<g id="node24" class="node">
<title>23</title>
<polygon fill="none" stroke="black" points="4841.5,-180 4523.5,-180 4523.5,-144 4841.5,-144 4841.5,-180"/>
<text text-anchor="middle" x="4682.5" y="-158.3" font-family="Times,serif" font-size="14.00">src.declare4py.process_mining.monitoring</text>
</g>
<!-- 23&#45;&gt;13 -->
<g id="edge32" class="edge">
<title>23&#45;&gt;13</title>
<path fill="none" stroke="black" d="M4523.34,-179.23C4520.37,-179.49 4517.42,-179.75 4514.5,-180 4296.66,-198.6 4043.32,-215.25 3890.85,-224.73"/>
<polygon fill="black" stroke="black" points="3880.5,-225.37 3890.2,-220.26 3885.49,-225.07 3890.48,-224.76 3890.48,-224.76 3890.48,-224.76 3885.49,-225.07 3890.76,-229.25 3880.5,-225.37 3880.5,-225.37"/>
</g>
<!-- 23&#45;&gt;19 -->
<g id="edge33" class="edge">
<title>23&#45;&gt;19</title>
<path fill="none" stroke="black" d="M4552.55,-180.02C4347.35,-206.9 3949.94,-258.96 3738.6,-286.65"/>
<polygon fill="black" stroke="black" points="3728.68,-287.95 3738.01,-282.19 3733.63,-287.3 3738.59,-286.65 3738.59,-286.65 3738.59,-286.65 3733.63,-287.3 3739.18,-291.11 3728.68,-287.95 3728.68,-287.95"/>
</g>
<!-- 23&#45;&gt;30 -->
<g id="edge34" class="edge">
<title>23&#45;&gt;30</title>
<path fill="none" stroke="black" d="M4629.37,-180.03C4473.91,-229.88 4020.38,-375.29 3853.27,-428.87"/>
<polygon fill="black" stroke="black" points="3843.63,-431.97 3851.78,-424.63 3848.39,-430.44 3853.15,-428.91 3853.15,-428.91 3853.15,-428.91 3848.39,-430.44 3854.53,-433.2 3843.63,-431.97 3843.63,-431.97"/>
</g>
<!-- 24 -->
<g id="node25" class="node">
<title>24</title>
<polygon fill="none" stroke="black" points="4167.5,-36 3817.5,-36 3817.5,0 4167.5,0 4167.5,-36"/>
<text text-anchor="middle" x="3992.5" y="-14.3" font-family="Times,serif" font-size="14.00">src.declare4py.process_mining.query_checking</text>
</g>
<!-- 25 -->
<g id="node26" class="node">
<title>25</title>
<polygon fill="none" stroke="black" points="2496.5,-108 1898.5,-108 1898.5,-72 2496.5,-72 2496.5,-108"/>
<text text-anchor="middle" x="2197.5" y="-86.3" font-family="Times,serif" font-size="14.00">src.declare4py.process_mining.query_checking.basic_mp_declare_query_checking</text>
</g>
<!-- 25&#45;&gt;19 -->
<g id="edge35" class="edge">
<title>25&#45;&gt;19</title>
<path fill="none" stroke="black" d="M2496.79,-107.54C2500.04,-107.69 2503.28,-107.85 2506.5,-108 2607.24,-112.77 3319.76,-106.79 3413.5,-144 3415.89,-144.95 3520.52,-236.58 3571.34,-281.16"/>
<polygon fill="black" stroke="black" points="3579.01,-287.89 3568.53,-284.68 3575.26,-284.6 3571.5,-281.3 3571.5,-281.3 3571.5,-281.3 3575.26,-284.6 3574.46,-277.92 3579.01,-287.89 3579.01,-287.89"/>
</g>
<!-- 26 -->
<g id="node27" class="node">
<title>26</title>
<polygon fill="none" stroke="black" points="3404.5,-180 2938.5,-180 2938.5,-144 3404.5,-144 3404.5,-180"/>
<text text-anchor="middle" x="3171.5" y="-158.3" font-family="Times,serif" font-size="14.00">src.declare4py.process_mining.query_checking.query_checking</text>
</g>
<!-- 25&#45;&gt;26 -->
<g id="edge36" class="edge">
<title>25&#45;&gt;26</title>
<path fill="none" stroke="black" d="M2434.21,-108.01C2583.93,-118.77 2776.98,-132.65 2927.99,-143.5"/>
<polygon fill="black" stroke="black" points="2938.33,-144.24 2928.03,-148.01 2933.34,-143.88 2928.35,-143.53 2928.35,-143.53 2928.35,-143.53 2933.34,-143.88 2928.68,-139.04 2938.33,-144.24 2938.33,-144.24"/>
</g>
<!-- 25&#45;&gt;28 -->
<g id="edge37" class="edge">
<title>25&#45;&gt;28</title>
<path fill="none" stroke="black" d="M2025.13,-108.05C1979.37,-116.04 1938.27,-127.55 1922.5,-144 1888.21,-179.78 1889.64,-242.08 1893.94,-277.79"/>
<polygon fill="black" stroke="black" points="1895.33,-287.96 1889.51,-278.66 1894.65,-283 1893.97,-278.05 1893.97,-278.05 1893.97,-278.05 1894.65,-283 1898.43,-277.44 1895.33,-287.96 1895.33,-287.96"/>
</g>
<!-- 25&#45;&gt;35 -->
<g id="edge38" class="edge">
<title>25&#45;&gt;35</title>
<path fill="none" stroke="black" d="M2194.53,-108.3C2193.21,-116.02 2191.62,-125.29 2190.15,-133.89"/>
<polygon fill="black" stroke="black" points="2188.43,-143.9 2185.69,-133.28 2189.28,-138.97 2190.12,-134.04 2190.12,-134.04 2190.12,-134.04 2189.28,-138.97 2194.56,-134.8 2188.43,-143.9 2188.43,-143.9"/>
</g>
<!-- 26&#45;&gt;13 -->
<g id="edge39" class="edge">
<title>26&#45;&gt;13</title>
<path fill="none" stroke="black" d="M3313.13,-180.03C3405.23,-191.11 3524.73,-205.48 3616,-216.46"/>
<polygon fill="black" stroke="black" points="3626.14,-217.68 3615.68,-220.96 3621.18,-217.09 3616.21,-216.49 3616.21,-216.49 3616.21,-216.49 3621.18,-217.09 3616.75,-212.02 3626.14,-217.68 3626.14,-217.68"/>
</g>
<!-- 26&#45;&gt;19 -->
<g id="edge40" class="edge">
<title>26&#45;&gt;19</title>
<path fill="none" stroke="black" d="M3251.22,-180.04C3291.06,-189.3 3339.76,-201.78 3382.5,-216 3421.82,-229.08 3430.2,-236.18 3468.5,-252 3494.24,-262.63 3522.9,-274.33 3546.74,-284.03"/>
<polygon fill="black" stroke="black" points="3556.31,-287.91 3545.35,-288.32 3551.67,-286.03 3547.04,-284.15 3547.04,-284.15 3547.04,-284.15 3551.67,-286.03 3548.74,-279.98 3556.31,-287.91 3556.31,-287.91"/>
</g>
<!-- 26&#45;&gt;29 -->
<g id="edge41" class="edge">
<title>26&#45;&gt;29</title>
<path fill="none" stroke="black" d="M3264.41,-180.11C3301.69,-189.04 3338.47,-201.2 3349.5,-216 3390.98,-271.63 3300.03,-326.45 3238.33,-355.56"/>
<polygon fill="black" stroke="black" points="3229.08,-359.84 3236.27,-351.56 3233.62,-357.74 3238.16,-355.64 3238.16,-355.64 3238.16,-355.64 3233.62,-357.74 3240.05,-359.72 3229.08,-359.84 3229.08,-359.84"/>
</g>
<!-- 27 -->
<g id="node28" class="node">
<title>27</title>
<polygon fill="none" stroke="black" points="4421.5,-36 4185.5,-36 4185.5,0 4421.5,0 4421.5,-36"/>
<text text-anchor="middle" x="4303.5" y="-14.3" font-family="Times,serif" font-size="14.00">src.declare4py.process_models</text>
</g>
<!-- 28&#45;&gt;29 -->
<g id="edge42" class="edge">
<title>28&#45;&gt;29</title>
<path fill="none" stroke="black" d="M2058.82,-315.71C2305.49,-329.1 2775.56,-354.63 3024.09,-368.13"/>
<polygon fill="black" stroke="black" points="3034.29,-368.68 3024.06,-372.63 3029.3,-368.41 3024.31,-368.14 3024.31,-368.14 3024.31,-368.14 3029.3,-368.41 3024.55,-363.64 3034.29,-368.68 3034.29,-368.68"/>
</g>
<!-- 29&#45;&gt;30 -->
<g id="edge43" class="edge">
<title>29&#45;&gt;30</title>
<path fill="none" stroke="black" d="M3334.24,-396.03C3424.97,-406.57 3541.36,-420.08 3633.87,-430.82"/>
<polygon fill="black" stroke="black" points="3643.89,-431.98 3633.44,-435.3 3638.92,-431.4 3633.95,-430.83 3633.95,-430.83 3633.95,-430.83 3638.92,-431.4 3634.47,-426.36 3643.89,-431.98 3643.89,-431.98"/>
</g>
<!-- 31 -->
<g id="node32" class="node">
<title>31</title>
<polygon fill="none" stroke="black" points="1836.5,-36 1582.5,-36 1582.5,0 1836.5,0 1836.5,-36"/>
<text text-anchor="middle" x="1709.5" y="-14.3" font-family="Times,serif" font-size="14.00">src.declare4py.run_log_generator</text>
</g>
<!-- 31&#45;&gt;3 -->
<g id="edge44" class="edge">
<title>31&#45;&gt;3</title>
<path fill="none" stroke="black" d="M1672.56,-36.12C1652.01,-45.65 1626.25,-57.59 1604.41,-67.72"/>
<polygon fill="black" stroke="black" points="1595.32,-71.93 1602.5,-63.64 1599.86,-69.83 1604.39,-67.73 1604.39,-67.73 1604.39,-67.73 1599.86,-69.83 1606.28,-71.81 1595.32,-71.93 1595.32,-71.93"/>
</g>
<!-- 31&#45;&gt;28 -->
<g id="edge45" class="edge">
<title>31&#45;&gt;28</title>
<path fill="none" stroke="black" d="M1729.88,-36.27C1755.58,-58.9 1799.86,-100.8 1828.5,-144 1857.22,-187.32 1878.74,-244.38 1889.91,-277.64"/>
<polygon fill="black" stroke="black" points="1893.17,-287.55 1885.77,-279.46 1891.61,-282.8 1890.05,-278.05 1890.05,-278.05 1890.05,-278.05 1891.61,-282.8 1894.32,-276.65 1893.17,-287.55 1893.17,-287.55"/>
</g>
<!-- 32 -->
<g id="node33" class="node">
<title>32</title>
<polygon fill="none" stroke="black" points="4607,-36 4440,-36 4440,0 4607,0 4607,-36"/>
<text text-anchor="middle" x="4523.5" y="-14.3" font-family="Times,serif" font-size="14.00">src.declare4py.utility</text>
</g>
<!-- 33 -->
<g id="node34" class="node">
<title>33</title>
<polygon fill="none" stroke="black" points="4927.5,-36 4625.5,-36 4625.5,0 4927.5,0 4927.5,-36"/>
<text text-anchor="middle" x="4776.5" y="-14.3" font-family="Times,serif" font-size="14.00">src.declare4py.utility.template_checkers</text>
</g>
<!-- 35&#45;&gt;19 -->
<g id="edge46" class="edge">
<title>35&#45;&gt;19</title>
<path fill="none" stroke="black" d="M2299.15,-180.01C2362.63,-189.83 2443.1,-202.83 2514.5,-216 2591.73,-230.25 2609.64,-241.69 2687.5,-252 2942.15,-285.72 3239.68,-297.98 3423.62,-302.45"/>
<polygon fill="black" stroke="black" points="3433.65,-302.69 3423.55,-306.95 3428.65,-302.57 3423.65,-302.45 3423.65,-302.45 3423.65,-302.45 3428.65,-302.57 3423.76,-297.95 3433.65,-302.69 3433.65,-302.69"/>
</g>
<!-- 35&#45;&gt;28 -->
<g id="edge47" class="edge">
<title>35&#45;&gt;28</title>
<path fill="none" stroke="black" d="M2088.67,-180.08C2057.05,-188.13 2022.61,-199.68 1993.5,-216 1977.74,-224.84 1944.6,-257.37 1921.94,-280.54"/>
<polygon fill="black" stroke="black" points="1914.7,-287.99 1918.44,-277.68 1918.18,-284.4 1921.67,-280.82 1921.67,-280.82 1921.67,-280.82 1918.18,-284.4 1924.89,-283.95 1914.7,-287.99 1914.7,-287.99"/>
</g>
<!-- 35&#45;&gt;29 -->
<g id="edge48" class="edge">
<title>35&#45;&gt;29</title>
<path fill="none" stroke="black" d="M2334.1,-180.04C2392.71,-188.82 2451.89,-200.88 2476.5,-216 2527.86,-247.54 2505.69,-294.96 2558.5,-324 2598.37,-345.92 2851.2,-361.71 3023.92,-370.09"/>
<polygon fill="black" stroke="black" points="3034.15,-370.58 3023.94,-374.6 3029.15,-370.34 3024.16,-370.1 3024.16,-370.1 3024.16,-370.1 3029.15,-370.34 3024.37,-365.61 3034.15,-370.58 3034.15,-370.58"/>
</g>
<!-- 35&#45;&gt;30 -->
<g id="edge49" class="edge">
<title>35&#45;&gt;30</title>
<path fill="none" stroke="black" d="M2360.53,-180.01C2390.11,-188.02 2419.35,-199.53 2444.5,-216 2469.05,-232.08 2499.01,-304.02 2520.5,-324 2566.05,-366.35 2580.96,-378.02 2640.5,-396 2730.21,-423.09 3305.76,-438.93 3607.09,-445.47"/>
<polygon fill="black" stroke="black" points="3617.25,-445.69 3607.16,-449.97 3612.25,-445.58 3607.25,-445.47 3607.25,-445.47 3607.25,-445.47 3612.25,-445.58 3607.35,-440.97 3617.25,-445.69 3617.25,-445.69"/>
</g>
<!-- 36 -->
<g id="node37" class="node">
<title>36</title>
<polygon fill="none" stroke="black" points="2435,-252 2002,-252 2002,-216 2435,-216 2435,-252"/>
<text text-anchor="middle" x="2218.5" y="-230.3" font-family="Times,serif" font-size="14.00">src.declare4py.utility.template_checkers.template_checker</text>
</g>
<!-- 35&#45;&gt;36 -->
<g id="edge50" class="edge">
<title>35&#45;&gt;36</title>
<path fill="none" stroke="black" d="M2193.66,-180.3C2197.41,-188.27 2201.95,-197.9 2206.12,-206.74"/>
<polygon fill="black" stroke="black" points="2210.44,-215.9 2202.1,-208.77 2208.3,-211.37 2206.17,-206.85 2206.17,-206.85 2206.17,-206.85 2208.3,-211.37 2210.24,-204.93 2210.44,-215.9 2210.44,-215.9"/>
</g>
<!-- 36&#45;&gt;28 -->
<g id="edge51" class="edge">
<title>36&#45;&gt;28</title>
<path fill="none" stroke="black" d="M2140.63,-252.03C2093.98,-262.24 2034.56,-275.24 1986.26,-285.8"/>
<polygon fill="black" stroke="black" points="1976.44,-287.95 1985.25,-281.42 1981.33,-286.88 1986.21,-285.81 1986.21,-285.81 1986.21,-285.81 1981.33,-286.88 1987.17,-290.21 1976.44,-287.95 1976.44,-287.95"/>
</g>
<!-- 36&#45;&gt;34 -->
<g id="edge52" class="edge">
<title>36&#45;&gt;34</title>
<path fill="none" stroke="black" d="M2353.32,-252.03C2436.34,-262.53 2542.76,-275.97 2627.59,-286.69"/>
<polygon fill="black" stroke="black" points="2637.56,-287.95 2627.08,-291.16 2632.6,-287.32 2627.64,-286.7 2627.64,-286.7 2627.64,-286.7 2632.6,-287.32 2628.2,-282.23 2637.56,-287.95 2637.56,-287.95"/>
</g>
</g>
</svg>
