<?xml version="1.0" encoding="UTF-8" standalone="no"?>
<!DOCTYPE svg PUBLIC "-//W3C//DTD SVG 1.1//EN"
 "http://www.w3.org/Graphics/SVG/1.1/DTD/svg11.dtd">
<!-- Generated by graphviz version 2.43.0 (0)
 -->
<!-- Title: packages Pages: 1 -->
<svg width="7372pt" height="476pt"
 viewBox="0.00 0.00 7372.20 476.00" xmlns="http://www.w3.org/2000/svg" xmlns:xlink="http://www.w3.org/1999/xlink">
<g id="graph0" class="graph" transform="scale(1 1) rotate(0) translate(4 472)">
<title>packages</title>
<polygon fill="white" stroke="transparent" points="-4,4 -4,-472 7368.2,-472 7368.2,4 -4,4"/>
<!-- 0 -->
<g id="node1" class="node">
<title>0</title>
<polygon fill="none" stroke="black" points="3443.2,-36 3321.2,-36 3321.2,0 3443.2,0 3443.2,-36"/>
<text text-anchor="middle" x="3382.2" y="-14.3" font-family="Times,serif" font-size="14.00">src.declare4py</text>
</g>
<!-- 1 -->
<g id="node2" class="node">
<title>1</title>
<polygon fill="none" stroke="black" points="3652.7,-36 3461.7,-36 3461.7,0 3652.7,0 3652.7,-36"/>
<text text-anchor="middle" x="3557.2" y="-14.3" font-family="Times,serif" font-size="14.00">src.declare4py.pm_tasks</text>
</g>
<!-- 2 -->
<g id="node3" class="node">
<title>2</title>
<polygon fill="none" stroke="black" points="4047.7,-36 3670.7,-36 3670.7,0 4047.7,0 4047.7,-36"/>
<text text-anchor="middle" x="3859.2" y="-14.3" font-family="Times,serif" font-size="14.00">src.declare4py.pm_tasks.basic_conformance_check</text>
</g>
<!-- 3 -->
<g id="node4" class="node">
<title>3</title>
<polygon fill="none" stroke="black" points="669.7,-252 26.7,-252 26.7,-216 669.7,-216 669.7,-252"/>
<text text-anchor="middle" x="348.2" y="-230.3" font-family="Times,serif" font-size="14.00">src.declare4py.pm_tasks.basic_conformance_check.basic_conformance_checking_results</text>
</g>
<!-- 34 -->
<g id="node35" class="node">
<title>34</title>
<polygon fill="none" stroke="black" points="903.7,-324 492.7,-324 492.7,-288 903.7,-288 903.7,-324"/>
<text text-anchor="middle" x="698.2" y="-302.3" font-family="Times,serif" font-size="14.00">src.declare4py.utility.template_checkers.checker_result</text>
</g>
<!-- 3&#45;&gt;34 -->
<g id="edge1" class="edge">
<title>3&#45;&gt;34</title>
<path fill="none" stroke="black" d="M433.37,-252.03C484.6,-262.28 549.92,-275.34 602.87,-285.93"/>
<polygon fill="black" stroke="black" points="612.95,-287.95 602.26,-290.4 608.04,-286.97 603.14,-285.99 603.14,-285.99 603.14,-285.99 608.04,-286.97 604.02,-281.58 612.95,-287.95 612.95,-287.95"/>
</g>
<!-- 4 -->
<g id="node5" class="node">
<title>4</title>
<polygon fill="none" stroke="black" points="1008.7,-108 333.7,-108 333.7,-72 1008.7,-72 1008.7,-108"/>
<text text-anchor="middle" x="671.2" y="-86.3" font-family="Times,serif" font-size="14.00">src.declare4py.pm_tasks.basic_conformance_check.basic_mp_declare_conformance_checking</text>
</g>
<!-- 9 -->
<g id="node10" class="node">
<title>9</title>
<polygon fill="none" stroke="black" points="692.7,-180 397.7,-180 397.7,-144 692.7,-144 692.7,-180"/>
<text text-anchor="middle" x="545.2" y="-158.3" font-family="Times,serif" font-size="14.00">src.declare4py.pm_tasks.conf_checking</text>
</g>
<!-- 4&#45;&gt;9 -->
<g id="edge2" class="edge">
<title>4&#45;&gt;9</title>
<path fill="none" stroke="black" d="M640.37,-108.12C623.75,-117.36 603.03,-128.87 585.18,-138.79"/>
<polygon fill="black" stroke="black" points="576.14,-143.81 582.69,-135.02 580.51,-141.38 584.88,-138.95 584.88,-138.95 584.88,-138.95 580.51,-141.38 587.06,-142.89 576.14,-143.81 576.14,-143.81"/>
</g>
<!-- 11 -->
<g id="node12" class="node">
<title>11</title>
<polygon fill="none" stroke="black" points="1445.2,-324 1161.2,-324 1161.2,-288 1445.2,-288 1445.2,-324"/>
<text text-anchor="middle" x="1303.2" y="-302.3" font-family="Times,serif" font-size="14.00">src.declare4py.pm_tasks.log_analyzer</text>
</g>
<!-- 4&#45;&gt;11 -->
<g id="edge3" class="edge">
<title>4&#45;&gt;11</title>
<path fill="none" stroke="black" d="M680.41,-108.13C691.94,-128.04 713.44,-160.62 740.2,-180 817.39,-235.91 849.71,-228.97 942.2,-252 1009.73,-268.82 1085.79,-280.96 1150.62,-289.35"/>
<polygon fill="black" stroke="black" points="1160.93,-290.66 1150.44,-293.86 1155.97,-290.03 1151.01,-289.4 1151.01,-289.4 1151.01,-289.4 1155.97,-290.03 1151.58,-284.93 1160.93,-290.66 1160.93,-290.66"/>
</g>
<!-- 28 -->
<g id="node29" class="node">
<title>28</title>
<polygon fill="none" stroke="black" points="2269.2,-396 1963.2,-396 1963.2,-360 2269.2,-360 2269.2,-396"/>
<text text-anchor="middle" x="2116.2" y="-374.3" font-family="Times,serif" font-size="14.00">src.declare4py.process_models.ltl_model</text>
</g>
<!-- 4&#45;&gt;28 -->
<g id="edge4" class="edge">
<title>4&#45;&gt;28</title>
<path fill="none" stroke="black" d="M475.08,-108C259.86,-130.65 -47.26,-176.82 17.2,-252 153.6,-411.1 274.53,-304.57 483.2,-324 764.69,-350.22 1597.89,-367.74 1952.96,-374.21"/>
<polygon fill="black" stroke="black" points="1963.06,-374.4 1952.98,-378.71 1958.07,-374.31 1953.07,-374.21 1953.07,-374.21 1953.07,-374.21 1958.07,-374.31 1953.15,-369.72 1963.06,-374.4 1963.06,-374.4"/>
</g>
<!-- 35 -->
<g id="node36" class="node">
<title>35</title>
<polygon fill="none" stroke="black" points="2127.2,-180 1685.2,-180 1685.2,-144 2127.2,-144 2127.2,-180"/>
<text text-anchor="middle" x="1906.2" y="-158.3" font-family="Times,serif" font-size="14.00">src.declare4py.utility.template_checkers.constraint_checker</text>
</g>
<!-- 4&#45;&gt;35 -->
<g id="edge5" class="edge">
<title>4&#45;&gt;35</title>
<path fill="none" stroke="black" d="M1008.88,-107.03C1201.1,-116.59 1446.67,-129.54 1674.78,-143.92"/>
<polygon fill="black" stroke="black" points="1684.94,-144.56 1674.68,-148.42 1679.95,-144.24 1674.96,-143.93 1674.96,-143.93 1674.96,-143.93 1679.95,-144.24 1675.25,-139.44 1684.94,-144.56 1684.94,-144.56"/>
</g>
<!-- 5 -->
<g id="node6" class="node">
<title>5</title>
<polygon fill="none" stroke="black" points="4695.7,-36 4338.7,-36 4338.7,0 4695.7,0 4695.7,-36"/>
<text text-anchor="middle" x="4517.2" y="-14.3" font-family="Times,serif" font-size="14.00">src.declare4py.pm_tasks.basic_model_discovery</text>
</g>
<!-- 6 -->
<g id="node7" class="node">
<title>6</title>
<polygon fill="none" stroke="black" points="1663.2,-108 1103.2,-108 1103.2,-72 1663.2,-72 1663.2,-108"/>
<text text-anchor="middle" x="1383.2" y="-86.3" font-family="Times,serif" font-size="14.00">src.declare4py.pm_tasks.basic_model_discovery.basic_mp_declare_discovery</text>
</g>
<!-- 10 -->
<g id="node11" class="node">
<title>10</title>
<polygon fill="none" stroke="black" points="1304.7,-180 1041.7,-180 1041.7,-144 1304.7,-144 1304.7,-180"/>
<text text-anchor="middle" x="1173.2" y="-158.3" font-family="Times,serif" font-size="14.00">src.declare4py.pm_tasks.discovery</text>
</g>
<!-- 6&#45;&gt;10 -->
<g id="edge6" class="edge">
<title>6&#45;&gt;10</title>
<path fill="none" stroke="black" d="M1332.09,-108.03C1302.62,-117.86 1265.38,-130.27 1234.36,-140.61"/>
<polygon fill="black" stroke="black" points="1224.53,-143.89 1232.59,-136.46 1229.27,-142.31 1234.01,-140.73 1234.01,-140.73 1234.01,-140.73 1229.27,-142.31 1235.44,-145 1224.53,-143.89 1224.53,-143.89"/>
</g>
<!-- 6&#45;&gt;11 -->
<g id="edge7" class="edge">
<title>6&#45;&gt;11</title>
<path fill="none" stroke="black" d="M1371.8,-108.12C1365.41,-118.25 1357.66,-131.5 1352.2,-144 1332.42,-189.21 1317.41,-244.85 1309.48,-277.47"/>
<polygon fill="black" stroke="black" points="1307.07,-287.61 1305.01,-276.84 1308.23,-282.74 1309.39,-277.88 1309.39,-277.88 1309.39,-277.88 1308.23,-282.74 1313.76,-278.92 1307.07,-287.61 1307.07,-287.61"/>
</g>
<!-- 27 -->
<g id="node28" class="node">
<title>27</title>
<polygon fill="none" stroke="black" points="2851.2,-324 2531.2,-324 2531.2,-288 2851.2,-288 2851.2,-324"/>
<text text-anchor="middle" x="2691.2" y="-302.3" font-family="Times,serif" font-size="14.00">src.declare4py.process_models.decl_model</text>
</g>
<!-- 6&#45;&gt;27 -->
<g id="edge8" class="edge">
<title>6&#45;&gt;27</title>
<path fill="none" stroke="black" d="M1663.25,-103.94C1694.27,-105.33 1725.4,-106.71 1755.2,-108 1804.02,-110.12 2594.87,-114.98 2634.2,-144 2676.54,-175.25 2687.57,-240.55 2690.35,-277.67"/>
<polygon fill="black" stroke="black" points="2690.95,-287.78 2685.86,-278.07 2690.65,-282.79 2690.36,-277.8 2690.36,-277.8 2690.36,-277.8 2690.65,-282.79 2694.85,-277.53 2690.95,-287.78 2690.95,-287.78"/>
</g>
<!-- 6&#45;&gt;28 -->
<g id="edge9" class="edge">
<title>6&#45;&gt;28</title>
<path fill="none" stroke="black" d="M1663.25,-106.34C1873.94,-118.57 2127.87,-135.07 2136.2,-144 2189.16,-200.82 2151.79,-302.85 2129.52,-350.78"/>
<polygon fill="black" stroke="black" points="2125.17,-359.88 2125.42,-348.92 2127.33,-355.37 2129.48,-350.86 2129.48,-350.86 2129.48,-350.86 2127.33,-355.37 2133.54,-352.8 2125.17,-359.88 2125.17,-359.88"/>
</g>
<!-- 6&#45;&gt;34 -->
<g id="edge10" class="edge">
<title>6&#45;&gt;34</title>
<path fill="none" stroke="black" d="M1102.87,-104.79C809.68,-119.38 391.29,-140.74 388.2,-144 377.19,-155.61 377.6,-168.01 388.2,-180 474.19,-277.33 581.99,-128.75 678.2,-216 695.1,-231.33 699.31,-257.6 699.76,-277.64"/>
<polygon fill="black" stroke="black" points="699.69,-287.74 695.26,-277.71 699.73,-282.74 699.76,-277.74 699.76,-277.74 699.76,-277.74 699.73,-282.74 704.26,-277.77 699.69,-287.74 699.69,-287.74"/>
</g>
<!-- 6&#45;&gt;35 -->
<g id="edge11" class="edge">
<title>6&#45;&gt;35</title>
<path fill="none" stroke="black" d="M1510.47,-108.03C1588.61,-118.49 1688.7,-131.89 1768.66,-142.59"/>
<polygon fill="black" stroke="black" points="1778.81,-143.95 1768.3,-147.08 1773.85,-143.29 1768.9,-142.62 1768.9,-142.62 1768.9,-142.62 1773.85,-143.29 1769.49,-138.16 1778.81,-143.95 1778.81,-143.95"/>
</g>
<!-- 7 -->
<g id="node8" class="node">
<title>7</title>
<polygon fill="none" stroke="black" points="5064.2,-36 4714.2,-36 4714.2,0 5064.2,0 5064.2,-36"/>
<text text-anchor="middle" x="4889.2" y="-14.3" font-family="Times,serif" font-size="14.00">src.declare4py.pm_tasks.basic_query_checking</text>
</g>
<!-- 8 -->
<g id="node9" class="node">
<title>8</title>
<polygon fill="none" stroke="black" points="2360.7,-108 1763.7,-108 1763.7,-72 2360.7,-72 2360.7,-108"/>
<text text-anchor="middle" x="2062.2" y="-86.3" font-family="Times,serif" font-size="14.00">src.declare4py.pm_tasks.basic_query_checking.basic_mp_declare_query_checking</text>
</g>
<!-- 8&#45;&gt;11 -->
<g id="edge12" class="edge">
<title>8&#45;&gt;11</title>
<path fill="none" stroke="black" d="M2099.59,-108.2C2113.74,-116.8 2128.32,-128.68 2136.2,-144 2143.51,-158.23 2145.9,-167.28 2136.2,-180 2062.68,-276.35 1992.43,-230.31 1873.2,-252 1732.96,-277.51 1570.95,-291.08 1455.58,-298.07"/>
<polygon fill="black" stroke="black" points="1445.26,-298.68 1454.98,-293.6 1450.25,-298.39 1455.24,-298.09 1455.24,-298.09 1455.24,-298.09 1450.25,-298.39 1455.51,-302.58 1445.26,-298.68 1445.26,-298.68"/>
</g>
<!-- 25 -->
<g id="node26" class="node">
<title>25</title>
<polygon fill="none" stroke="black" points="1667.2,-180 1361.2,-180 1361.2,-144 1667.2,-144 1667.2,-180"/>
<text text-anchor="middle" x="1514.2" y="-158.3" font-family="Times,serif" font-size="14.00">src.declare4py.pm_tasks.query_checking</text>
</g>
<!-- 8&#45;&gt;25 -->
<g id="edge13" class="edge">
<title>8&#45;&gt;25</title>
<path fill="none" stroke="black" d="M1928.84,-108.03C1846.79,-118.51 1741.66,-131.94 1657.79,-142.66"/>
<polygon fill="black" stroke="black" points="1647.67,-143.95 1657.02,-138.22 1652.63,-143.32 1657.59,-142.68 1657.59,-142.68 1657.59,-142.68 1652.63,-143.32 1658.16,-147.15 1647.67,-143.95 1647.67,-143.95"/>
</g>
<!-- 8&#45;&gt;27 -->
<g id="edge14" class="edge">
<title>8&#45;&gt;27</title>
<path fill="none" stroke="black" d="M2360.74,-100.92C2501.28,-108.52 2643.44,-121.64 2667.2,-144 2703.38,-178.05 2701.18,-241.27 2696.26,-277.53"/>
<polygon fill="black" stroke="black" points="2694.68,-287.86 2691.74,-277.29 2695.43,-282.91 2696.19,-277.97 2696.19,-277.97 2696.19,-277.97 2695.43,-282.91 2700.64,-278.65 2694.68,-287.86 2694.68,-287.86"/>
</g>
<!-- 8&#45;&gt;35 -->
<g id="edge15" class="edge">
<title>8&#45;&gt;35</title>
<path fill="none" stroke="black" d="M2024.03,-108.12C2002.8,-117.65 1976.19,-129.59 1953.63,-139.72"/>
<polygon fill="black" stroke="black" points="1944.23,-143.93 1951.51,-135.73 1948.8,-141.88 1953.36,-139.84 1953.36,-139.84 1953.36,-139.84 1948.8,-141.88 1955.2,-143.94 1944.23,-143.93 1944.23,-143.93"/>
</g>
<!-- 9&#45;&gt;11 -->
<g id="edge16" class="edge">
<title>9&#45;&gt;11</title>
<path fill="none" stroke="black" d="M617.16,-180.11C647.43,-188.75 682.45,-200.69 712.2,-216 735.91,-228.21 735.34,-242.35 760.2,-252 829.11,-278.76 1015.86,-292.59 1151.13,-299.31"/>
<polygon fill="black" stroke="black" points="1161.19,-299.8 1150.98,-303.81 1156.19,-299.56 1151.2,-299.31 1151.2,-299.31 1151.2,-299.31 1156.19,-299.56 1151.42,-294.82 1161.19,-299.8 1161.19,-299.8"/>
</g>
<!-- 24 -->
<g id="node25" class="node">
<title>24</title>
<polygon fill="none" stroke="black" points="1267.2,-252 1013.2,-252 1013.2,-216 1267.2,-216 1267.2,-252"/>
<text text-anchor="middle" x="1140.2" y="-230.3" font-family="Times,serif" font-size="14.00">src.declare4py.pm_tasks.pm_task</text>
</g>
<!-- 9&#45;&gt;24 -->
<g id="edge17" class="edge">
<title>9&#45;&gt;24</title>
<path fill="none" stroke="black" d="M689.99,-180.03C785.24,-191.24 909.15,-205.82 1002.86,-216.84"/>
<polygon fill="black" stroke="black" points="1012.98,-218.03 1002.52,-221.33 1008.01,-217.45 1003.05,-216.86 1003.05,-216.86 1003.05,-216.86 1008.01,-217.45 1003.57,-212.4 1012.98,-218.03 1012.98,-218.03"/>
</g>
<!-- 29 -->
<g id="node30" class="node">
<title>29</title>
<polygon fill="none" stroke="black" points="1306.2,-468 960.2,-468 960.2,-432 1306.2,-432 1306.2,-468"/>
<text text-anchor="middle" x="1133.2" y="-446.3" font-family="Times,serif" font-size="14.00">src.declare4py.process_models.process_model</text>
</g>
<!-- 9&#45;&gt;29 -->
<g id="edge18" class="edge">
<title>9&#45;&gt;29</title>
<path fill="none" stroke="black" d="M397.46,-167.51C246.99,-173.66 32.15,-187.37 6.2,-216 -4.55,-227.85 1.41,-236.73 6.2,-252 43.71,-371.8 126.37,-370.02 249.2,-396 378.17,-423.28 731.04,-437.8 949.96,-444.41"/>
<polygon fill="black" stroke="black" points="959.95,-444.71 949.82,-448.9 954.96,-444.56 949.96,-444.41 949.96,-444.41 949.96,-444.41 954.96,-444.56 950.09,-439.91 959.95,-444.71 959.95,-444.71"/>
</g>
<!-- 10&#45;&gt;11 -->
<g id="edge19" class="edge">
<title>10&#45;&gt;11</title>
<path fill="none" stroke="black" d="M1225.38,-180.12C1243.67,-188.4 1262.93,-200.09 1276.2,-216 1290.77,-233.47 1297.48,-258.68 1300.57,-277.8"/>
<polygon fill="black" stroke="black" points="1301.94,-287.72 1296.11,-278.43 1301.25,-282.76 1300.57,-277.81 1300.57,-277.81 1300.57,-277.81 1301.25,-282.76 1305.02,-277.2 1301.94,-287.72 1301.94,-287.72"/>
</g>
<!-- 10&#45;&gt;24 -->
<g id="edge20" class="edge">
<title>10&#45;&gt;24</title>
<path fill="none" stroke="black" d="M1165.04,-180.3C1161.28,-188.27 1156.74,-197.9 1152.58,-206.74"/>
<polygon fill="black" stroke="black" points="1148.26,-215.9 1148.45,-204.93 1150.39,-211.37 1152.52,-206.85 1152.52,-206.85 1152.52,-206.85 1150.39,-211.37 1156.59,-208.77 1148.26,-215.9 1148.26,-215.9"/>
</g>
<!-- 10&#45;&gt;29 -->
<g id="edge21" class="edge">
<title>10&#45;&gt;29</title>
<path fill="none" stroke="black" d="M1052.38,-180.04C1033.52,-188.02 1016.3,-199.52 1004.2,-216 951.98,-287.1 1049.25,-381.64 1102.19,-425.19"/>
<polygon fill="black" stroke="black" points="1110.27,-431.73 1099.67,-428.94 1106.39,-428.59 1102.5,-425.44 1102.5,-425.44 1102.5,-425.44 1106.39,-428.59 1105.33,-421.94 1110.27,-431.73 1110.27,-431.73"/>
</g>
<!-- 12 -->
<g id="node13" class="node">
<title>12</title>
<polygon fill="none" stroke="black" points="5383.7,-36 5082.7,-36 5082.7,0 5383.7,0 5383.7,-36"/>
<text text-anchor="middle" x="5233.2" y="-14.3" font-family="Times,serif" font-size="14.00">src.declare4py.pm_tasks.log_generation</text>
</g>
<!-- 13 -->
<g id="node14" class="node">
<title>13</title>
<polygon fill="none" stroke="black" points="5732.2,-36 5402.2,-36 5402.2,0 5732.2,0 5732.2,-36"/>
<text text-anchor="middle" x="5567.2" y="-14.3" font-family="Times,serif" font-size="14.00">src.declare4py.pm_tasks.log_generation.asp</text>
</g>
<!-- 14 -->
<g id="node15" class="node">
<title>14</title>
<polygon fill="none" stroke="black" points="3740.7,-108 3303.7,-108 3303.7,-72 3740.7,-72 3740.7,-108"/>
<text text-anchor="middle" x="3522.2" y="-86.3" font-family="Times,serif" font-size="14.00">src.declare4py.pm_tasks.log_generation.asp.asp_generator</text>
</g>
<!-- 16 -->
<g id="node17" class="node">
<title>16</title>
<polygon fill="none" stroke="black" points="4836.7,-180 4293.7,-180 4293.7,-144 4836.7,-144 4836.7,-180"/>
<text text-anchor="middle" x="4565.2" y="-158.3" font-family="Times,serif" font-size="14.00">src.declare4py.pm_tasks.log_generation.asp.asp_translator.asp_translator</text>
</g>
<!-- 14&#45;&gt;16 -->
<g id="edge22" class="edge">
<title>14&#45;&gt;16</title>
<path fill="none" stroke="black" d="M3740.84,-105.67C3904.18,-116.64 4128.18,-131.67 4301.46,-143.3"/>
<polygon fill="black" stroke="black" points="4311.49,-143.97 4301.21,-147.79 4306.5,-143.64 4301.51,-143.3 4301.51,-143.3 4301.51,-143.3 4306.5,-143.64 4301.81,-138.81 4311.49,-143.97 4311.49,-143.97"/>
</g>
<!-- 19 -->
<g id="node20" class="node">
<title>19</title>
<polygon fill="none" stroke="black" points="3255.2,-180 2757.2,-180 2757.2,-144 3255.2,-144 3255.2,-180"/>
<text text-anchor="middle" x="3006.2" y="-158.3" font-family="Times,serif" font-size="14.00">src.declare4py.pm_tasks.log_generation.asp.asp_utils.asp_encoding</text>
</g>
<!-- 14&#45;&gt;19 -->
<g id="edge23" class="edge">
<title>14&#45;&gt;19</title>
<path fill="none" stroke="black" d="M3396.63,-108.03C3319.53,-118.49 3220.78,-131.89 3141.89,-142.59"/>
<polygon fill="black" stroke="black" points="3131.88,-143.95 3141.18,-138.15 3136.83,-143.28 3141.79,-142.61 3141.79,-142.61 3141.79,-142.61 3136.83,-143.28 3142.39,-147.06 3131.88,-143.95 3131.88,-143.95"/>
</g>
<!-- 20 -->
<g id="node21" class="node">
<title>20</title>
<polygon fill="none" stroke="black" points="3770.7,-180 3273.7,-180 3273.7,-144 3770.7,-144 3770.7,-180"/>
<text text-anchor="middle" x="3522.2" y="-158.3" font-family="Times,serif" font-size="14.00">src.declare4py.pm_tasks.log_generation.asp.asp_utils.asp_template</text>
</g>
<!-- 14&#45;&gt;20 -->
<g id="edge24" class="edge">
<title>14&#45;&gt;20</title>
<path fill="none" stroke="black" d="M3522.2,-108.3C3522.2,-116.02 3522.2,-125.29 3522.2,-133.89"/>
<polygon fill="black" stroke="black" points="3522.2,-143.9 3517.7,-133.9 3522.2,-138.9 3522.2,-133.9 3522.2,-133.9 3522.2,-133.9 3522.2,-138.9 3526.7,-133.9 3522.2,-143.9 3522.2,-143.9"/>
</g>
<!-- 21 -->
<g id="node22" class="node">
<title>21</title>
<polygon fill="none" stroke="black" points="4275.2,-180 3789.2,-180 3789.2,-144 4275.2,-144 4275.2,-180"/>
<text text-anchor="middle" x="4032.2" y="-158.3" font-family="Times,serif" font-size="14.00">src.declare4py.pm_tasks.log_generation.asp.asp_utils.distribution</text>
</g>
<!-- 14&#45;&gt;21 -->
<g id="edge25" class="edge">
<title>14&#45;&gt;21</title>
<path fill="none" stroke="black" d="M3646.3,-108.03C3722.35,-118.47 3819.71,-131.83 3897.6,-142.53"/>
<polygon fill="black" stroke="black" points="3907.97,-143.95 3897.45,-147.05 3903.02,-143.27 3898.07,-142.59 3898.07,-142.59 3898.07,-142.59 3903.02,-143.27 3898.68,-138.13 3907.97,-143.95 3907.97,-143.95"/>
</g>
<!-- 22 -->
<g id="node23" class="node">
<title>22</title>
<polygon fill="none" stroke="black" points="2625.2,-180 2221.2,-180 2221.2,-144 2625.2,-144 2625.2,-180"/>
<text text-anchor="middle" x="2423.2" y="-158.3" font-family="Times,serif" font-size="14.00">src.declare4py.pm_tasks.log_generation.log_generator</text>
</g>
<!-- 14&#45;&gt;22 -->
<g id="edge26" class="edge">
<title>14&#45;&gt;22</title>
<path fill="none" stroke="black" d="M3303.43,-104.93C3109.37,-117.29 2827.68,-135.24 2635.57,-147.47"/>
<polygon fill="black" stroke="black" points="2625.35,-148.12 2635.04,-143 2630.34,-147.81 2635.33,-147.49 2635.33,-147.49 2635.33,-147.49 2630.34,-147.81 2635.62,-151.98 2625.35,-148.12 2625.35,-148.12"/>
</g>
<!-- 14&#45;&gt;27 -->
<g id="edge27" class="edge">
<title>14&#45;&gt;27</title>
<path fill="none" stroke="black" d="M3303.21,-93.68C3089.82,-98.26 2791.33,-110.61 2748.2,-144 2708.18,-174.97 2729.52,-204.46 2712.2,-252 2709.03,-260.69 2705.38,-270.1 2702.01,-278.54"/>
<polygon fill="black" stroke="black" points="2698.25,-287.91 2697.8,-276.95 2700.11,-283.27 2701.98,-278.63 2701.98,-278.63 2701.98,-278.63 2700.11,-283.27 2706.15,-280.31 2698.25,-287.91 2698.25,-287.91"/>
</g>
<!-- 15 -->
<g id="node16" class="node">
<title>15</title>
<polygon fill="none" stroke="black" points="6187.7,-36 5750.7,-36 5750.7,0 6187.7,0 6187.7,-36"/>
<text text-anchor="middle" x="5969.2" y="-14.3" font-family="Times,serif" font-size="14.00">src.declare4py.pm_tasks.log_generation.asp.asp_translator</text>
</g>
<!-- 17 -->
<g id="node18" class="node">
<title>17</title>
<polygon fill="none" stroke="black" points="4486.2,-252 3848.2,-252 3848.2,-216 4486.2,-216 4486.2,-252"/>
<text text-anchor="middle" x="4167.2" y="-230.3" font-family="Times,serif" font-size="14.00">src.declare4py.pm_tasks.log_generation.asp.asp_translator.declare_constraint_resolver</text>
</g>
<!-- 16&#45;&gt;17 -->
<g id="edge28" class="edge">
<title>16&#45;&gt;17</title>
<path fill="none" stroke="black" d="M4468.34,-180.03C4409.6,-190.37 4334.57,-203.56 4274.1,-214.2"/>
<polygon fill="black" stroke="black" points="4264.14,-215.95 4273.21,-209.79 4269.06,-215.08 4273.99,-214.22 4273.99,-214.22 4273.99,-214.22 4269.06,-215.08 4274.77,-218.65 4264.14,-215.95 4264.14,-215.95"/>
</g>
<!-- 16&#45;&gt;27 -->
<g id="edge29" class="edge">
<title>16&#45;&gt;27</title>
<path fill="none" stroke="black" d="M4328.53,-180.01C4186.61,-190.27 4002.55,-203.71 3839.2,-216 3491.95,-242.14 3085.72,-273.91 2861.57,-291.55"/>
<polygon fill="black" stroke="black" points="2851.36,-292.35 2860.98,-287.08 2856.35,-291.96 2861.33,-291.57 2861.33,-291.57 2861.33,-291.57 2856.35,-291.96 2861.69,-296.06 2851.36,-292.35 2851.36,-292.35"/>
</g>
<!-- 17&#45;&gt;27 -->
<g id="edge30" class="edge">
<title>17&#45;&gt;27</title>
<path fill="none" stroke="black" d="M3847.83,-250.15C3545.12,-264.5 3101.98,-285.52 2861.58,-296.92"/>
<polygon fill="black" stroke="black" points="2851.35,-297.4 2861.12,-292.44 2856.34,-297.17 2861.34,-296.93 2861.34,-296.93 2861.34,-296.93 2856.34,-297.17 2861.55,-301.43 2851.35,-297.4 2851.35,-297.4"/>
</g>
<!-- 18 -->
<g id="node19" class="node">
<title>18</title>
<polygon fill="none" stroke="black" points="6604.2,-36 6206.2,-36 6206.2,0 6604.2,0 6604.2,-36"/>
<text text-anchor="middle" x="6405.2" y="-14.3" font-family="Times,serif" font-size="14.00">src.declare4py.pm_tasks.log_generation.asp.asp_utils</text>
</g>
<!-- 22&#45;&gt;24 -->
<g id="edge31" class="edge">
<title>22&#45;&gt;24</title>
<path fill="none" stroke="black" d="M2220.94,-175.26C2192.49,-176.9 2163.61,-178.53 2136.2,-180 1804.73,-197.81 1721.58,-196.74 1390.2,-216 1353.67,-218.12 1314.17,-220.69 1277.58,-223.17"/>
<polygon fill="black" stroke="black" points="1267.35,-223.87 1277.02,-218.7 1272.33,-223.53 1277.32,-223.19 1277.32,-223.19 1277.32,-223.19 1272.33,-223.53 1277.63,-227.68 1267.35,-223.87 1267.35,-223.87"/>
</g>
<!-- 22&#45;&gt;29 -->
<g id="edge32" class="edge">
<title>22&#45;&gt;29</title>
<path fill="none" stroke="black" d="M2418.55,-180.18C2405.37,-225.15 2363.07,-346.25 2278.2,-396 2197.59,-443.25 1619.03,-449.7 1316.5,-449.78"/>
<polygon fill="black" stroke="black" points="1306.3,-449.78 1316.3,-445.28 1311.3,-449.78 1316.3,-449.78 1316.3,-449.78 1316.3,-449.78 1311.3,-449.78 1316.3,-454.28 1306.3,-449.78 1306.3,-449.78"/>
</g>
<!-- 23 -->
<g id="node24" class="node">
<title>23</title>
<polygon fill="none" stroke="black" points="1023.2,-180 749.2,-180 749.2,-144 1023.2,-144 1023.2,-180"/>
<text text-anchor="middle" x="886.2" y="-158.3" font-family="Times,serif" font-size="14.00">src.declare4py.pm_tasks.monitoring</text>
</g>
<!-- 23&#45;&gt;11 -->
<g id="edge33" class="edge">
<title>23&#45;&gt;11</title>
<path fill="none" stroke="black" d="M903.28,-180.12C924.83,-200.65 963.97,-234.48 1004.2,-252 1049.98,-271.94 1102.82,-284.38 1151.22,-292.14"/>
<polygon fill="black" stroke="black" points="1161.16,-293.68 1150.59,-296.6 1156.22,-292.92 1151.28,-292.15 1151.28,-292.15 1151.28,-292.15 1156.22,-292.92 1151.96,-287.71 1161.16,-293.68 1161.16,-293.68"/>
</g>
<!-- 23&#45;&gt;24 -->
<g id="edge34" class="edge">
<title>23&#45;&gt;24</title>
<path fill="none" stroke="black" d="M948.01,-180.03C984.27,-190.03 1030.26,-202.7 1068.15,-213.15"/>
<polygon fill="black" stroke="black" points="1078.11,-215.89 1067.27,-217.57 1073.29,-214.56 1068.47,-213.23 1068.47,-213.23 1068.47,-213.23 1073.29,-214.56 1069.66,-208.89 1078.11,-215.89 1078.11,-215.89"/>
</g>
<!-- 23&#45;&gt;29 -->
<g id="edge35" class="edge">
<title>23&#45;&gt;29</title>
<path fill="none" stroke="black" d="M749.1,-176.2C732.96,-177.58 716.72,-178.88 701.2,-180 663.24,-182.74 43.39,-188.39 17.2,-216 6.18,-227.61 6.91,-239.74 17.2,-252 134.12,-391.37 664.5,-432.19 949.96,-444.11"/>
<polygon fill="black" stroke="black" points="960.01,-444.52 949.84,-448.6 955.02,-444.31 950.02,-444.11 950.02,-444.11 950.02,-444.11 955.02,-444.31 950.2,-439.61 960.01,-444.52 960.01,-444.52"/>
</g>
<!-- 24&#45;&gt;11 -->
<g id="edge36" class="edge">
<title>24&#45;&gt;11</title>
<path fill="none" stroke="black" d="M1180.07,-252.12C1202.35,-261.69 1230.31,-273.7 1253.95,-283.85"/>
<polygon fill="black" stroke="black" points="1263.45,-287.93 1252.49,-288.12 1258.86,-285.96 1254.26,-283.99 1254.26,-283.99 1254.26,-283.99 1258.86,-285.96 1256.04,-279.85 1263.45,-287.93 1263.45,-287.93"/>
</g>
<!-- 24&#45;&gt;29 -->
<g id="edge37" class="edge">
<title>24&#45;&gt;29</title>
<path fill="none" stroke="black" d="M1139.63,-252.15C1138.42,-289.17 1135.56,-376.82 1134.09,-421.61"/>
<polygon fill="black" stroke="black" points="1133.76,-431.77 1129.59,-421.63 1133.92,-426.77 1134.09,-421.77 1134.09,-421.77 1134.09,-421.77 1133.92,-426.77 1138.58,-421.92 1133.76,-431.77 1133.76,-431.77"/>
</g>
<!-- 25&#45;&gt;11 -->
<g id="edge38" class="edge">
<title>25&#45;&gt;11</title>
<path fill="none" stroke="black" d="M1462.09,-180.03C1438.98,-188.87 1412.12,-200.99 1390.2,-216 1363.99,-233.94 1339.19,-260.63 1322.83,-280.09"/>
<polygon fill="black" stroke="black" points="1316.35,-287.95 1319.24,-277.37 1319.53,-284.09 1322.71,-280.23 1322.71,-280.23 1322.71,-280.23 1319.53,-284.09 1326.18,-283.1 1316.35,-287.95 1316.35,-287.95"/>
</g>
<!-- 25&#45;&gt;24 -->
<g id="edge39" class="edge">
<title>25&#45;&gt;24</title>
<path fill="none" stroke="black" d="M1423.18,-180.03C1368.21,-190.32 1298.06,-203.45 1241.35,-214.07"/>
<polygon fill="black" stroke="black" points="1231.29,-215.95 1240.29,-209.69 1236.21,-215.03 1241.12,-214.11 1241.12,-214.11 1241.12,-214.11 1236.21,-215.03 1241.95,-218.53 1231.29,-215.95 1231.29,-215.95"/>
</g>
<!-- 25&#45;&gt;28 -->
<g id="edge40" class="edge">
<title>25&#45;&gt;28</title>
<path fill="none" stroke="black" d="M1651.31,-180.05C1724.51,-190.18 1806.51,-203.46 1841.2,-216 1930.01,-248.11 1942.61,-276.43 2024.2,-324 2041.66,-334.18 2061.05,-345.37 2077.51,-354.83"/>
<polygon fill="black" stroke="black" points="2086.32,-359.89 2075.41,-358.81 2081.98,-357.4 2077.65,-354.91 2077.65,-354.91 2077.65,-354.91 2081.98,-357.4 2079.89,-351.01 2086.32,-359.89 2086.32,-359.89"/>
</g>
<!-- 26 -->
<g id="node27" class="node">
<title>26</title>
<polygon fill="none" stroke="black" points="6858.2,-36 6622.2,-36 6622.2,0 6858.2,0 6858.2,-36"/>
<text text-anchor="middle" x="6740.2" y="-14.3" font-family="Times,serif" font-size="14.00">src.declare4py.process_models</text>
</g>
<!-- 27&#45;&gt;28 -->
<g id="edge41" class="edge">
<title>27&#45;&gt;28</title>
<path fill="none" stroke="black" d="M2551.27,-324.03C2465.01,-334.54 2354.42,-348 2266.33,-358.72"/>
<polygon fill="black" stroke="black" points="2256.25,-359.95 2265.63,-354.27 2261.21,-359.35 2266.18,-358.74 2266.18,-358.74 2266.18,-358.74 2261.21,-359.35 2266.72,-363.21 2256.25,-359.95 2256.25,-359.95"/>
</g>
<!-- 32 -->
<g id="node33" class="node">
<title>32</title>
<polygon fill="none" stroke="black" points="2843.2,-396 2539.2,-396 2539.2,-360 2843.2,-360 2843.2,-396"/>
<text text-anchor="middle" x="2691.2" y="-374.3" font-family="Times,serif" font-size="14.00">src.declare4py.utility.custom_utility_dict</text>
</g>
<!-- 27&#45;&gt;32 -->
<g id="edge42" class="edge">
<title>27&#45;&gt;32</title>
<path fill="none" stroke="black" d="M2691.2,-324.3C2691.2,-332.02 2691.2,-341.29 2691.2,-349.89"/>
<polygon fill="black" stroke="black" points="2691.2,-359.9 2686.7,-349.9 2691.2,-354.9 2691.2,-349.9 2691.2,-349.9 2691.2,-349.9 2691.2,-354.9 2695.7,-349.9 2691.2,-359.9 2691.2,-359.9"/>
</g>
<!-- 28&#45;&gt;29 -->
<g id="edge43" class="edge">
<title>28&#45;&gt;29</title>
<path fill="none" stroke="black" d="M1962.88,-394.83C1958.27,-395.23 1953.7,-395.62 1949.2,-396 1732.16,-414.09 1482.2,-429.53 1316.73,-439"/>
<polygon fill="black" stroke="black" points="1306.44,-439.59 1316.17,-434.53 1311.44,-439.3 1316.43,-439.02 1316.43,-439.02 1316.43,-439.02 1311.44,-439.3 1316.68,-443.51 1306.44,-439.59 1306.44,-439.59"/>
</g>
<!-- 30 -->
<g id="node31" class="node">
<title>30</title>
<polygon fill="none" stroke="black" points="4320.2,-36 4066.2,-36 4066.2,0 4320.2,0 4320.2,-36"/>
<text text-anchor="middle" x="4193.2" y="-14.3" font-family="Times,serif" font-size="14.00">src.declare4py.run_log_generator</text>
</g>
<!-- 30&#45;&gt;14 -->
<g id="edge44" class="edge">
<title>30&#45;&gt;14</title>
<path fill="none" stroke="black" d="M4066.16,-34.98C4063.14,-35.33 4060.15,-35.67 4057.2,-36 3944.2,-48.66 3817.6,-61.27 3715.93,-71.01"/>
<polygon fill="black" stroke="black" points="3705.86,-71.98 3715.38,-66.55 3710.83,-71.5 3715.81,-71.02 3715.81,-71.02 3715.81,-71.02 3710.83,-71.5 3716.24,-75.5 3705.86,-71.98 3705.86,-71.98"/>
</g>
<!-- 30&#45;&gt;27 -->
<g id="edge45" class="edge">
<title>30&#45;&gt;27</title>
<path fill="none" stroke="black" d="M4301.12,-36C4482.1,-65.02 4828.84,-123.01 4846.2,-144 4856.39,-156.33 4856.31,-167.6 4846.2,-180 4745.54,-303.4 4653.38,-233.59 4495.2,-252 4182.27,-288.41 3247.83,-300.32 2861.38,-303.76"/>
<polygon fill="black" stroke="black" points="2851.23,-303.85 2861.19,-299.26 2856.23,-303.8 2861.23,-303.76 2861.23,-303.76 2861.23,-303.76 2856.23,-303.8 2861.27,-308.26 2851.23,-303.85 2851.23,-303.85"/>
</g>
<!-- 31 -->
<g id="node32" class="node">
<title>31</title>
<polygon fill="none" stroke="black" points="7043.7,-36 6876.7,-36 6876.7,0 7043.7,0 7043.7,-36"/>
<text text-anchor="middle" x="6960.2" y="-14.3" font-family="Times,serif" font-size="14.00">src.declare4py.utility</text>
</g>
<!-- 33 -->
<g id="node34" class="node">
<title>33</title>
<polygon fill="none" stroke="black" points="7364.2,-36 7062.2,-36 7062.2,0 7364.2,0 7364.2,-36"/>
<text text-anchor="middle" x="7213.2" y="-14.3" font-family="Times,serif" font-size="14.00">src.declare4py.utility.template_checkers</text>
</g>
<!-- 35&#45;&gt;11 -->
<g id="edge46" class="edge">
<title>35&#45;&gt;11</title>
<path fill="none" stroke="black" d="M1899.02,-180.19C1889.29,-201.11 1869.77,-235.67 1841.2,-252 1777.49,-288.4 1590.95,-300.1 1455.36,-303.7"/>
<polygon fill="black" stroke="black" points="1445.28,-303.96 1455.16,-299.21 1450.28,-303.83 1455.28,-303.71 1455.28,-303.71 1455.28,-303.71 1450.28,-303.83 1455.39,-308.21 1445.28,-303.96 1445.28,-303.96"/>
</g>
<!-- 35&#45;&gt;27 -->
<g id="edge47" class="edge">
<title>35&#45;&gt;27</title>
<path fill="none" stroke="black" d="M2000.49,-180.06C2148.28,-206.79 2433.41,-258.37 2587.05,-286.16"/>
<polygon fill="black" stroke="black" points="2596.98,-287.96 2586.34,-290.61 2592.06,-287.07 2587.14,-286.18 2587.14,-286.18 2587.14,-286.18 2592.06,-287.07 2587.94,-281.75 2596.98,-287.96 2596.98,-287.96"/>
</g>
<!-- 35&#45;&gt;28 -->
<g id="edge48" class="edge">
<title>35&#45;&gt;28</title>
<path fill="none" stroke="black" d="M1923.03,-180.15C1960.12,-217.95 2049.02,-308.55 2092.05,-352.4"/>
<polygon fill="black" stroke="black" points="2099.29,-359.77 2089.07,-355.78 2095.78,-356.2 2092.28,-352.63 2092.28,-352.63 2092.28,-352.63 2095.78,-356.2 2095.49,-349.48 2099.29,-359.77 2099.29,-359.77"/>
</g>
<!-- 35&#45;&gt;29 -->
<g id="edge49" class="edge">
<title>35&#45;&gt;29</title>
<path fill="none" stroke="black" d="M1904.54,-180C1901.67,-200.09 1893.92,-233.15 1873.2,-252 1782.95,-334.06 1441.87,-399.7 1255.92,-430.29"/>
<polygon fill="black" stroke="black" points="1245.82,-431.95 1254.96,-425.89 1250.75,-431.14 1255.69,-430.33 1255.69,-430.33 1255.69,-430.33 1250.75,-431.14 1256.41,-434.77 1245.82,-431.95 1245.82,-431.95"/>
</g>
<!-- 36 -->
<g id="node37" class="node">
<title>36</title>
<polygon fill="none" stroke="black" points="1831.7,-252 1398.7,-252 1398.7,-216 1831.7,-216 1831.7,-252"/>
<text text-anchor="middle" x="1615.2" y="-230.3" font-family="Times,serif" font-size="14.00">src.declare4py.utility.template_checkers.template_checker</text>
</g>
<!-- 35&#45;&gt;36 -->
<g id="edge50" class="edge">
<title>35&#45;&gt;36</title>
<path fill="none" stroke="black" d="M1835.38,-180.03C1793.23,-190.17 1739.6,-203.07 1695.83,-213.6"/>
<polygon fill="black" stroke="black" points="1686.08,-215.95 1694.75,-209.24 1690.94,-214.78 1695.8,-213.61 1695.8,-213.61 1695.8,-213.61 1690.94,-214.78 1696.85,-217.99 1686.08,-215.95 1686.08,-215.95"/>
</g>
<!-- 36&#45;&gt;27 -->
<g id="edge51" class="edge">
<title>36&#45;&gt;27</title>
<path fill="none" stroke="black" d="M1831.97,-249.1C2035.08,-262.32 2334.56,-281.8 2521,-293.93"/>
<polygon fill="black" stroke="black" points="2531.17,-294.59 2520.9,-298.43 2526.18,-294.26 2521.19,-293.94 2521.19,-293.94 2521.19,-293.94 2526.18,-294.26 2521.48,-289.45 2531.17,-294.59 2531.17,-294.59"/>
</g>
<!-- 36&#45;&gt;34 -->
<g id="edge52" class="edge">
<title>36&#45;&gt;34</title>
<path fill="none" stroke="black" d="M1398.46,-251.54C1252.22,-262.71 1060.01,-277.38 913.97,-288.53"/>
<polygon fill="black" stroke="black" points="903.98,-289.29 913.61,-284.04 908.97,-288.91 913.95,-288.53 913.95,-288.53 913.95,-288.53 908.97,-288.91 914.29,-293.02 903.98,-289.29 903.98,-289.29"/>
</g>
</g>
</svg>
