<?xml version="1.0" encoding="UTF-8" standalone="no"?>
<!DOCTYPE svg PUBLIC "-//W3C//DTD SVG 1.1//EN"
 "http://www.w3.org/Graphics/SVG/1.1/DTD/svg11.dtd">
<!-- Generated by graphviz version 6.0.2 (20221011.1828)
 -->
<!-- Title: packages Pages: 1 -->
<svg width="5225pt" height="404pt"
 viewBox="0.00 0.00 5224.50 404.00" xmlns="http://www.w3.org/2000/svg" xmlns:xlink="http://www.w3.org/1999/xlink">
<g id="graph0" class="graph" transform="scale(1 1) rotate(0) translate(4 400)">
<title>packages</title>
<polygon fill="white" stroke="none" points="-4,4 -4,-400 5220.5,-400 5220.5,4 -4,4"/>
<!-- src.declare4py -->
<g id="node1" class="node">
<title>src.declare4py</title>
<polygon fill="none" stroke="black" points="98,-36 0,-36 0,0 98,0 98,-36"/>
<text text-anchor="middle" x="49" y="-14.3" font-family="Times New Roman,serif" font-size="14.00">src.declare4py</text>
</g>
<!-- src.declare4py.log_generation -->
<g id="node2" class="node">
<title>src.declare4py.log_generation</title>
<polygon fill="none" stroke="black" points="300,-36 116,-36 116,0 300,0 300,-36"/>
<text text-anchor="middle" x="208" y="-14.3" font-family="Times New Roman,serif" font-size="14.00">src.declare4py.log_generation</text>
</g>
<!-- src.declare4py.log_generation.asp -->
<g id="node3" class="node">
<title>src.declare4py.log_generation.asp</title>
<polygon fill="none" stroke="black" points="525.5,-36 318.5,-36 318.5,0 525.5,0 525.5,-36"/>
<text text-anchor="middle" x="422" y="-14.3" font-family="Times New Roman,serif" font-size="14.00">src.declare4py.log_generation.asp</text>
</g>
<!-- src.declare4py.log_generation.asp.asp_generator -->
<g id="node4" class="node">
<title>src.declare4py.log_generation.asp.asp_generator</title>
<polygon fill="none" stroke="black" points="3459,-108 3169,-108 3169,-72 3459,-72 3459,-108"/>
<text text-anchor="middle" x="3314" y="-86.3" font-family="Times New Roman,serif" font-size="14.00">src.declare4py.log_generation.asp.asp_generator</text>
</g>
<!-- src.declare4py.log_generation.asp.asp_translator.asp_translator -->
<g id="node6" class="node">
<title>src.declare4py.log_generation.asp.asp_translator.asp_translator</title>
<polygon fill="none" stroke="black" points="3004,-180 2632,-180 2632,-144 3004,-144 3004,-180"/>
<text text-anchor="middle" x="2818" y="-158.3" font-family="Times New Roman,serif" font-size="14.00">src.declare4py.log_generation.asp.asp_translator.asp_translator</text>
</g>
<!-- src.declare4py.log_generation.asp.asp_generator&#45;&gt;src.declare4py.log_generation.asp.asp_translator.asp_translator -->
<g id="edge1" class="edge">
<title>src.declare4py.log_generation.asp.asp_generator&#45;&gt;src.declare4py.log_generation.asp.asp_translator.asp_translator</title>
<path fill="none" stroke="black" d="M3193.3,-108.03C3119.34,-118.47 3024.66,-131.83 2948.9,-142.53"/>
<polygon fill="black" stroke="black" points="2938.81,-143.95 2948.08,-138.1 2943.76,-143.25 2948.71,-142.55 2948.71,-142.55 2948.71,-142.55 2943.76,-143.25 2949.34,-147.01 2938.81,-143.95 2938.81,-143.95"/>
</g>
<!-- src.declare4py.log_generation.asp.asp_utils.asp_encoding -->
<g id="node9" class="node">
<title>src.declare4py.log_generation.asp.asp_utils.asp_encoding</title>
<polygon fill="none" stroke="black" points="3684,-180 3342,-180 3342,-144 3684,-144 3684,-180"/>
<text text-anchor="middle" x="3513" y="-158.3" font-family="Times New Roman,serif" font-size="14.00">src.declare4py.log_generation.asp.asp_utils.asp_encoding</text>
</g>
<!-- src.declare4py.log_generation.asp.asp_generator&#45;&gt;src.declare4py.log_generation.asp.asp_utils.asp_encoding -->
<g id="edge2" class="edge">
<title>src.declare4py.log_generation.asp.asp_generator&#45;&gt;src.declare4py.log_generation.asp.asp_utils.asp_encoding</title>
<path fill="none" stroke="black" d="M3362.43,-108.03C3390.23,-117.81 3425.34,-130.16 3454.65,-140.48"/>
<polygon fill="black" stroke="black" points="3464.36,-143.89 3453.43,-144.82 3459.64,-142.23 3454.92,-140.57 3454.92,-140.57 3454.92,-140.57 3459.64,-142.23 3456.42,-136.33 3464.36,-143.89 3464.36,-143.89"/>
</g>
<!-- src.declare4py.log_generation.asp.asp_utils.asp_template -->
<g id="node10" class="node">
<title>src.declare4py.log_generation.asp.asp_utils.asp_template</title>
<polygon fill="none" stroke="black" points="4040,-180 3702,-180 3702,-144 4040,-144 4040,-180"/>
<text text-anchor="middle" x="3871" y="-158.3" font-family="Times New Roman,serif" font-size="14.00">src.declare4py.log_generation.asp.asp_utils.asp_template</text>
</g>
<!-- src.declare4py.log_generation.asp.asp_generator&#45;&gt;src.declare4py.log_generation.asp.asp_utils.asp_template -->
<g id="edge3" class="edge">
<title>src.declare4py.log_generation.asp.asp_generator&#45;&gt;src.declare4py.log_generation.asp.asp_utils.asp_template</title>
<path fill="none" stroke="black" d="M3449.55,-108.03C3533.02,-118.53 3640.01,-131.97 3725.3,-142.69"/>
<polygon fill="black" stroke="black" points="3735.33,-143.95 3724.85,-147.17 3730.37,-143.33 3725.41,-142.7 3725.41,-142.7 3725.41,-142.7 3730.37,-143.33 3725.97,-138.24 3735.33,-143.95 3735.33,-143.95"/>
</g>
<!-- src.declare4py.log_generation.asp.asp_utils.distribution -->
<g id="node11" class="node">
<title>src.declare4py.log_generation.asp.asp_utils.distribution</title>
<polygon fill="none" stroke="black" points="4385.5,-180 4058.5,-180 4058.5,-144 4385.5,-144 4385.5,-180"/>
<text text-anchor="middle" x="4222" y="-158.3" font-family="Times New Roman,serif" font-size="14.00">src.declare4py.log_generation.asp.asp_utils.distribution</text>
</g>
<!-- src.declare4py.log_generation.asp.asp_generator&#45;&gt;src.declare4py.log_generation.asp.asp_utils.distribution -->
<g id="edge4" class="edge">
<title>src.declare4py.log_generation.asp.asp_generator&#45;&gt;src.declare4py.log_generation.asp.asp_utils.distribution</title>
<path fill="none" stroke="black" d="M3459.12,-100.35C3605.13,-110.01 3837.02,-126.06 4048.07,-143.93"/>
<polygon fill="black" stroke="black" points="4058.1,-144.79 4047.76,-148.42 4053.12,-144.36 4048.14,-143.94 4048.14,-143.94 4048.14,-143.94 4053.12,-144.36 4048.52,-139.45 4058.1,-144.79 4058.1,-144.79"/>
</g>
<!-- src.declare4py.log_generation.log_generator -->
<g id="node12" class="node">
<title>src.declare4py.log_generation.log_generator</title>
<polygon fill="none" stroke="black" points="3286,-180 3022,-180 3022,-144 3286,-144 3286,-180"/>
<text text-anchor="middle" x="3154" y="-158.3" font-family="Times New Roman,serif" font-size="14.00">src.declare4py.log_generation.log_generator</text>
</g>
<!-- src.declare4py.log_generation.asp.asp_generator&#45;&gt;src.declare4py.log_generation.log_generator -->
<g id="edge5" class="edge">
<title>src.declare4py.log_generation.asp.asp_generator&#45;&gt;src.declare4py.log_generation.log_generator</title>
<path fill="none" stroke="black" d="M3274.86,-108.12C3252.99,-117.69 3225.54,-129.7 3202.34,-139.85"/>
<polygon fill="black" stroke="black" points="3193.01,-143.93 3200.37,-135.8 3197.59,-141.93 3202.17,-139.92 3202.17,-139.92 3202.17,-139.92 3197.59,-141.93 3203.98,-144.05 3193.01,-143.93 3193.01,-143.93"/>
</g>
<!-- src.declare4py.models.decl_model -->
<g id="node14" class="node">
<title>src.declare4py.models.decl_model</title>
<polygon fill="none" stroke="black" points="2730,-324 2518,-324 2518,-288 2730,-288 2730,-324"/>
<text text-anchor="middle" x="2624" y="-302.3" font-family="Times New Roman,serif" font-size="14.00">src.declare4py.models.decl_model</text>
</g>
<!-- src.declare4py.log_generation.asp.asp_generator&#45;&gt;src.declare4py.models.decl_model -->
<g id="edge6" class="edge">
<title>src.declare4py.log_generation.asp.asp_generator&#45;&gt;src.declare4py.models.decl_model</title>
<path fill="none" stroke="black" d="M3314.93,-108.18C3315.06,-127.81 3312.27,-159.85 3295,-180 3236.5,-248.25 3193.38,-230.92 3106,-252 2983.17,-281.64 2838.68,-294.74 2740.15,-300.51"/>
<polygon fill="black" stroke="black" points="2730.17,-301.08 2739.9,-296.02 2735.16,-300.79 2740.15,-300.51 2740.15,-300.51 2740.15,-300.51 2735.16,-300.79 2740.41,-305 2730.17,-301.08 2730.17,-301.08"/>
</g>
<!-- src.declare4py.log_generation.asp.asp_translator -->
<g id="node5" class="node">
<title>src.declare4py.log_generation.asp.asp_translator</title>
<polygon fill="none" stroke="black" points="3369,-36 3079,-36 3079,0 3369,0 3369,-36"/>
<text text-anchor="middle" x="3224" y="-14.3" font-family="Times New Roman,serif" font-size="14.00">src.declare4py.log_generation.asp.asp_translator</text>
</g>
<!-- src.declare4py.log_generation.asp.asp_translator.declare_constraint_resolver -->
<g id="node7" class="node">
<title>src.declare4py.log_generation.asp.asp_translator.declare_constraint_resolver</title>
<polygon fill="none" stroke="black" points="3079.5,-252 2632.5,-252 2632.5,-216 3079.5,-216 3079.5,-252"/>
<text text-anchor="middle" x="2856" y="-230.3" font-family="Times New Roman,serif" font-size="14.00">src.declare4py.log_generation.asp.asp_translator.declare_constraint_resolver</text>
</g>
<!-- src.declare4py.log_generation.asp.asp_translator.asp_translator&#45;&gt;src.declare4py.log_generation.asp.asp_translator.declare_constraint_resolver -->
<g id="edge7" class="edge">
<title>src.declare4py.log_generation.asp.asp_translator.asp_translator&#45;&gt;src.declare4py.log_generation.asp.asp_translator.declare_constraint_resolver</title>
<path fill="none" stroke="black" d="M2827.39,-180.3C2831.76,-188.36 2837.06,-198.11 2841.9,-207.02"/>
<polygon fill="black" stroke="black" points="2846.71,-215.9 2837.99,-209.25 2844.33,-211.5 2841.94,-207.11 2841.94,-207.11 2841.94,-207.11 2844.33,-211.5 2845.9,-204.96 2846.71,-215.9 2846.71,-215.9"/>
</g>
<!-- src.declare4py.log_generation.asp.asp_translator.asp_translator&#45;&gt;src.declare4py.models.decl_model -->
<g id="edge8" class="edge">
<title>src.declare4py.log_generation.asp.asp_translator.asp_translator&#45;&gt;src.declare4py.models.decl_model</title>
<path fill="none" stroke="black" d="M2995.13,-180.01C3037.93,-187.92 3075.33,-199.39 3089,-216 3099.17,-228.35 3099.65,-240.06 3089,-252 3066.11,-277.64 2870.31,-292.54 2740.19,-299.7"/>
<polygon fill="black" stroke="black" points="2730.16,-300.24 2739.9,-295.21 2735.15,-299.97 2740.15,-299.7 2740.15,-299.7 2740.15,-299.7 2735.15,-299.97 2740.39,-304.19 2730.16,-300.24 2730.16,-300.24"/>
</g>
<!-- src.declare4py.log_generation.asp.asp_translator.declare_constraint_resolver&#45;&gt;src.declare4py.models.decl_model -->
<g id="edge9" class="edge">
<title>src.declare4py.log_generation.asp.asp_translator.declare_constraint_resolver&#45;&gt;src.declare4py.models.decl_model</title>
<path fill="none" stroke="black" d="M2799.54,-252.03C2766.7,-261.94 2725.13,-274.49 2690.69,-284.88"/>
<polygon fill="black" stroke="black" points="2680.71,-287.89 2688.98,-280.69 2685.5,-286.44 2690.28,-285 2690.28,-285 2690.28,-285 2685.5,-286.44 2691.58,-289.31 2680.71,-287.89 2680.71,-287.89"/>
</g>
<!-- src.declare4py.log_generation.asp.asp_utils -->
<g id="node8" class="node">
<title>src.declare4py.log_generation.asp.asp_utils</title>
<polygon fill="none" stroke="black" points="3647,-36 3387,-36 3387,0 3647,0 3647,-36"/>
<text text-anchor="middle" x="3517" y="-14.3" font-family="Times New Roman,serif" font-size="14.00">src.declare4py.log_generation.asp.asp_utils</text>
</g>
<!-- src.declare4py.models.ltl_model -->
<g id="node15" class="node">
<title>src.declare4py.models.ltl_model</title>
<polygon fill="none" stroke="black" points="2475,-396 2277,-396 2277,-360 2475,-360 2475,-396"/>
<text text-anchor="middle" x="2376" y="-374.3" font-family="Times New Roman,serif" font-size="14.00">src.declare4py.models.ltl_model</text>
</g>
<!-- src.declare4py.log_generation.log_generator&#45;&gt;src.declare4py.models.ltl_model -->
<g id="edge10" class="edge">
<title>src.declare4py.log_generation.log_generator&#45;&gt;src.declare4py.models.ltl_model</title>
<path fill="none" stroke="black" d="M3149.63,-180.03C3143.47,-200.47 3130.17,-234.19 3106,-252 3009.21,-323.31 2664.33,-357.14 2485.43,-370.19"/>
<polygon fill="black" stroke="black" points="2475.2,-370.93 2484.85,-365.72 2480.19,-370.57 2485.18,-370.21 2485.18,-370.21 2485.18,-370.21 2480.19,-370.57 2485.5,-374.7 2475.2,-370.93 2475.2,-370.93"/>
</g>
<!-- src.declare4py.models.pm_task -->
<g id="node16" class="node">
<title>src.declare4py.models.pm_task</title>
<polygon fill="none" stroke="black" points="1946,-252 1752,-252 1752,-216 1946,-216 1946,-252"/>
<text text-anchor="middle" x="1849" y="-230.3" font-family="Times New Roman,serif" font-size="14.00">src.declare4py.models.pm_task</text>
</g>
<!-- src.declare4py.log_generation.log_generator&#45;&gt;src.declare4py.models.pm_task -->
<g id="edge11" class="edge">
<title>src.declare4py.log_generation.log_generator&#45;&gt;src.declare4py.models.pm_task</title>
<path fill="none" stroke="black" d="M3021.94,-179.27C3018.93,-179.53 3015.95,-179.77 3013,-180 2547.22,-215.94 2425.03,-171.3 1956.35,-215.95"/>
<polygon fill="black" stroke="black" points="1946.27,-216.92 1955.79,-211.48 1951.25,-216.44 1956.22,-215.96 1956.22,-215.96 1956.22,-215.96 1951.25,-216.44 1956.65,-220.44 1946.27,-216.92 1946.27,-216.92"/>
</g>
<!-- src.declare4py.models -->
<g id="node13" class="node">
<title>src.declare4py.models</title>
<polygon fill="none" stroke="black" points="3808.5,-36 3665.5,-36 3665.5,0 3808.5,0 3808.5,-36"/>
<text text-anchor="middle" x="3737" y="-14.3" font-family="Times New Roman,serif" font-size="14.00">src.declare4py.models</text>
</g>
<!-- src.declare4py.models.decl_model&#45;&gt;src.declare4py.models.ltl_model -->
<g id="edge12" class="edge">
<title>src.declare4py.models.decl_model&#45;&gt;src.declare4py.models.ltl_model</title>
<path fill="none" stroke="black" d="M2563.65,-324.03C2528.25,-334.03 2483.34,-346.7 2446.34,-357.15"/>
<polygon fill="black" stroke="black" points="2436.62,-359.89 2445.02,-352.84 2441.43,-358.53 2446.25,-357.17 2446.25,-357.17 2446.25,-357.17 2441.43,-358.53 2447.47,-361.5 2436.62,-359.89 2436.62,-359.89"/>
</g>
<!-- src.declare4py.models.pm_task&#45;&gt;src.declare4py.models.ltl_model -->
<g id="edge13" class="edge">
<title>src.declare4py.models.pm_task&#45;&gt;src.declare4py.models.ltl_model</title>
<path fill="none" stroke="black" d="M1912.44,-252.06C1951.05,-262.44 2001.37,-275.98 2046,-288 2134.29,-311.78 2235.85,-339.18 2302.72,-357.22"/>
<polygon fill="black" stroke="black" points="2312.74,-359.93 2301.91,-361.67 2307.91,-358.62 2303.09,-357.32 2303.09,-357.32 2303.09,-357.32 2307.91,-358.62 2304.26,-352.98 2312.74,-359.93 2312.74,-359.93"/>
</g>
<!-- src.declare4py.models.process_models -->
<g id="node17" class="node">
<title>src.declare4py.models.process_models</title>
<polygon fill="none" stroke="black" points="2037.5,-324 1798.5,-324 1798.5,-288 2037.5,-288 2037.5,-324"/>
<text text-anchor="middle" x="1918" y="-302.3" font-family="Times New Roman,serif" font-size="14.00">src.declare4py.models.process_models</text>
</g>
<!-- src.declare4py.models.pm_task&#45;&gt;src.declare4py.models.process_models -->
<g id="edge14" class="edge">
<title>src.declare4py.models.pm_task&#45;&gt;src.declare4py.models.process_models</title>
<path fill="none" stroke="black" d="M1866.06,-252.3C1874.5,-260.86 1884.82,-271.34 1894.04,-280.7"/>
<polygon fill="black" stroke="black" points="1901.14,-287.9 1890.92,-283.93 1897.63,-284.33 1894.12,-280.77 1894.12,-280.77 1894.12,-280.77 1897.63,-284.33 1897.32,-277.61 1901.14,-287.9 1901.14,-287.9"/>
</g>
<!-- src.declare4py.process_mining.log_analyzer -->
<g id="node27" class="node">
<title>src.declare4py.process_mining.log_analyzer</title>
<polygon fill="none" stroke="black" points="1181,-324 917,-324 917,-288 1181,-288 1181,-324"/>
<text text-anchor="middle" x="1049" y="-302.3" font-family="Times New Roman,serif" font-size="14.00">src.declare4py.process_mining.log_analyzer</text>
</g>
<!-- src.declare4py.models.pm_task&#45;&gt;src.declare4py.process_mining.log_analyzer -->
<g id="edge15" class="edge">
<title>src.declare4py.models.pm_task&#45;&gt;src.declare4py.process_mining.log_analyzer</title>
<path fill="none" stroke="black" d="M1751.9,-250.3C1747.2,-250.91 1742.55,-251.48 1738,-252 1549.48,-273.66 1330.9,-288.78 1191.37,-297.18"/>
<polygon fill="black" stroke="black" points="1181.05,-297.8 1190.76,-292.71 1186.04,-297.5 1191.03,-297.2 1191.03,-297.2 1191.03,-297.2 1186.04,-297.5 1191.3,-301.7 1181.05,-297.8 1181.05,-297.8"/>
</g>
<!-- src.declare4py.process_mining -->
<g id="node18" class="node">
<title>src.declare4py.process_mining</title>
<polygon fill="none" stroke="black" points="4017.5,-36 3826.5,-36 3826.5,0 4017.5,0 4017.5,-36"/>
<text text-anchor="middle" x="3922" y="-14.3" font-family="Times New Roman,serif" font-size="14.00">src.declare4py.process_mining</text>
</g>
<!-- src.declare4py.process_mining.checkers -->
<g id="node19" class="node">
<title>src.declare4py.process_mining.checkers</title>
<polygon fill="none" stroke="black" points="4280,-36 4036,-36 4036,0 4280,0 4280,-36"/>
<text text-anchor="middle" x="4158" y="-14.3" font-family="Times New Roman,serif" font-size="14.00">src.declare4py.process_mining.checkers</text>
</g>
<!-- src.declare4py.process_mining.checkers.checker_result -->
<g id="node20" class="node">
<title>src.declare4py.process_mining.checkers.checker_result</title>
<polygon fill="none" stroke="black" points="1780.5,-324 1451.5,-324 1451.5,-288 1780.5,-288 1780.5,-324"/>
<text text-anchor="middle" x="1616" y="-302.3" font-family="Times New Roman,serif" font-size="14.00">src.declare4py.process_mining.checkers.checker_result</text>
</g>
<!-- src.declare4py.process_mining.checkers.constraint_checker -->
<g id="node21" class="node">
<title>src.declare4py.process_mining.checkers.constraint_checker</title>
<polygon fill="none" stroke="black" points="2313.5,-180 1960.5,-180 1960.5,-144 2313.5,-144 2313.5,-180"/>
<text text-anchor="middle" x="2137" y="-158.3" font-family="Times New Roman,serif" font-size="14.00">src.declare4py.process_mining.checkers.constraint_checker</text>
</g>
<!-- src.declare4py.process_mining.checkers.constraint_checker&#45;&gt;src.declare4py.models.decl_model -->
<g id="edge16" class="edge">
<title>src.declare4py.process_mining.checkers.constraint_checker&#45;&gt;src.declare4py.models.decl_model</title>
<path fill="none" stroke="black" d="M2211.99,-180.04C2253.46,-189.82 2305.8,-202.77 2352,-216 2426.57,-237.36 2511.35,-265.77 2566.16,-284.68"/>
<polygon fill="black" stroke="black" points="2575.69,-287.99 2564.77,-288.97 2570.97,-286.35 2566.24,-284.71 2566.24,-284.71 2566.24,-284.71 2570.97,-286.35 2567.72,-280.46 2575.69,-287.99 2575.69,-287.99"/>
</g>
<!-- src.declare4py.process_mining.checkers.constraint_checker&#45;&gt;src.declare4py.models.ltl_model -->
<g id="edge17" class="edge">
<title>src.declare4py.process_mining.checkers.constraint_checker&#45;&gt;src.declare4py.models.ltl_model</title>
<path fill="none" stroke="black" d="M2254.61,-180.1C2277.78,-187.96 2300.35,-199.4 2318,-216 2328.12,-225.52 2354.4,-307.04 2367.84,-350.3"/>
<polygon fill="black" stroke="black" points="2370.81,-359.9 2363.55,-351.68 2369.33,-355.13 2367.85,-350.35 2367.85,-350.35 2367.85,-350.35 2369.33,-355.13 2372.15,-349.02 2370.81,-359.9 2370.81,-359.9"/>
</g>
<!-- src.declare4py.process_mining.checkers.constraint_checker&#45;&gt;src.declare4py.models.pm_task -->
<g id="edge18" class="edge">
<title>src.declare4py.process_mining.checkers.constraint_checker&#45;&gt;src.declare4py.models.pm_task</title>
<path fill="none" stroke="black" d="M2066.92,-180.03C2025.36,-190.13 1972.55,-202.97 1929.32,-213.48"/>
<polygon fill="black" stroke="black" points="1919.4,-215.89 1928.05,-209.15 1924.26,-214.71 1929.12,-213.53 1929.12,-213.53 1929.12,-213.53 1924.26,-214.71 1930.18,-217.9 1919.4,-215.89 1919.4,-215.89"/>
</g>
<!-- src.declare4py.process_mining.checkers.template_checker -->
<g id="node22" class="node">
<title>src.declare4py.process_mining.checkers.template_checker</title>
<polygon fill="none" stroke="black" points="2309.5,-252 1964.5,-252 1964.5,-216 2309.5,-216 2309.5,-252"/>
<text text-anchor="middle" x="2137" y="-230.3" font-family="Times New Roman,serif" font-size="14.00">src.declare4py.process_mining.checkers.template_checker</text>
</g>
<!-- src.declare4py.process_mining.checkers.constraint_checker&#45;&gt;src.declare4py.process_mining.checkers.template_checker -->
<g id="edge19" class="edge">
<title>src.declare4py.process_mining.checkers.constraint_checker&#45;&gt;src.declare4py.process_mining.checkers.template_checker</title>
<path fill="none" stroke="black" d="M2137,-180.3C2137,-188.02 2137,-197.29 2137,-205.89"/>
<polygon fill="black" stroke="black" points="2137,-215.9 2132.5,-205.9 2137,-210.9 2137,-205.9 2137,-205.9 2137,-205.9 2137,-210.9 2141.5,-205.9 2137,-215.9 2137,-215.9"/>
</g>
<!-- src.declare4py.process_mining.checkers.constraint_checker&#45;&gt;src.declare4py.process_mining.log_analyzer -->
<g id="edge20" class="edge">
<title>src.declare4py.process_mining.checkers.constraint_checker&#45;&gt;src.declare4py.process_mining.log_analyzer</title>
<path fill="none" stroke="black" d="M1973.07,-180.02C1884.85,-190.18 1785.59,-203.5 1743,-216 1706.75,-226.64 1702.49,-242.23 1666,-252 1579.62,-275.12 1344.98,-290.57 1191.23,-298.56"/>
<polygon fill="black" stroke="black" points="1181.22,-299.07 1190.98,-294.07 1186.22,-298.82 1191.21,-298.56 1191.21,-298.56 1191.21,-298.56 1186.22,-298.82 1191.44,-303.05 1181.22,-299.07 1181.22,-299.07"/>
</g>
<!-- src.declare4py.process_mining.checkers.template_checker&#45;&gt;src.declare4py.models.decl_model -->
<g id="edge21" class="edge">
<title>src.declare4py.process_mining.checkers.template_checker&#45;&gt;src.declare4py.models.decl_model</title>
<path fill="none" stroke="black" d="M2255.51,-252.03C2332.17,-263.05 2431.5,-277.33 2507.72,-288.29"/>
<polygon fill="black" stroke="black" points="2517.84,-289.74 2507.3,-292.77 2512.89,-289.03 2507.94,-288.32 2507.94,-288.32 2507.94,-288.32 2512.89,-289.03 2508.58,-283.86 2517.84,-289.74 2517.84,-289.74"/>
</g>
<!-- src.declare4py.process_mining.checkers.template_checker&#45;&gt;src.declare4py.process_mining.checkers.checker_result -->
<g id="edge22" class="edge">
<title>src.declare4py.process_mining.checkers.template_checker&#45;&gt;src.declare4py.process_mining.checkers.checker_result</title>
<path fill="none" stroke="black" d="M2010.22,-252.03C1932.37,-262.49 1832.67,-275.89 1753.01,-286.59"/>
<polygon fill="black" stroke="black" points="1742.9,-287.95 1752.21,-282.16 1747.86,-287.28 1752.81,-286.62 1752.81,-286.62 1752.81,-286.62 1747.86,-287.28 1753.41,-291.08 1742.9,-287.95 1742.9,-287.95"/>
</g>
<!-- src.declare4py.process_mining.conformance_check -->
<g id="node23" class="node">
<title>src.declare4py.process_mining.conformance_check</title>
<polygon fill="none" stroke="black" points="4606,-36 4298,-36 4298,0 4606,0 4606,-36"/>
<text text-anchor="middle" x="4452" y="-14.3" font-family="Times New Roman,serif" font-size="14.00">src.declare4py.process_mining.conformance_check</text>
</g>
<!-- src.declare4py.process_mining.conformance_check.basic_conformance_checking_results -->
<g id="node24" class="node">
<title>src.declare4py.process_mining.conformance_check.basic_conformance_checking_results</title>
<polygon fill="none" stroke="black" points="1657.5,-252 1134.5,-252 1134.5,-216 1657.5,-216 1657.5,-252"/>
<text text-anchor="middle" x="1396" y="-230.3" font-family="Times New Roman,serif" font-size="14.00">src.declare4py.process_mining.conformance_check.basic_conformance_checking_results</text>
</g>
<!-- src.declare4py.process_mining.conformance_check.basic_conformance_checking_results&#45;&gt;src.declare4py.process_mining.checkers.checker_result -->
<g id="edge23" class="edge">
<title>src.declare4py.process_mining.conformance_check.basic_conformance_checking_results&#45;&gt;src.declare4py.process_mining.checkers.checker_result</title>
<path fill="none" stroke="black" d="M1449.54,-252.03C1480.54,-261.9 1519.76,-274.38 1552.34,-284.75"/>
<polygon fill="black" stroke="black" points="1562.22,-287.89 1551.33,-289.15 1557.46,-286.37 1552.69,-284.86 1552.69,-284.86 1552.69,-284.86 1557.46,-286.37 1554.06,-280.57 1562.22,-287.89 1562.22,-287.89"/>
</g>
<!-- src.declare4py.process_mining.conformance_check.basic_mp_declare_conformance_checking -->
<g id="node25" class="node">
<title>src.declare4py.process_mining.conformance_check.basic_mp_declare_conformance_checking</title>
<polygon fill="none" stroke="black" points="1096,-36 544,-36 544,0 1096,0 1096,-36"/>
<text text-anchor="middle" x="820" y="-14.3" font-family="Times New Roman,serif" font-size="14.00">src.declare4py.process_mining.conformance_check.basic_mp_declare_conformance_checking</text>
</g>
<!-- src.declare4py.process_mining.conformance_check.basic_mp_declare_conformance_checking&#45;&gt;src.declare4py.models.ltl_model -->
<g id="edge24" class="edge">
<title>src.declare4py.process_mining.conformance_check.basic_mp_declare_conformance_checking&#45;&gt;src.declare4py.models.ltl_model</title>
<path fill="none" stroke="black" d="M772.86,-36.06C753.84,-44.66 732.72,-56.58 717,-72 684.91,-103.47 669,-116.06 669,-161 669,-161 669,-161 669,-235 669,-338.42 782.94,-302.04 884,-324 1017.66,-353.05 1945.27,-370.23 2266.67,-375.36"/>
<polygon fill="black" stroke="black" points="2276.92,-375.52 2266.85,-379.86 2271.92,-375.44 2266.92,-375.36 2266.92,-375.36 2266.92,-375.36 2271.92,-375.44 2266.99,-370.86 2276.92,-375.52 2276.92,-375.52"/>
</g>
<!-- src.declare4py.process_mining.conformance_check.basic_mp_declare_conformance_checking&#45;&gt;src.declare4py.process_mining.conformance_check.basic_conformance_checking_results -->
<g id="edge25" class="edge">
<title>src.declare4py.process_mining.conformance_check.basic_mp_declare_conformance_checking&#45;&gt;src.declare4py.process_mining.conformance_check.basic_conformance_checking_results</title>
<path fill="none" stroke="black" d="M999.2,-36.07C1045.69,-43.91 1095.03,-55.34 1139,-72 1229.15,-106.15 1321.82,-173.82 1367.28,-209.58"/>
<polygon fill="black" stroke="black" points="1375.21,-215.87 1364.58,-213.18 1371.29,-212.76 1367.38,-209.65 1367.38,-209.65 1367.38,-209.65 1371.29,-212.76 1370.17,-206.13 1375.21,-215.87 1375.21,-215.87"/>
</g>
<!-- src.declare4py.process_mining.conformance_check.conf_checking -->
<g id="node26" class="node">
<title>src.declare4py.process_mining.conformance_check.conf_checking</title>
<polygon fill="none" stroke="black" points="1130.5,-108 735.5,-108 735.5,-72 1130.5,-72 1130.5,-108"/>
<text text-anchor="middle" x="933" y="-86.3" font-family="Times New Roman,serif" font-size="14.00">src.declare4py.process_mining.conformance_check.conf_checking</text>
</g>
<!-- src.declare4py.process_mining.conformance_check.basic_mp_declare_conformance_checking&#45;&gt;src.declare4py.process_mining.conformance_check.conf_checking -->
<g id="edge26" class="edge">
<title>src.declare4py.process_mining.conformance_check.basic_mp_declare_conformance_checking&#45;&gt;src.declare4py.process_mining.conformance_check.conf_checking</title>
<path fill="none" stroke="black" d="M847.64,-36.12C862.42,-45.28 880.79,-56.66 896.7,-66.52"/>
<polygon fill="black" stroke="black" points="905.25,-71.81 894.38,-70.37 901,-69.18 896.75,-66.54 896.75,-66.54 896.75,-66.54 901,-69.18 899.12,-62.72 905.25,-71.81 905.25,-71.81"/>
</g>
<!-- src.declare4py.process_mining.conformance_check.basic_mp_declare_conformance_checking&#45;&gt;src.declare4py.process_mining.log_analyzer -->
<g id="edge27" class="edge">
<title>src.declare4py.process_mining.conformance_check.basic_mp_declare_conformance_checking&#45;&gt;src.declare4py.process_mining.log_analyzer</title>
<path fill="none" stroke="black" d="M768.35,-36.04C751.86,-44.2 735.45,-55.82 726,-72 717.93,-85.82 718.25,-94 726,-108 779.02,-203.74 899.85,-258.31 977.77,-284.74"/>
<polygon fill="black" stroke="black" points="987.52,-287.98 976.61,-289.1 982.77,-286.4 978.03,-284.83 978.03,-284.83 978.03,-284.83 982.77,-286.4 979.45,-280.56 987.52,-287.98 987.52,-287.98"/>
</g>
<!-- src.declare4py.process_mining.conformance_check.conf_checking&#45;&gt;src.declare4py.models.ltl_model -->
<g id="edge28" class="edge">
<title>src.declare4py.process_mining.conformance_check.conf_checking&#45;&gt;src.declare4py.models.ltl_model</title>
<path fill="none" stroke="black" d="M923.36,-108.22C900.71,-151.22 850.24,-264.12 908,-324 955,-372.73 1934.21,-377.08 2266.67,-377.15"/>
<polygon fill="black" stroke="black" points="2276.8,-377.15 2266.8,-381.65 2271.8,-377.15 2266.8,-377.15 2266.8,-377.15 2266.8,-377.15 2271.8,-377.15 2266.8,-372.65 2276.8,-377.15 2276.8,-377.15"/>
</g>
<!-- src.declare4py.process_mining.conformance_check.conf_checking&#45;&gt;src.declare4py.process_mining.checkers.constraint_checker -->
<g id="edge29" class="edge">
<title>src.declare4py.process_mining.conformance_check.conf_checking&#45;&gt;src.declare4py.process_mining.checkers.constraint_checker</title>
<path fill="none" stroke="black" d="M1130.68,-99C1333.49,-107.74 1658.41,-123.21 1949.94,-143.94"/>
<polygon fill="black" stroke="black" points="1960.3,-144.68 1950,-148.46 1955.31,-144.32 1950.32,-143.97 1950.32,-143.97 1950.32,-143.97 1955.31,-144.32 1950.64,-139.48 1960.3,-144.68 1960.3,-144.68"/>
</g>
<!-- src.declare4py.process_mining.conformance_check.conf_checking&#45;&gt;src.declare4py.process_mining.log_analyzer -->
<g id="edge30" class="edge">
<title>src.declare4py.process_mining.conformance_check.conf_checking&#45;&gt;src.declare4py.process_mining.log_analyzer</title>
<path fill="none" stroke="black" d="M934.17,-108.03C937.03,-139.16 946.65,-206.28 978,-252 986.12,-263.84 997.76,-274.09 1009.27,-282.34"/>
<polygon fill="black" stroke="black" points="1017.58,-287.99 1006.78,-286.09 1013.44,-285.18 1009.3,-282.37 1009.3,-282.37 1009.3,-282.37 1013.44,-285.18 1011.83,-278.65 1017.58,-287.99 1017.58,-287.99"/>
</g>
<!-- src.declare4py.process_mining.model_discovery -->
<g id="node28" class="node">
<title>src.declare4py.process_mining.model_discovery</title>
<polygon fill="none" stroke="black" points="4915.5,-36 4624.5,-36 4624.5,0 4915.5,0 4915.5,-36"/>
<text text-anchor="middle" x="4770" y="-14.3" font-family="Times New Roman,serif" font-size="14.00">src.declare4py.process_mining.model_discovery</text>
</g>
<!-- src.declare4py.process_mining.model_discovery.basic_mp_declare_discovery -->
<g id="node29" class="node">
<title>src.declare4py.process_mining.model_discovery.basic_mp_declare_discovery</title>
<polygon fill="none" stroke="black" points="2395.5,-36 1936.5,-36 1936.5,0 2395.5,0 2395.5,-36"/>
<text text-anchor="middle" x="2166" y="-14.3" font-family="Times New Roman,serif" font-size="14.00">src.declare4py.process_mining.model_discovery.basic_mp_declare_discovery</text>
</g>
<!-- src.declare4py.process_mining.model_discovery.basic_mp_declare_discovery&#45;&gt;src.declare4py.models.decl_model -->
<g id="edge31" class="edge">
<title>src.declare4py.process_mining.model_discovery.basic_mp_declare_discovery&#45;&gt;src.declare4py.models.decl_model</title>
<path fill="none" stroke="black" d="M2395.6,-31.55C2459.41,-39.29 2517.86,-51.79 2542,-72 2606.55,-126.04 2571.1,-173.3 2601,-252 2604.33,-260.76 2608.29,-270.19 2611.98,-278.63"/>
<polygon fill="black" stroke="black" points="2616.14,-287.98 2607.96,-280.67 2614.11,-283.41 2612.08,-278.84 2612.08,-278.84 2612.08,-278.84 2614.11,-283.41 2616.19,-277.01 2616.14,-287.98 2616.14,-287.98"/>
</g>
<!-- src.declare4py.process_mining.model_discovery.basic_mp_declare_discovery&#45;&gt;src.declare4py.models.ltl_model -->
<g id="edge32" class="edge">
<title>src.declare4py.process_mining.model_discovery.basic_mp_declare_discovery&#45;&gt;src.declare4py.models.ltl_model</title>
<path fill="none" stroke="black" d="M2262.98,-36.05C2292.41,-44.02 2323.84,-55.52 2350,-72 2386.22,-94.83 2394.76,-105.75 2414,-144 2449.95,-215.48 2449.02,-250.68 2417,-324 2412.67,-333.91 2406.07,-343.62 2399.43,-351.96"/>
<polygon fill="black" stroke="black" points="2392.86,-359.8 2395.83,-349.25 2396.07,-355.97 2399.28,-352.14 2399.28,-352.14 2399.28,-352.14 2396.07,-355.97 2402.73,-355.03 2392.86,-359.8 2392.86,-359.8"/>
</g>
<!-- src.declare4py.process_mining.model_discovery.basic_mp_declare_discovery&#45;&gt;src.declare4py.process_mining.checkers.checker_result -->
<g id="edge33" class="edge">
<title>src.declare4py.process_mining.model_discovery.basic_mp_declare_discovery&#45;&gt;src.declare4py.process_mining.checkers.checker_result</title>
<path fill="none" stroke="black" d="M1936.27,-35.71C1747.94,-49.68 1511.73,-67.96 1508,-72 1497.15,-83.76 1500.53,-93.85 1508,-108 1547.7,-183.23 1626.3,-140.77 1666,-216 1673.47,-230.15 1671.91,-237.13 1666,-252 1661.71,-262.8 1654.06,-272.68 1646.01,-280.9"/>
<polygon fill="black" stroke="black" points="1638.6,-287.96 1642.73,-277.81 1642.22,-284.51 1645.84,-281.07 1645.84,-281.07 1645.84,-281.07 1642.22,-284.51 1648.94,-284.32 1638.6,-287.96 1638.6,-287.96"/>
</g>
<!-- src.declare4py.process_mining.model_discovery.basic_mp_declare_discovery&#45;&gt;src.declare4py.process_mining.log_analyzer -->
<g id="edge34" class="edge">
<title>src.declare4py.process_mining.model_discovery.basic_mp_declare_discovery&#45;&gt;src.declare4py.process_mining.log_analyzer</title>
<path fill="none" stroke="black" d="M1936.47,-35.9C1751.86,-49.7 1519.7,-67.62 1498,-72 1297.96,-112.36 1193.22,-59.71 1062,-216 1047.77,-232.95 1045.31,-258.42 1045.95,-277.77"/>
<polygon fill="black" stroke="black" points="1046.57,-287.8 1041.46,-278.1 1046.26,-282.81 1045.96,-277.82 1045.96,-277.82 1045.96,-277.82 1046.26,-282.81 1050.45,-277.54 1046.57,-287.8 1046.57,-287.8"/>
</g>
<!-- src.declare4py.process_mining.model_discovery.discovery -->
<g id="node30" class="node">
<title>src.declare4py.process_mining.model_discovery.discovery</title>
<polygon fill="none" stroke="black" points="2341,-108 1991,-108 1991,-72 2341,-72 2341,-108"/>
<text text-anchor="middle" x="2166" y="-86.3" font-family="Times New Roman,serif" font-size="14.00">src.declare4py.process_mining.model_discovery.discovery</text>
</g>
<!-- src.declare4py.process_mining.model_discovery.basic_mp_declare_discovery&#45;&gt;src.declare4py.process_mining.model_discovery.discovery -->
<g id="edge35" class="edge">
<title>src.declare4py.process_mining.model_discovery.basic_mp_declare_discovery&#45;&gt;src.declare4py.process_mining.model_discovery.discovery</title>
<path fill="none" stroke="black" d="M2160.08,-36.3C2159.29,-44.02 2159.06,-53.29 2159.4,-61.89"/>
<polygon fill="black" stroke="black" points="2160.1,-71.9 2154.92,-62.23 2159.76,-66.91 2159.41,-61.92 2159.41,-61.92 2159.41,-61.92 2159.76,-66.91 2163.9,-61.61 2160.1,-71.9 2160.1,-71.9"/>
</g>
<!-- src.declare4py.process_mining.model_discovery.discovery&#45;&gt;src.declare4py.models.ltl_model -->
<g id="edge36" class="edge">
<title>src.declare4py.process_mining.model_discovery.discovery&#45;&gt;src.declare4py.models.ltl_model</title>
<path fill="none" stroke="black" d="M2297.63,-108.05C2339.04,-116.3 2377.33,-127.98 2390,-144 2437.76,-204.38 2406.92,-303.47 2387.84,-350.56"/>
<polygon fill="black" stroke="black" points="2383.98,-359.78 2383.69,-348.82 2385.91,-355.17 2387.84,-350.56 2387.84,-350.56 2387.84,-350.56 2385.91,-355.17 2391.99,-352.29 2383.98,-359.78 2383.98,-359.78"/>
</g>
<!-- src.declare4py.process_mining.model_discovery.discovery&#45;&gt;src.declare4py.process_mining.checkers.constraint_checker -->
<g id="edge37" class="edge">
<title>src.declare4py.process_mining.model_discovery.discovery&#45;&gt;src.declare4py.process_mining.checkers.constraint_checker</title>
<path fill="none" stroke="black" d="M2158.83,-108.3C2155.57,-116.19 2151.63,-125.7 2148,-134.45"/>
<polygon fill="black" stroke="black" points="2144.09,-143.9 2143.76,-132.93 2146,-139.28 2147.91,-134.66 2147.91,-134.66 2147.91,-134.66 2146,-139.28 2152.07,-136.38 2144.09,-143.9 2144.09,-143.9"/>
</g>
<!-- src.declare4py.process_mining.model_discovery.discovery&#45;&gt;src.declare4py.process_mining.log_analyzer -->
<g id="edge38" class="edge">
<title>src.declare4py.process_mining.model_discovery.discovery&#45;&gt;src.declare4py.process_mining.log_analyzer</title>
<path fill="none" stroke="black" d="M1990.92,-104.95C1714.19,-128.05 1199.34,-175.71 1125,-216 1121.31,-218 1090.76,-254.45 1069.54,-280.07"/>
<polygon fill="black" stroke="black" points="1063.02,-287.96 1065.92,-277.38 1066.2,-284.1 1069.39,-280.25 1069.39,-280.25 1069.39,-280.25 1066.2,-284.1 1072.86,-283.12 1063.02,-287.96 1063.02,-287.96"/>
</g>
<!-- src.declare4py.process_mining.model_discovery.discovery&#45;&gt;src.declare4py.process_mining.model_discovery.basic_mp_declare_discovery -->
<g id="edge39" class="edge">
<title>src.declare4py.process_mining.model_discovery.discovery&#45;&gt;src.declare4py.process_mining.model_discovery.basic_mp_declare_discovery</title>
<path fill="none" stroke="black" d="M2171.9,-71.9C2172.7,-64.21 2172.94,-54.95 2172.6,-46.33"/>
<polygon fill="black" stroke="black" points="2171.92,-36.3 2177.09,-45.97 2172.26,-41.29 2172.6,-46.28 2172.6,-46.28 2172.6,-46.28 2172.26,-41.29 2168.11,-46.59 2171.92,-36.3 2171.92,-36.3"/>
</g>
<!-- src.declare4py.process_mining.monitoring -->
<g id="node31" class="node">
<title>src.declare4py.process_mining.monitoring</title>
<polygon fill="none" stroke="black" points="1942,-180 1688,-180 1688,-144 1942,-144 1942,-180"/>
<text text-anchor="middle" x="1815" y="-158.3" font-family="Times New Roman,serif" font-size="14.00">src.declare4py.process_mining.monitoring</text>
</g>
<!-- src.declare4py.process_mining.monitoring&#45;&gt;src.declare4py.models.pm_task -->
<g id="edge40" class="edge">
<title>src.declare4py.process_mining.monitoring&#45;&gt;src.declare4py.models.pm_task</title>
<path fill="none" stroke="black" d="M1823.4,-180.3C1827.27,-188.27 1831.95,-197.9 1836.24,-206.74"/>
<polygon fill="black" stroke="black" points="1840.69,-215.9 1832.28,-208.87 1838.51,-211.4 1836.32,-206.9 1836.32,-206.9 1836.32,-206.9 1838.51,-211.4 1840.37,-204.93 1840.69,-215.9 1840.69,-215.9"/>
</g>
<!-- src.declare4py.process_mining.query_checking -->
<g id="node32" class="node">
<title>src.declare4py.process_mining.query_checking</title>
<polygon fill="none" stroke="black" points="5216.5,-36 4933.5,-36 4933.5,0 5216.5,0 5216.5,-36"/>
<text text-anchor="middle" x="5075" y="-14.3" font-family="Times New Roman,serif" font-size="14.00">src.declare4py.process_mining.query_checking</text>
</g>
<!-- src.declare4py.process_mining.query_checking.basic_mp_declare_query_checking -->
<g id="node33" class="node">
<title>src.declare4py.process_mining.query_checking.basic_mp_declare_query_checking</title>
<polygon fill="none" stroke="black" points="1918.5,-36 1433.5,-36 1433.5,0 1918.5,0 1918.5,-36"/>
<text text-anchor="middle" x="1676" y="-14.3" font-family="Times New Roman,serif" font-size="14.00">src.declare4py.process_mining.query_checking.basic_mp_declare_query_checking</text>
</g>
<!-- src.declare4py.process_mining.query_checking.basic_mp_declare_query_checking&#45;&gt;src.declare4py.models.decl_model -->
<g id="edge41" class="edge">
<title>src.declare4py.process_mining.query_checking.basic_mp_declare_query_checking&#45;&gt;src.declare4py.models.decl_model</title>
<path fill="none" stroke="black" d="M1914.23,-36.03C2104.01,-49.86 2339.69,-67.74 2350,-72 2462.67,-118.52 2562.83,-229.57 2604.04,-279.69"/>
<polygon fill="black" stroke="black" points="2610.6,-287.75 2600.8,-282.83 2607.44,-283.87 2604.29,-279.99 2604.29,-279.99 2604.29,-279.99 2607.44,-283.87 2607.78,-277.16 2610.6,-287.75 2610.6,-287.75"/>
</g>
<!-- src.declare4py.process_mining.query_checking.basic_mp_declare_query_checking&#45;&gt;src.declare4py.process_mining.log_analyzer -->
<g id="edge42" class="edge">
<title>src.declare4py.process_mining.query_checking.basic_mp_declare_query_checking&#45;&gt;src.declare4py.process_mining.log_analyzer</title>
<path fill="none" stroke="black" d="M1433.38,-31.27C1363.78,-39.06 1288.49,-51.67 1221,-72 1187.12,-82.21 1106.94,-122.29 1079,-144 1045.43,-170.09 1030.96,-176.2 1016,-216 1010.37,-230.98 1011.6,-236.62 1016,-252 1018.71,-261.49 1023.67,-270.94 1028.93,-279.17"/>
<polygon fill="black" stroke="black" points="1034.67,-287.57 1025.32,-281.85 1031.85,-283.44 1029.03,-279.31 1029.03,-279.31 1029.03,-279.31 1031.85,-283.44 1032.75,-276.77 1034.67,-287.57 1034.67,-287.57"/>
</g>
<!-- src.declare4py.process_mining.query_checking.query_checking -->
<g id="node34" class="node">
<title>src.declare4py.process_mining.query_checking.query_checking</title>
<polygon fill="none" stroke="black" points="1892.5,-108 1517.5,-108 1517.5,-72 1892.5,-72 1892.5,-108"/>
<text text-anchor="middle" x="1705" y="-86.3" font-family="Times New Roman,serif" font-size="14.00">src.declare4py.process_mining.query_checking.query_checking</text>
</g>
<!-- src.declare4py.process_mining.query_checking.basic_mp_declare_query_checking&#45;&gt;src.declare4py.process_mining.query_checking.query_checking -->
<g id="edge43" class="edge">
<title>src.declare4py.process_mining.query_checking.basic_mp_declare_query_checking&#45;&gt;src.declare4py.process_mining.query_checking.query_checking</title>
<path fill="none" stroke="black" d="M1683.17,-36.3C1686.43,-44.19 1690.37,-53.7 1694,-62.45"/>
<polygon fill="black" stroke="black" points="1697.91,-71.9 1689.93,-64.38 1696,-67.28 1694.09,-62.66 1694.09,-62.66 1694.09,-62.66 1696,-67.28 1698.24,-60.93 1697.91,-71.9 1697.91,-71.9"/>
</g>
<!-- src.declare4py.process_mining.query_checking.query_checking&#45;&gt;src.declare4py.models.ltl_model -->
<g id="edge44" class="edge">
<title>src.declare4py.process_mining.query_checking.query_checking&#45;&gt;src.declare4py.models.ltl_model</title>
<path fill="none" stroke="black" d="M1892.57,-104.56C2071.03,-117.85 2313.66,-137.08 2322,-144 2383.17,-194.77 2383.05,-299.92 2379.1,-349.71"/>
<polygon fill="black" stroke="black" points="2378.19,-359.74 2374.61,-349.37 2378.64,-354.76 2379.09,-349.78 2379.09,-349.78 2379.09,-349.78 2378.64,-354.76 2383.57,-350.19 2378.19,-359.74 2378.19,-359.74"/>
</g>
<!-- src.declare4py.process_mining.query_checking.query_checking&#45;&gt;src.declare4py.models.pm_task -->
<g id="edge45" class="edge">
<title>src.declare4py.process_mining.query_checking.query_checking&#45;&gt;src.declare4py.models.pm_task</title>
<path fill="none" stroke="black" d="M1691.75,-108.28C1678.8,-127.44 1663.16,-158.48 1679,-180 1694.2,-200.66 1717.41,-213.5 1741.84,-221.41"/>
<polygon fill="black" stroke="black" points="1751.62,-224.31 1740.75,-225.78 1746.82,-222.89 1742.03,-221.47 1742.03,-221.47 1742.03,-221.47 1746.82,-222.89 1743.31,-217.15 1751.62,-224.31 1751.62,-224.31"/>
</g>
<!-- src.declare4py.process_mining.query_checking.query_checking&#45;&gt;src.declare4py.process_mining.checkers.constraint_checker -->
<g id="edge46" class="edge">
<title>src.declare4py.process_mining.query_checking.query_checking&#45;&gt;src.declare4py.process_mining.checkers.constraint_checker</title>
<path fill="none" stroke="black" d="M1810.13,-108.03C1874.15,-118.41 1956,-131.67 2021.78,-142.33"/>
<polygon fill="black" stroke="black" points="2031.78,-143.95 2021.19,-146.79 2026.84,-143.15 2021.91,-142.35 2021.91,-142.35 2021.91,-142.35 2026.84,-143.15 2022.63,-137.91 2031.78,-143.95 2031.78,-143.95"/>
</g>
<!-- src.declare4py.process_mining.query_checking.query_checking&#45;&gt;src.declare4py.process_mining.log_analyzer -->
<g id="edge47" class="edge">
<title>src.declare4py.process_mining.query_checking.query_checking&#45;&gt;src.declare4py.process_mining.log_analyzer</title>
<path fill="none" stroke="black" d="M1540.35,-108C1383.25,-127.11 1160.65,-162.62 1092,-216 1072.39,-231.25 1061.21,-257.71 1055.19,-277.83"/>
<polygon fill="black" stroke="black" points="1052.5,-287.68 1050.8,-276.85 1053.82,-282.86 1055.14,-278.03 1055.14,-278.03 1055.14,-278.03 1053.82,-282.86 1059.48,-279.22 1052.5,-287.68 1052.5,-287.68"/>
</g>
<!-- src.declare4py.run_log_generator -->
<g id="node35" class="node">
<title>src.declare4py.run_log_generator</title>
<polygon fill="none" stroke="black" points="3061,-36 2857,-36 2857,0 3061,0 3061,-36"/>
<text text-anchor="middle" x="2959" y="-14.3" font-family="Times New Roman,serif" font-size="14.00">src.declare4py.run_log_generator</text>
</g>
<!-- src.declare4py.run_log_generator&#45;&gt;src.declare4py.log_generation.asp.asp_generator -->
<g id="edge48" class="edge">
<title>src.declare4py.run_log_generator&#45;&gt;src.declare4py.log_generation.asp.asp_generator</title>
<path fill="none" stroke="black" d="M3045.39,-36.03C3097.46,-46.3 3163.88,-59.4 3217.65,-70"/>
<polygon fill="black" stroke="black" points="3227.53,-71.95 3216.85,-74.43 3222.63,-70.98 3217.72,-70.02 3217.72,-70.02 3217.72,-70.02 3222.63,-70.98 3218.59,-65.6 3227.53,-71.95 3227.53,-71.95"/>
</g>
<!-- src.declare4py.run_log_generator&#45;&gt;src.declare4py.models.decl_model -->
<g id="edge49" class="edge">
<title>src.declare4py.run_log_generator&#45;&gt;src.declare4py.models.decl_model</title>
<path fill="none" stroke="black" d="M2856.93,-26.76C2778.6,-38.7 2675.3,-68.74 2623,-144 2595.32,-183.84 2605.63,-243.65 2615.14,-278.05"/>
<polygon fill="black" stroke="black" points="2618.02,-287.86 2610.89,-279.54 2616.61,-283.06 2615.2,-278.27 2615.2,-278.27 2615.2,-278.27 2616.61,-283.06 2619.52,-277 2618.02,-287.86 2618.02,-287.86"/>
</g>
</g>
</svg>
