<?xml version="1.0" encoding="UTF-8" standalone="no"?>
<!DOCTYPE svg PUBLIC "-//W3C//DTD SVG 1.1//EN"
 "http://www.w3.org/Graphics/SVG/1.1/DTD/svg11.dtd">
<!-- Generated by graphviz version 2.43.0 (0)
 -->
<!-- Title: packages Pages: 1 -->
<svg width="5921pt" height="476pt"
 viewBox="0.00 0.00 5920.57 476.00" xmlns="http://www.w3.org/2000/svg" xmlns:xlink="http://www.w3.org/1999/xlink">
<g id="graph0" class="graph" transform="scale(1 1) rotate(0) translate(4 472)">
<title>packages</title>
<polygon fill="white" stroke="transparent" points="-4,4 -4,-472 5916.57,-472 5916.57,4 -4,4"/>
<!-- 0 -->
<g id="node1" class="node">
<title>0</title>
<polygon fill="none" stroke="black" points="1991.57,-36 1869.57,-36 1869.57,0 1991.57,0 1991.57,-36"/>
<text text-anchor="middle" x="1930.57" y="-14.3" font-family="Times,serif" font-size="14.00">src.declare4py</text>
</g>
<!-- 1 -->
<g id="node2" class="node">
<title>1</title>
<polygon fill="none" stroke="black" points="2201.07,-36 2010.07,-36 2010.07,0 2201.07,0 2201.07,-36"/>
<text text-anchor="middle" x="2105.57" y="-14.3" font-family="Times,serif" font-size="14.00">src.declare4py.pm_tasks</text>
</g>
<!-- 2 -->
<g id="node3" class="node">
<title>2</title>
<polygon fill="none" stroke="black" points="2596.07,-36 2219.07,-36 2219.07,0 2596.07,0 2596.07,-36"/>
<text text-anchor="middle" x="2407.57" y="-14.3" font-family="Times,serif" font-size="14.00">src.declare4py.pm_tasks.basic_conformance_check</text>
</g>
<!-- 3 -->
<g id="node4" class="node">
<title>3</title>
<polygon fill="none" stroke="black" points="670.07,-252 27.07,-252 27.07,-216 670.07,-216 670.07,-252"/>
<text text-anchor="middle" x="348.57" y="-230.3" font-family="Times,serif" font-size="14.00">src.declare4py.pm_tasks.basic_conformance_check.basic_conformance_checking_results</text>
</g>
<!-- 35 -->
<g id="node36" class="node">
<title>35</title>
<polygon fill="none" stroke="black" points="824.07,-324 413.07,-324 413.07,-288 824.07,-288 824.07,-324"/>
<text text-anchor="middle" x="618.57" y="-302.3" font-family="Times,serif" font-size="14.00">src.declare4py.utility.template_checkers.checker_result</text>
</g>
<!-- 3&#45;&gt;35 -->
<g id="edge1" class="edge">
<title>3&#45;&gt;35</title>
<path fill="none" stroke="black" d="M414.28,-252.03C453.07,-262.09 502.33,-274.86 542.77,-285.35"/>
<polygon fill="black" stroke="black" points="552.58,-287.89 541.77,-289.74 547.74,-286.63 542.9,-285.38 542.9,-285.38 542.9,-285.38 547.74,-286.63 544.02,-281.02 552.58,-287.89 552.58,-287.89"/>
</g>
<!-- 4 -->
<g id="node5" class="node">
<title>4</title>
<polygon fill="none" stroke="black" points="1529.07,-108 854.07,-108 854.07,-72 1529.07,-72 1529.07,-108"/>
<text text-anchor="middle" x="1191.57" y="-86.3" font-family="Times,serif" font-size="14.00">src.declare4py.pm_tasks.basic_conformance_check.basic_mp_declare_conformance_checking</text>
</g>
<!-- 9 -->
<g id="node10" class="node">
<title>9</title>
<polygon fill="none" stroke="black" points="1188.07,-180 893.07,-180 893.07,-144 1188.07,-144 1188.07,-180"/>
<text text-anchor="middle" x="1040.57" y="-158.3" font-family="Times,serif" font-size="14.00">src.declare4py.pm_tasks.conf_checking</text>
</g>
<!-- 4&#45;&gt;9 -->
<g id="edge2" class="edge">
<title>4&#45;&gt;9</title>
<path fill="none" stroke="black" d="M1154.64,-108.12C1134.08,-117.65 1108.32,-129.59 1086.49,-139.72"/>
<polygon fill="black" stroke="black" points="1077.39,-143.93 1084.57,-135.64 1081.93,-141.83 1086.47,-139.73 1086.47,-139.73 1086.47,-139.73 1081.93,-141.83 1088.36,-143.81 1077.39,-143.93 1077.39,-143.93"/>
</g>
<!-- 11 -->
<g id="node12" class="node">
<title>11</title>
<polygon fill="none" stroke="black" points="1126.57,-324 842.57,-324 842.57,-288 1126.57,-288 1126.57,-324"/>
<text text-anchor="middle" x="984.57" y="-302.3" font-family="Times,serif" font-size="14.00">src.declare4py.pm_tasks.log_analyzer</text>
</g>
<!-- 4&#45;&gt;11 -->
<g id="edge3" class="edge">
<title>4&#45;&gt;11</title>
<path fill="none" stroke="black" d="M975.63,-108.03C933.32,-115.86 897.65,-127.3 883.57,-144 858.25,-174.05 911.53,-245.62 916.57,-252 925.45,-263.23 937.19,-273.46 948.4,-281.88"/>
<polygon fill="black" stroke="black" points="956.83,-287.95 946.08,-285.75 952.77,-285.02 948.71,-282.1 948.71,-282.1 948.71,-282.1 952.77,-285.02 951.34,-278.45 956.83,-287.95 956.83,-287.95"/>
</g>
<!-- 29 -->
<g id="node30" class="node">
<title>29</title>
<polygon fill="none" stroke="black" points="1846.57,-396 1540.57,-396 1540.57,-360 1846.57,-360 1846.57,-396"/>
<text text-anchor="middle" x="1693.57" y="-374.3" font-family="Times,serif" font-size="14.00">src.declare4py.process_models.ltl_model</text>
</g>
<!-- 4&#45;&gt;29 -->
<g id="edge4" class="edge">
<title>4&#45;&gt;29</title>
<path fill="none" stroke="black" d="M1510.02,-108.01C1755.01,-121.47 2052.73,-138.85 2057.57,-144 2124.48,-215.13 2019.52,-281.55 1931.57,-324 1900.35,-339.07 1864.73,-349.92 1830.74,-357.72"/>
<polygon fill="black" stroke="black" points="1820.73,-359.93 1829.52,-353.38 1825.61,-358.85 1830.49,-357.77 1830.49,-357.77 1830.49,-357.77 1825.61,-358.85 1831.47,-362.16 1820.73,-359.93 1820.73,-359.93"/>
</g>
<!-- 36 -->
<g id="node37" class="node">
<title>36</title>
<polygon fill="none" stroke="black" points="2048.57,-180 1606.57,-180 1606.57,-144 2048.57,-144 2048.57,-180"/>
<text text-anchor="middle" x="1827.57" y="-158.3" font-family="Times,serif" font-size="14.00">src.declare4py.utility.template_checkers.constraint_checker</text>
</g>
<!-- 4&#45;&gt;36 -->
<g id="edge5" class="edge">
<title>4&#45;&gt;36</title>
<path fill="none" stroke="black" d="M1346.34,-108.03C1442.24,-118.59 1565.29,-132.13 1662.97,-142.88"/>
<polygon fill="black" stroke="black" points="1672.94,-143.98 1662.51,-147.36 1667.97,-143.43 1663,-142.89 1663,-142.89 1663,-142.89 1667.97,-143.43 1663.49,-138.41 1672.94,-143.98 1672.94,-143.98"/>
</g>
<!-- 5 -->
<g id="node6" class="node">
<title>5</title>
<polygon fill="none" stroke="black" points="3244.07,-36 2887.07,-36 2887.07,0 3244.07,0 3244.07,-36"/>
<text text-anchor="middle" x="3065.57" y="-14.3" font-family="Times,serif" font-size="14.00">src.declare4py.pm_tasks.basic_model_discovery</text>
</g>
<!-- 6 -->
<g id="node7" class="node">
<title>6</title>
<polygon fill="none" stroke="black" points="835.57,-108 275.57,-108 275.57,-72 835.57,-72 835.57,-108"/>
<text text-anchor="middle" x="555.57" y="-86.3" font-family="Times,serif" font-size="14.00">src.declare4py.pm_tasks.basic_model_discovery.basic_mp_declare_discovery</text>
</g>
<!-- 10 -->
<g id="node11" class="node">
<title>10</title>
<polygon fill="none" stroke="black" points="506.07,-180 243.07,-180 243.07,-144 506.07,-144 506.07,-180"/>
<text text-anchor="middle" x="374.57" y="-158.3" font-family="Times,serif" font-size="14.00">src.declare4py.pm_tasks.discovery</text>
</g>
<!-- 6&#45;&gt;10 -->
<g id="edge6" class="edge">
<title>6&#45;&gt;10</title>
<path fill="none" stroke="black" d="M511.3,-108.12C486.22,-117.82 454.68,-130.02 428.21,-140.26"/>
<polygon fill="black" stroke="black" points="418.71,-143.93 426.41,-136.13 423.37,-142.13 428.03,-140.32 428.03,-140.32 428.03,-140.32 423.37,-142.13 429.66,-144.52 418.71,-143.93 418.71,-143.93"/>
</g>
<!-- 6&#45;&gt;11 -->
<g id="edge7" class="edge">
<title>6&#45;&gt;11</title>
<path fill="none" stroke="black" d="M720.47,-108.03C750.97,-115.96 781.41,-127.44 807.57,-144 858.5,-176.23 844.07,-212.48 889.57,-252 903.52,-264.11 920.68,-274.71 936.55,-283.17"/>
<polygon fill="black" stroke="black" points="945.72,-287.91 934.77,-287.32 941.28,-285.61 936.84,-283.32 936.84,-283.32 936.84,-283.32 941.28,-285.61 938.9,-279.32 945.72,-287.91 945.72,-287.91"/>
</g>
<!-- 28 -->
<g id="node29" class="node">
<title>28</title>
<polygon fill="none" stroke="black" points="2368.57,-324 2048.57,-324 2048.57,-288 2368.57,-288 2368.57,-324"/>
<text text-anchor="middle" x="2208.57" y="-302.3" font-family="Times,serif" font-size="14.00">src.declare4py.process_models.decl_model</text>
</g>
<!-- 6&#45;&gt;28 -->
<g id="edge8" class="edge">
<title>6&#45;&gt;28</title>
<path fill="none" stroke="black" d="M835.87,-107.61C838.78,-107.74 841.69,-107.87 844.57,-108 911.93,-110.98 1996.11,-116.29 2057.57,-144 2059.67,-144.95 2143.95,-235.45 2185.66,-280.33"/>
<polygon fill="black" stroke="black" points="2192.69,-287.89 2182.59,-283.63 2189.29,-284.23 2185.88,-280.57 2185.88,-280.57 2185.88,-280.57 2189.29,-284.23 2189.18,-277.51 2192.69,-287.89 2192.69,-287.89"/>
</g>
<!-- 6&#45;&gt;29 -->
<g id="edge9" class="edge">
<title>6&#45;&gt;29</title>
<path fill="none" stroke="black" d="M835.87,-107.52C838.79,-107.68 841.69,-107.84 844.57,-108 884.29,-110.17 1532.17,-115.18 1559.57,-144 1581.7,-167.27 1556.22,-184 1553.57,-216 1549.55,-264.65 1541.65,-287.07 1573.57,-324 1585.51,-337.81 1601.74,-348.17 1618.4,-355.88"/>
<polygon fill="black" stroke="black" points="1627.68,-359.9 1616.71,-360.05 1623.09,-357.91 1618.5,-355.92 1618.5,-355.92 1618.5,-355.92 1623.09,-357.91 1620.29,-351.79 1627.68,-359.9 1627.68,-359.9"/>
</g>
<!-- 6&#45;&gt;35 -->
<g id="edge10" class="edge">
<title>6&#45;&gt;35</title>
<path fill="none" stroke="black" d="M324.55,-108.03C282.67,-115.88 247.74,-127.32 233.57,-144 223.22,-156.2 222.73,-168.24 233.57,-180 300.84,-252.93 611.31,-143.07 678.57,-216 697.22,-236.22 674.42,-262.71 651.77,-281.52"/>
<polygon fill="black" stroke="black" points="643.83,-287.83 648.86,-278.08 647.75,-284.71 651.66,-281.6 651.66,-281.6 651.66,-281.6 647.75,-284.71 654.46,-285.13 643.83,-287.83 643.83,-287.83"/>
</g>
<!-- 6&#45;&gt;36 -->
<g id="edge11" class="edge">
<title>6&#45;&gt;36</title>
<path fill="none" stroke="black" d="M835.87,-107.53C838.79,-107.69 841.69,-107.85 844.57,-108 1176.93,-125.77 1260.35,-123.99 1592.57,-144 1593.87,-144.08 1595.16,-144.16 1596.46,-144.24"/>
<polygon fill="black" stroke="black" points="1606.49,-144.85 1596.23,-148.73 1601.5,-144.55 1596.51,-144.24 1596.51,-144.24 1596.51,-144.24 1601.5,-144.55 1596.79,-139.75 1606.49,-144.85 1606.49,-144.85"/>
</g>
<!-- 7 -->
<g id="node8" class="node">
<title>7</title>
<polygon fill="none" stroke="black" points="3612.57,-36 3262.57,-36 3262.57,0 3612.57,0 3612.57,-36"/>
<text text-anchor="middle" x="3437.57" y="-14.3" font-family="Times,serif" font-size="14.00">src.declare4py.pm_tasks.basic_query_checking</text>
</g>
<!-- 8 -->
<g id="node9" class="node">
<title>8</title>
<polygon fill="none" stroke="black" points="2144.07,-108 1547.07,-108 1547.07,-72 2144.07,-72 2144.07,-108"/>
<text text-anchor="middle" x="1845.57" y="-86.3" font-family="Times,serif" font-size="14.00">src.declare4py.pm_tasks.basic_query_checking.basic_mp_declare_query_checking</text>
</g>
<!-- 8&#45;&gt;11 -->
<g id="edge12" class="edge">
<title>8&#45;&gt;11</title>
<path fill="none" stroke="black" d="M1574.2,-108.02C1417.99,-118.92 1249.72,-133.03 1235.57,-144 1195.36,-175.18 1235.21,-217.76 1197.57,-252 1180.19,-267.82 1158.81,-279.09 1136.38,-287.09"/>
<polygon fill="black" stroke="black" points="1126.71,-290.32 1134.77,-282.88 1131.45,-288.74 1136.19,-287.15 1136.19,-287.15 1136.19,-287.15 1131.45,-288.74 1137.62,-291.42 1126.71,-290.32 1126.71,-290.32"/>
</g>
<!-- 26 -->
<g id="node27" class="node">
<title>26</title>
<polygon fill="none" stroke="black" points="1550.57,-180 1244.57,-180 1244.57,-144 1550.57,-144 1550.57,-180"/>
<text text-anchor="middle" x="1397.57" y="-158.3" font-family="Times,serif" font-size="14.00">src.declare4py.pm_tasks.query_checking</text>
</g>
<!-- 8&#45;&gt;26 -->
<g id="edge13" class="edge">
<title>8&#45;&gt;26</title>
<path fill="none" stroke="black" d="M1736.55,-108.03C1670.02,-118.43 1584.93,-131.73 1516.64,-142.4"/>
<polygon fill="black" stroke="black" points="1506.69,-143.95 1515.88,-137.96 1511.63,-143.18 1516.57,-142.41 1516.57,-142.41 1516.57,-142.41 1511.63,-143.18 1517.27,-146.85 1506.69,-143.95 1506.69,-143.95"/>
</g>
<!-- 8&#45;&gt;28 -->
<g id="edge14" class="edge">
<title>8&#45;&gt;28</title>
<path fill="none" stroke="black" d="M2006.36,-108.06C2058.62,-116.34 2108.38,-128.04 2128.57,-144 2169.78,-176.57 2152.29,-205.43 2176.57,-252 2181.25,-260.96 2186.8,-270.48 2191.96,-278.95"/>
<polygon fill="black" stroke="black" points="2197.35,-287.65 2188.26,-281.51 2194.71,-283.4 2192.08,-279.15 2192.08,-279.15 2192.08,-279.15 2194.71,-283.4 2195.91,-276.78 2197.35,-287.65 2197.35,-287.65"/>
</g>
<!-- 8&#45;&gt;36 -->
<g id="edge15" class="edge">
<title>8&#45;&gt;36</title>
<path fill="none" stroke="black" d="M1841.12,-108.3C1839.12,-116.1 1836.7,-125.49 1834.47,-134.17"/>
<polygon fill="black" stroke="black" points="1831.97,-143.9 1830.1,-133.09 1833.22,-139.05 1834.46,-134.21 1834.46,-134.21 1834.46,-134.21 1833.22,-139.05 1838.82,-135.33 1831.97,-143.9 1831.97,-143.9"/>
</g>
<!-- 9&#45;&gt;11 -->
<g id="edge16" class="edge">
<title>9&#45;&gt;11</title>
<path fill="none" stroke="black" d="M971.38,-180.07C953.43,-187.97 936.18,-199.43 925.57,-216 916.95,-229.47 919.06,-237.39 925.57,-252 930.66,-263.4 939.53,-273.37 948.88,-281.49"/>
<polygon fill="black" stroke="black" points="956.77,-287.87 946.17,-285.08 952.89,-284.73 949,-281.58 949,-281.58 949,-281.58 952.89,-284.73 951.83,-278.09 956.77,-287.87 956.77,-287.87"/>
</g>
<!-- 25 -->
<g id="node26" class="node">
<title>25</title>
<polygon fill="none" stroke="black" points="1188.57,-252 934.57,-252 934.57,-216 1188.57,-216 1188.57,-252"/>
<text text-anchor="middle" x="1061.57" y="-230.3" font-family="Times,serif" font-size="14.00">src.declare4py.pm_tasks.pm_task</text>
</g>
<!-- 9&#45;&gt;25 -->
<g id="edge17" class="edge">
<title>9&#45;&gt;25</title>
<path fill="none" stroke="black" d="M1045.77,-180.3C1048.1,-188.1 1050.92,-197.49 1053.53,-206.17"/>
<polygon fill="black" stroke="black" points="1056.44,-215.9 1049.26,-207.61 1055.01,-211.11 1053.57,-206.32 1053.57,-206.32 1053.57,-206.32 1055.01,-211.11 1057.88,-205.02 1056.44,-215.9 1056.44,-215.9"/>
</g>
<!-- 30 -->
<g id="node31" class="node">
<title>30</title>
<polygon fill="none" stroke="black" points="1503.57,-468 1157.57,-468 1157.57,-432 1503.57,-432 1503.57,-468"/>
<text text-anchor="middle" x="1330.57" y="-446.3" font-family="Times,serif" font-size="14.00">src.declare4py.process_models.process_model</text>
</g>
<!-- 9&#45;&gt;30 -->
<g id="edge18" class="edge">
<title>9&#45;&gt;30</title>
<path fill="none" stroke="black" d="M1127.38,-180.06C1151.97,-187.98 1177.48,-199.45 1197.57,-216 1266.08,-272.41 1306.28,-373.91 1322.37,-422.14"/>
<polygon fill="black" stroke="black" points="1325.52,-431.86 1318.15,-423.73 1323.98,-427.1 1322.43,-422.34 1322.43,-422.34 1322.43,-422.34 1323.98,-427.1 1326.71,-420.96 1325.52,-431.86 1325.52,-431.86"/>
</g>
<!-- 10&#45;&gt;11 -->
<g id="edge19" class="edge">
<title>10&#45;&gt;11</title>
<path fill="none" stroke="black" d="M503.53,-180.04C590.64,-192.1 693.17,-207.57 712.57,-216 736.39,-226.34 735.17,-240.77 758.57,-252 789.83,-266.99 825.59,-277.89 859.31,-285.76"/>
<polygon fill="black" stroke="black" points="869.22,-288 858.48,-290.18 864.35,-286.9 859.47,-285.79 859.47,-285.79 859.47,-285.79 864.35,-286.9 860.46,-281.4 869.22,-288 869.22,-288"/>
</g>
<!-- 10&#45;&gt;25 -->
<g id="edge20" class="edge">
<title>10&#45;&gt;25</title>
<path fill="none" stroke="black" d="M506.28,-178.98C509.41,-179.33 512.51,-179.67 515.57,-180 654.55,-195.12 813.67,-210.33 924.14,-220.55"/>
<polygon fill="black" stroke="black" points="934.34,-221.49 923.97,-225.05 929.36,-221.03 924.38,-220.57 924.38,-220.57 924.38,-220.57 929.36,-221.03 924.8,-216.09 934.34,-221.49 934.34,-221.49"/>
</g>
<!-- 10&#45;&gt;30 -->
<g id="edge21" class="edge">
<title>10&#45;&gt;30</title>
<path fill="none" stroke="black" d="M242.85,-164.37C150.03,-168.45 37.06,-180.81 6.57,-216 -3.9,-228.09 0.2,-237.32 6.57,-252 25.23,-294.98 41.83,-302.72 83.57,-324 264.87,-416.44 847.04,-440.53 1147.44,-446.8"/>
<polygon fill="black" stroke="black" points="1157.56,-447.01 1147.47,-451.3 1152.56,-446.9 1147.56,-446.8 1147.56,-446.8 1147.56,-446.8 1152.56,-446.9 1147.66,-442.3 1157.56,-447.01 1157.56,-447.01"/>
</g>
<!-- 12 -->
<g id="node13" class="node">
<title>12</title>
<polygon fill="none" stroke="black" points="3932.07,-36 3631.07,-36 3631.07,0 3932.07,0 3932.07,-36"/>
<text text-anchor="middle" x="3781.57" y="-14.3" font-family="Times,serif" font-size="14.00">src.declare4py.pm_tasks.log_generation</text>
</g>
<!-- 13 -->
<g id="node14" class="node">
<title>13</title>
<polygon fill="none" stroke="black" points="4280.57,-36 3950.57,-36 3950.57,0 4280.57,0 4280.57,-36"/>
<text text-anchor="middle" x="4115.57" y="-14.3" font-family="Times,serif" font-size="14.00">src.declare4py.pm_tasks.log_generation.asp</text>
</g>
<!-- 14 -->
<g id="node15" class="node">
<title>14</title>
<polygon fill="none" stroke="black" points="3511.07,-108 3074.07,-108 3074.07,-72 3511.07,-72 3511.07,-108"/>
<text text-anchor="middle" x="3292.57" y="-86.3" font-family="Times,serif" font-size="14.00">src.declare4py.pm_tasks.log_generation.asp.asp_generator</text>
</g>
<!-- 16 -->
<g id="node17" class="node">
<title>16</title>
<polygon fill="none" stroke="black" points="5304.07,-180 4761.07,-180 4761.07,-144 5304.07,-144 5304.07,-180"/>
<text text-anchor="middle" x="5032.57" y="-158.3" font-family="Times,serif" font-size="14.00">src.declare4py.pm_tasks.log_generation.asp.asp_translator.asp_translator</text>
</g>
<!-- 14&#45;&gt;16 -->
<g id="edge22" class="edge">
<title>14&#45;&gt;16</title>
<path fill="none" stroke="black" d="M3511.24,-97.28C3794.64,-105.79 4304.45,-122.39 4750.81,-143.92"/>
<polygon fill="black" stroke="black" points="4761.01,-144.41 4750.8,-148.43 4756.02,-144.17 4751.02,-143.93 4751.02,-143.93 4751.02,-143.93 4756.02,-144.17 4751.24,-139.44 4761.01,-144.41 4761.01,-144.41"/>
</g>
<!-- 19 -->
<g id="node20" class="node">
<title>19</title>
<polygon fill="none" stroke="black" points="3680.57,-180 3182.57,-180 3182.57,-144 3680.57,-144 3680.57,-180"/>
<text text-anchor="middle" x="3431.57" y="-158.3" font-family="Times,serif" font-size="14.00">src.declare4py.pm_tasks.log_generation.asp.asp_utils.asp_encoding</text>
</g>
<!-- 14&#45;&gt;19 -->
<g id="edge23" class="edge">
<title>14&#45;&gt;19</title>
<path fill="none" stroke="black" d="M3326.58,-108.12C3345.17,-117.49 3368.4,-129.19 3388.28,-139.2"/>
<polygon fill="black" stroke="black" points="3397.44,-143.81 3386.48,-143.33 3392.97,-141.56 3388.51,-139.31 3388.51,-139.31 3388.51,-139.31 3392.97,-141.56 3390.53,-135.29 3397.44,-143.81 3397.44,-143.81"/>
</g>
<!-- 20 -->
<g id="node21" class="node">
<title>20</title>
<polygon fill="none" stroke="black" points="4228.07,-180 3699.07,-180 3699.07,-144 4228.07,-144 4228.07,-180"/>
<text text-anchor="middle" x="3963.57" y="-158.3" font-family="Times,serif" font-size="14.00">src.declare4py.pm_tasks.log_generation.asp.asp_utils.asp_result_parser</text>
</g>
<!-- 14&#45;&gt;20 -->
<g id="edge24" class="edge">
<title>14&#45;&gt;20</title>
<path fill="none" stroke="black" d="M3455.86,-108.03C3557.13,-118.6 3687.12,-132.16 3790.22,-142.92"/>
<polygon fill="black" stroke="black" points="3800.43,-143.98 3790.02,-147.42 3795.46,-143.46 3790.48,-142.94 3790.48,-142.94 3790.48,-142.94 3795.46,-143.46 3790.95,-138.47 3800.43,-143.98 3800.43,-143.98"/>
</g>
<!-- 21 -->
<g id="node22" class="node">
<title>21</title>
<polygon fill="none" stroke="black" points="4743.07,-180 4246.07,-180 4246.07,-144 4743.07,-144 4743.07,-180"/>
<text text-anchor="middle" x="4494.57" y="-158.3" font-family="Times,serif" font-size="14.00">src.declare4py.pm_tasks.log_generation.asp.asp_utils.asp_template</text>
</g>
<!-- 14&#45;&gt;21 -->
<g id="edge25" class="edge">
<title>14&#45;&gt;21</title>
<path fill="none" stroke="black" d="M3511.25,-102.64C3700.28,-112.85 3981.16,-128.37 4235.8,-143.89"/>
<polygon fill="black" stroke="black" points="4245.99,-144.52 4235.74,-148.4 4241,-144.21 4236.01,-143.91 4236.01,-143.91 4236.01,-143.91 4241,-144.21 4236.28,-139.42 4245.99,-144.52 4245.99,-144.52"/>
</g>
<!-- 22 -->
<g id="node23" class="node">
<title>22</title>
<polygon fill="none" stroke="black" points="3126.57,-180 2640.57,-180 2640.57,-144 3126.57,-144 3126.57,-180"/>
<text text-anchor="middle" x="2883.57" y="-158.3" font-family="Times,serif" font-size="14.00">src.declare4py.pm_tasks.log_generation.asp.asp_utils.distribution</text>
</g>
<!-- 14&#45;&gt;22 -->
<g id="edge26" class="edge">
<title>14&#45;&gt;22</title>
<path fill="none" stroke="black" d="M3193.04,-108.03C3132.68,-118.37 3055.57,-131.56 2993.43,-142.2"/>
<polygon fill="black" stroke="black" points="2983.2,-143.95 2992.29,-137.83 2988.12,-143.11 2993.05,-142.26 2993.05,-142.26 2993.05,-142.26 2988.12,-143.11 2993.81,-146.7 2983.2,-143.95 2983.2,-143.95"/>
</g>
<!-- 23 -->
<g id="node24" class="node">
<title>23</title>
<polygon fill="none" stroke="black" points="2622.57,-180 2218.57,-180 2218.57,-144 2622.57,-144 2622.57,-180"/>
<text text-anchor="middle" x="2420.57" y="-158.3" font-family="Times,serif" font-size="14.00">src.declare4py.pm_tasks.log_generation.log_generator</text>
</g>
<!-- 14&#45;&gt;23 -->
<g id="edge27" class="edge">
<title>14&#45;&gt;23</title>
<path fill="none" stroke="black" d="M3080.1,-108.02C2953.28,-118.18 2788.72,-131.37 2632.96,-143.89"/>
<polygon fill="black" stroke="black" points="2622.72,-144.71 2632.33,-139.43 2627.7,-144.31 2632.69,-143.91 2632.69,-143.91 2632.69,-143.91 2627.7,-144.31 2633.05,-148.4 2622.72,-144.71 2622.72,-144.71"/>
</g>
<!-- 14&#45;&gt;28 -->
<g id="edge28" class="edge">
<title>14&#45;&gt;28</title>
<path fill="none" stroke="black" d="M3244.6,-108.03C3222.1,-117.08 3195.49,-129.37 3173.57,-144 3154.23,-156.92 3156.56,-169.96 3135.57,-180 3005.39,-242.28 2609.15,-278.33 2379.03,-294.56"/>
<polygon fill="black" stroke="black" points="2368.88,-295.27 2378.54,-290.08 2373.87,-294.92 2378.86,-294.57 2378.86,-294.57 2378.86,-294.57 2373.87,-294.92 2379.17,-299.06 2368.88,-295.27 2368.88,-295.27"/>
</g>
<!-- 15 -->
<g id="node16" class="node">
<title>15</title>
<polygon fill="none" stroke="black" points="4736.07,-36 4299.07,-36 4299.07,0 4736.07,0 4736.07,-36"/>
<text text-anchor="middle" x="4517.57" y="-14.3" font-family="Times,serif" font-size="14.00">src.declare4py.pm_tasks.log_generation.asp.asp_translator</text>
</g>
<!-- 17 -->
<g id="node18" class="node">
<title>17</title>
<polygon fill="none" stroke="black" points="3820.57,-252 3182.57,-252 3182.57,-216 3820.57,-216 3820.57,-252"/>
<text text-anchor="middle" x="3501.57" y="-230.3" font-family="Times,serif" font-size="14.00">src.declare4py.pm_tasks.log_generation.asp.asp_translator.declare_constraint_resolver</text>
</g>
<!-- 16&#45;&gt;17 -->
<g id="edge29" class="edge">
<title>16&#45;&gt;17</title>
<path fill="none" stroke="black" d="M4761.01,-179.57C4758.18,-179.72 4755.37,-179.86 4752.57,-180 4344.77,-200.37 4242.47,-197.59 3834.57,-216 3833.27,-216.06 3831.97,-216.12 3830.66,-216.18"/>
<polygon fill="black" stroke="black" points="3820.59,-216.64 3830.38,-211.69 3825.59,-216.41 3830.58,-216.18 3830.58,-216.18 3830.58,-216.18 3825.59,-216.41 3830.79,-220.68 3820.59,-216.64 3820.59,-216.64"/>
</g>
<!-- 16&#45;&gt;28 -->
<g id="edge30" class="edge">
<title>16&#45;&gt;28</title>
<path fill="none" stroke="black" d="M4836.34,-180.01C4598.33,-200.07 4184.83,-233.06 3829.57,-252 3301.08,-280.18 2674.81,-295.55 2379.23,-301.73"/>
<polygon fill="black" stroke="black" points="2368.86,-301.95 2378.76,-297.24 2373.86,-301.84 2378.86,-301.74 2378.86,-301.74 2378.86,-301.74 2373.86,-301.84 2378.95,-306.24 2368.86,-301.95 2368.86,-301.95"/>
</g>
<!-- 17&#45;&gt;28 -->
<g id="edge31" class="edge">
<title>17&#45;&gt;28</title>
<path fill="none" stroke="black" d="M3187.34,-252.01C2933,-265.78 2584.44,-284.65 2379.22,-295.76"/>
<polygon fill="black" stroke="black" points="2368.95,-296.32 2378.7,-291.28 2373.95,-296.05 2378.94,-295.78 2378.94,-295.78 2378.94,-295.78 2373.95,-296.05 2379.18,-300.27 2368.95,-296.32 2368.95,-296.32"/>
</g>
<!-- 18 -->
<g id="node19" class="node">
<title>18</title>
<polygon fill="none" stroke="black" points="5152.57,-36 4754.57,-36 4754.57,0 5152.57,0 5152.57,-36"/>
<text text-anchor="middle" x="4953.57" y="-14.3" font-family="Times,serif" font-size="14.00">src.declare4py.pm_tasks.log_generation.asp.asp_utils</text>
</g>
<!-- 23&#45;&gt;25 -->
<g id="edge32" class="edge">
<title>23&#45;&gt;25</title>
<path fill="none" stroke="black" d="M2218.22,-173.42C1938.03,-187.86 1439.3,-213.54 1198.78,-225.93"/>
<polygon fill="black" stroke="black" points="1188.58,-226.46 1198.34,-221.45 1193.58,-226.2 1198.57,-225.94 1198.57,-225.94 1198.57,-225.94 1193.58,-226.2 1198.8,-230.44 1188.58,-226.46 1188.58,-226.46"/>
</g>
<!-- 23&#45;&gt;30 -->
<g id="edge33" class="edge">
<title>23&#45;&gt;30</title>
<path fill="none" stroke="black" d="M2622.7,-179.49C2625.68,-179.67 2628.64,-179.84 2631.57,-180 2698.06,-183.67 3783.2,-168.21 3829.57,-216 3840.72,-227.48 3840.32,-240.14 3829.57,-252 3674.77,-422.82 2064.27,-445.83 1513.82,-448.68"/>
<polygon fill="black" stroke="black" points="1503.8,-448.73 1513.78,-444.18 1508.8,-448.71 1513.8,-448.68 1513.8,-448.68 1513.8,-448.68 1508.8,-448.71 1513.83,-453.18 1503.8,-448.73 1503.8,-448.73"/>
</g>
<!-- 24 -->
<g id="node25" class="node">
<title>24</title>
<polygon fill="none" stroke="black" points="798.57,-180 524.57,-180 524.57,-144 798.57,-144 798.57,-180"/>
<text text-anchor="middle" x="661.57" y="-158.3" font-family="Times,serif" font-size="14.00">src.declare4py.pm_tasks.monitoring</text>
</g>
<!-- 24&#45;&gt;11 -->
<g id="edge34" class="edge">
<title>24&#45;&gt;11</title>
<path fill="none" stroke="black" d="M694.76,-180.2C713.69,-190.24 737.72,-203.39 758.57,-216 783.25,-230.93 786.52,-239.62 812.57,-252 841.1,-265.55 873.91,-276.66 903.18,-285.15"/>
<polygon fill="black" stroke="black" points="912.96,-287.93 902.11,-289.52 908.15,-286.56 903.34,-285.2 903.34,-285.2 903.34,-285.2 908.15,-286.56 904.57,-280.87 912.96,-287.93 912.96,-287.93"/>
</g>
<!-- 24&#45;&gt;25 -->
<g id="edge35" class="edge">
<title>24&#45;&gt;25</title>
<path fill="none" stroke="black" d="M758.91,-180.03C817.95,-190.37 893.36,-203.56 954.14,-214.2"/>
<polygon fill="black" stroke="black" points="964.15,-215.95 953.52,-218.66 959.22,-215.09 954.29,-214.23 954.29,-214.23 954.29,-214.23 959.22,-215.09 955.07,-209.79 964.15,-215.95 964.15,-215.95"/>
</g>
<!-- 24&#45;&gt;30 -->
<g id="edge36" class="edge">
<title>24&#45;&gt;30</title>
<path fill="none" stroke="black" d="M524.27,-179.07C521.01,-179.39 517.77,-179.7 514.57,-180 459.45,-185.18 55.28,-175.46 17.57,-216 6.68,-227.72 7.35,-239.69 17.57,-252 88.86,-337.81 803.18,-406.5 1147.23,-434.88"/>
<polygon fill="black" stroke="black" points="1157.3,-435.71 1146.96,-439.38 1152.32,-435.3 1147.33,-434.89 1147.33,-434.89 1147.33,-434.89 1152.32,-435.3 1147.7,-430.41 1157.3,-435.71 1157.3,-435.71"/>
</g>
<!-- 25&#45;&gt;11 -->
<g id="edge37" class="edge">
<title>25&#45;&gt;11</title>
<path fill="none" stroke="black" d="M1042.54,-252.3C1033.03,-260.95 1021.37,-271.55 1011,-280.97"/>
<polygon fill="black" stroke="black" points="1003.39,-287.9 1007.76,-277.84 1007.09,-284.53 1010.79,-281.17 1010.79,-281.17 1010.79,-281.17 1007.09,-284.53 1013.82,-284.5 1003.39,-287.9 1003.39,-287.9"/>
</g>
<!-- 25&#45;&gt;30 -->
<g id="edge38" class="edge">
<title>25&#45;&gt;30</title>
<path fill="none" stroke="black" d="M1086.21,-252.01C1100.75,-262.21 1119.42,-275.57 1135.57,-288 1196.55,-334.92 1265.42,-393.05 1302.81,-425.05"/>
<polygon fill="black" stroke="black" points="1310.73,-431.85 1300.21,-428.75 1306.94,-428.59 1303.14,-425.34 1303.14,-425.34 1303.14,-425.34 1306.94,-428.59 1306.07,-421.92 1310.73,-431.85 1310.73,-431.85"/>
</g>
<!-- 26&#45;&gt;11 -->
<g id="edge39" class="edge">
<title>26&#45;&gt;11</title>
<path fill="none" stroke="black" d="M1352.88,-180.11C1330.04,-189.54 1302.17,-202.14 1278.57,-216 1255.58,-229.51 1254.84,-240.94 1230.57,-252 1197.42,-267.12 1159.75,-278.01 1124.04,-285.83"/>
<polygon fill="black" stroke="black" points="1114.02,-287.95 1122.87,-281.48 1118.91,-286.92 1123.81,-285.88 1123.81,-285.88 1123.81,-285.88 1118.91,-286.92 1124.74,-290.28 1114.02,-287.95 1114.02,-287.95"/>
</g>
<!-- 26&#45;&gt;25 -->
<g id="edge40" class="edge">
<title>26&#45;&gt;25</title>
<path fill="none" stroke="black" d="M1315.81,-180.03C1266.73,-190.26 1204.18,-203.29 1153.4,-213.87"/>
<polygon fill="black" stroke="black" points="1143.41,-215.95 1152.29,-209.5 1148.31,-214.93 1153.2,-213.91 1153.2,-213.91 1153.2,-213.91 1148.31,-214.93 1154.12,-218.32 1143.41,-215.95 1143.41,-215.95"/>
</g>
<!-- 26&#45;&gt;29 -->
<g id="edge41" class="edge">
<title>26&#45;&gt;29</title>
<path fill="none" stroke="black" d="M1399.1,-180.07C1403.02,-213.14 1416.44,-286.01 1460.57,-324 1476.94,-338.09 1518.54,-349.49 1562.14,-358.05"/>
<polygon fill="black" stroke="black" points="1572.06,-359.94 1561.39,-362.49 1567.15,-359.01 1562.23,-358.07 1562.23,-358.07 1562.23,-358.07 1567.15,-359.01 1563.08,-353.65 1572.06,-359.94 1572.06,-359.94"/>
</g>
<!-- 27 -->
<g id="node28" class="node">
<title>27</title>
<polygon fill="none" stroke="black" points="5406.57,-36 5170.57,-36 5170.57,0 5406.57,0 5406.57,-36"/>
<text text-anchor="middle" x="5288.57" y="-14.3" font-family="Times,serif" font-size="14.00">src.declare4py.process_models</text>
</g>
<!-- 28&#45;&gt;29 -->
<g id="edge42" class="edge">
<title>28&#45;&gt;29</title>
<path fill="none" stroke="black" d="M2083.25,-324.03C2006.3,-334.49 1907.75,-347.89 1829,-358.59"/>
<polygon fill="black" stroke="black" points="1819.01,-359.95 1828.32,-354.14 1823.97,-359.28 1828.92,-358.6 1828.92,-358.6 1828.92,-358.6 1823.97,-359.28 1829.53,-363.06 1819.01,-359.95 1819.01,-359.95"/>
</g>
<!-- 33 -->
<g id="node34" class="node">
<title>33</title>
<polygon fill="none" stroke="black" points="2360.57,-396 2056.57,-396 2056.57,-360 2360.57,-360 2360.57,-396"/>
<text text-anchor="middle" x="2208.57" y="-374.3" font-family="Times,serif" font-size="14.00">src.declare4py.utility.custom_utility_dict</text>
</g>
<!-- 28&#45;&gt;33 -->
<g id="edge43" class="edge">
<title>28&#45;&gt;33</title>
<path fill="none" stroke="black" d="M2208.57,-324.3C2208.57,-332.02 2208.57,-341.29 2208.57,-349.89"/>
<polygon fill="black" stroke="black" points="2208.57,-359.9 2204.07,-349.9 2208.57,-354.9 2208.57,-349.9 2208.57,-349.9 2208.57,-349.9 2208.57,-354.9 2213.07,-349.9 2208.57,-359.9 2208.57,-359.9"/>
</g>
<!-- 29&#45;&gt;30 -->
<g id="edge44" class="edge">
<title>29&#45;&gt;30</title>
<path fill="none" stroke="black" d="M1605.24,-396.03C1551.99,-406.3 1484.08,-419.4 1429.1,-430"/>
<polygon fill="black" stroke="black" points="1418.99,-431.95 1427.96,-425.64 1423.9,-431 1428.81,-430.06 1428.81,-430.06 1428.81,-430.06 1423.9,-431 1429.66,-434.47 1418.99,-431.95 1418.99,-431.95"/>
</g>
<!-- 31 -->
<g id="node32" class="node">
<title>31</title>
<polygon fill="none" stroke="black" points="2868.57,-36 2614.57,-36 2614.57,0 2868.57,0 2868.57,-36"/>
<text text-anchor="middle" x="2741.57" y="-14.3" font-family="Times,serif" font-size="14.00">src.declare4py.run_log_generator</text>
</g>
<!-- 31&#45;&gt;14 -->
<g id="edge45" class="edge">
<title>31&#45;&gt;14</title>
<path fill="none" stroke="black" d="M2868.68,-35.15C2952.22,-45.76 3061.72,-59.67 3148.5,-70.7"/>
<polygon fill="black" stroke="black" points="3158.42,-71.96 3147.94,-75.16 3153.46,-71.33 3148.5,-70.7 3148.5,-70.7 3148.5,-70.7 3153.46,-71.33 3149.07,-66.23 3158.42,-71.96 3158.42,-71.96"/>
</g>
<!-- 31&#45;&gt;28 -->
<g id="edge46" class="edge">
<title>31&#45;&gt;28</title>
<path fill="none" stroke="black" d="M2639.45,-36.05C2492.61,-61.58 2236.41,-110.34 2209.57,-144 2179.25,-182.03 2189.69,-242.74 2199.48,-277.73"/>
<polygon fill="black" stroke="black" points="2202.46,-287.71 2195.29,-279.41 2201.03,-282.92 2199.6,-278.13 2199.6,-278.13 2199.6,-278.13 2201.03,-282.92 2203.91,-276.84 2202.46,-287.71 2202.46,-287.71"/>
</g>
<!-- 32 -->
<g id="node33" class="node">
<title>32</title>
<polygon fill="none" stroke="black" points="5592.07,-36 5425.07,-36 5425.07,0 5592.07,0 5592.07,-36"/>
<text text-anchor="middle" x="5508.57" y="-14.3" font-family="Times,serif" font-size="14.00">src.declare4py.utility</text>
</g>
<!-- 34 -->
<g id="node35" class="node">
<title>34</title>
<polygon fill="none" stroke="black" points="5912.57,-36 5610.57,-36 5610.57,0 5912.57,0 5912.57,-36"/>
<text text-anchor="middle" x="5761.57" y="-14.3" font-family="Times,serif" font-size="14.00">src.declare4py.utility.template_checkers</text>
</g>
<!-- 36&#45;&gt;11 -->
<g id="edge47" class="edge">
<title>36&#45;&gt;11</title>
<path fill="none" stroke="black" d="M1719.72,-180.05C1655.47,-190.28 1572.33,-203.67 1498.57,-216 1357.52,-239.57 1194.92,-267.93 1091.01,-286.19"/>
<polygon fill="black" stroke="black" points="1081.15,-287.93 1090.21,-281.77 1086.07,-287.06 1090.99,-286.2 1090.99,-286.2 1090.99,-286.2 1086.07,-287.06 1091.77,-290.63 1081.15,-287.93 1081.15,-287.93"/>
</g>
<!-- 36&#45;&gt;28 -->
<g id="edge48" class="edge">
<title>36&#45;&gt;28</title>
<path fill="none" stroke="black" d="M1901.38,-180.06C1937.75,-189.27 1981.97,-201.68 2020.57,-216 2034.96,-221.33 2113.08,-258.8 2163.98,-283.39"/>
<polygon fill="black" stroke="black" points="2173.15,-287.82 2162.19,-287.52 2168.65,-285.64 2164.15,-283.47 2164.15,-283.47 2164.15,-283.47 2168.65,-285.64 2166.1,-279.42 2173.15,-287.82 2173.15,-287.82"/>
</g>
<!-- 36&#45;&gt;29 -->
<g id="edge49" class="edge">
<title>36&#45;&gt;29</title>
<path fill="none" stroke="black" d="M1663.33,-180.06C1620.74,-188.02 1583.01,-199.52 1569.57,-216 1530.03,-264.49 1604.79,-323.07 1654.46,-354.48"/>
<polygon fill="black" stroke="black" points="1663.1,-359.84 1652.23,-358.39 1658.85,-357.2 1654.6,-354.57 1654.6,-354.57 1654.6,-354.57 1658.85,-357.2 1656.97,-350.74 1663.1,-359.84 1663.1,-359.84"/>
</g>
<!-- 36&#45;&gt;30 -->
<g id="edge50" class="edge">
<title>36&#45;&gt;30</title>
<path fill="none" stroke="black" d="M1653.15,-180.06C1618.79,-187.96 1583.99,-199.42 1553.57,-216 1458.47,-267.86 1379.75,-374.4 1346.97,-423.36"/>
<polygon fill="black" stroke="black" points="1341.39,-431.81 1343.15,-420.98 1344.15,-427.64 1346.9,-423.46 1346.9,-423.46 1346.9,-423.46 1344.15,-427.64 1350.66,-425.94 1341.39,-431.81 1341.39,-431.81"/>
</g>
<!-- 37 -->
<g id="node38" class="node">
<title>37</title>
<polygon fill="none" stroke="black" points="2011.07,-252 1578.07,-252 1578.07,-216 2011.07,-216 2011.07,-252"/>
<text text-anchor="middle" x="1794.57" y="-230.3" font-family="Times,serif" font-size="14.00">src.declare4py.utility.template_checkers.template_checker</text>
</g>
<!-- 36&#45;&gt;37 -->
<g id="edge51" class="edge">
<title>36&#45;&gt;37</title>
<path fill="none" stroke="black" d="M1819.42,-180.3C1815.66,-188.27 1811.12,-197.9 1806.96,-206.74"/>
<polygon fill="black" stroke="black" points="1802.64,-215.9 1802.83,-204.93 1804.77,-211.37 1806.9,-206.85 1806.9,-206.85 1806.9,-206.85 1804.77,-211.37 1810.97,-208.77 1802.64,-215.9 1802.64,-215.9"/>
</g>
<!-- 37&#45;&gt;28 -->
<g id="edge52" class="edge">
<title>37&#45;&gt;28</title>
<path fill="none" stroke="black" d="M1895.32,-252.03C1956.55,-262.39 2034.79,-275.62 2097.76,-286.26"/>
<polygon fill="black" stroke="black" points="2107.74,-287.95 2097.12,-290.72 2102.81,-287.12 2097.88,-286.28 2097.88,-286.28 2097.88,-286.28 2102.81,-287.12 2098.63,-281.85 2107.74,-287.95 2107.74,-287.95"/>
</g>
<!-- 37&#45;&gt;35 -->
<g id="edge53" class="edge">
<title>37&#45;&gt;35</title>
<path fill="none" stroke="black" d="M1577.89,-245.47C1385.53,-255.12 1096.52,-270.46 834.36,-287.96"/>
<polygon fill="black" stroke="black" points="824.26,-288.63 833.94,-283.48 829.25,-288.3 834.24,-287.96 834.24,-287.96 834.24,-287.96 829.25,-288.3 834.54,-292.45 824.26,-288.63 824.26,-288.63"/>
</g>
<!-- 38 -->
<g id="node39" class="node">
<title>38</title>
<polygon fill="none" stroke="black" points="1922.57,-324 1666.57,-324 1666.57,-288 1922.57,-288 1922.57,-324"/>
<text text-anchor="middle" x="1794.57" y="-302.3" font-family="Times,serif" font-size="14.00">src.declare4py.utility.trace_states</text>
</g>
<!-- 37&#45;&gt;38 -->
<g id="edge54" class="edge">
<title>37&#45;&gt;38</title>
<path fill="none" stroke="black" d="M1794.57,-252.3C1794.57,-260.02 1794.57,-269.29 1794.57,-277.89"/>
<polygon fill="black" stroke="black" points="1794.57,-287.9 1790.07,-277.9 1794.57,-282.9 1794.57,-277.9 1794.57,-277.9 1794.57,-277.9 1794.57,-282.9 1799.07,-277.9 1794.57,-287.9 1794.57,-287.9"/>
</g>
</g>
</svg>
