<?xml version="1.0" encoding="UTF-8" standalone="no"?>
<!DOCTYPE svg PUBLIC "-//W3C//DTD SVG 1.1//EN"
 "http://www.w3.org/Graphics/SVG/1.1/DTD/svg11.dtd">
<!-- Generated by graphviz version 6.0.2 (20221011.1828)
 -->
<!-- Title: packages Pages: 1 -->
<svg width="5900pt" height="548pt"
 viewBox="0.00 0.00 5899.50 548.00" xmlns="http://www.w3.org/2000/svg" xmlns:xlink="http://www.w3.org/1999/xlink">
<g id="graph0" class="graph" transform="scale(1 1) rotate(0) translate(4 544)">
<title>packages</title>
<polygon fill="white" stroke="none" points="-4,4 -4,-544 5895.5,-544 5895.5,4 -4,4"/>
<!-- src.declare4py -->
<g id="node1" class="node">
<title>src.declare4py</title>
<polygon fill="none" stroke="black" points="2715,-36 2617,-36 2617,0 2715,0 2715,-36"/>
<text text-anchor="middle" x="2666" y="-14.3" font-family="Times New Roman,serif" font-size="14.00">src.declare4py</text>
</g>
<!-- src.declare4py.log_generation -->
<g id="node2" class="node">
<title>src.declare4py.log_generation</title>
<polygon fill="none" stroke="black" points="2917,-36 2733,-36 2733,0 2917,0 2917,-36"/>
<text text-anchor="middle" x="2825" y="-14.3" font-family="Times New Roman,serif" font-size="14.00">src.declare4py.log_generation</text>
</g>
<!-- src.declare4py.log_generation.asp -->
<g id="node3" class="node">
<title>src.declare4py.log_generation.asp</title>
<polygon fill="none" stroke="black" points="3142.5,-36 2935.5,-36 2935.5,0 3142.5,0 3142.5,-36"/>
<text text-anchor="middle" x="3039" y="-14.3" font-family="Times New Roman,serif" font-size="14.00">src.declare4py.log_generation.asp</text>
</g>
<!-- src.declare4py.log_generation.asp.asp_generator -->
<g id="node4" class="node">
<title>src.declare4py.log_generation.asp.asp_generator</title>
<polygon fill="none" stroke="black" points="2958,-108 2668,-108 2668,-72 2958,-72 2958,-108"/>
<text text-anchor="middle" x="2813" y="-86.3" font-family="Times New Roman,serif" font-size="14.00">src.declare4py.log_generation.asp.asp_generator</text>
</g>
<!-- src.declare4py.log_generation.asp.asp_translator.asp_translator -->
<g id="node6" class="node">
<title>src.declare4py.log_generation.asp.asp_translator.asp_translator</title>
<polygon fill="none" stroke="black" points="2897,-252 2525,-252 2525,-216 2897,-216 2897,-252"/>
<text text-anchor="middle" x="2711" y="-230.3" font-family="Times New Roman,serif" font-size="14.00">src.declare4py.log_generation.asp.asp_translator.asp_translator</text>
</g>
<!-- src.declare4py.log_generation.asp.asp_generator&#45;&gt;src.declare4py.log_generation.asp.asp_translator.asp_translator -->
<g id="edge1" class="edge">
<title>src.declare4py.log_generation.asp.asp_generator&#45;&gt;src.declare4py.log_generation.asp.asp_translator.asp_translator</title>
<path fill="none" stroke="black" d="M2718.56,-108.11C2681.03,-116.99 2644.12,-129.13 2633,-144 2623.42,-156.81 2625.51,-165.86 2633,-180 2639.6,-192.46 2650.58,-202.53 2662.25,-210.41"/>
<polygon fill="black" stroke="black" points="2670.82,-215.77 2659.95,-214.29 2666.58,-213.12 2662.34,-210.47 2662.34,-210.47 2662.34,-210.47 2666.58,-213.12 2664.73,-206.65 2670.82,-215.77 2670.82,-215.77"/>
</g>
<!-- src.declare4py.log_generation.asp.asp_utils.asp_encoding -->
<g id="node9" class="node">
<title>src.declare4py.log_generation.asp.asp_utils.asp_encoding</title>
<polygon fill="none" stroke="black" points="2984,-180 2642,-180 2642,-144 2984,-144 2984,-180"/>
<text text-anchor="middle" x="2813" y="-158.3" font-family="Times New Roman,serif" font-size="14.00">src.declare4py.log_generation.asp.asp_utils.asp_encoding</text>
</g>
<!-- src.declare4py.log_generation.asp.asp_generator&#45;&gt;src.declare4py.log_generation.asp.asp_utils.asp_encoding -->
<g id="edge2" class="edge">
<title>src.declare4py.log_generation.asp.asp_generator&#45;&gt;src.declare4py.log_generation.asp.asp_utils.asp_encoding</title>
<path fill="none" stroke="black" d="M2813,-108.3C2813,-116.02 2813,-125.29 2813,-133.89"/>
<polygon fill="black" stroke="black" points="2813,-143.9 2808.5,-133.9 2813,-138.9 2813,-133.9 2813,-133.9 2813,-133.9 2813,-138.9 2817.5,-133.9 2813,-143.9 2813,-143.9"/>
</g>
<!-- src.declare4py.log_generation.asp.asp_utils.asp_template -->
<g id="node10" class="node">
<title>src.declare4py.log_generation.asp.asp_utils.asp_template</title>
<polygon fill="none" stroke="black" points="3340,-180 3002,-180 3002,-144 3340,-144 3340,-180"/>
<text text-anchor="middle" x="3171" y="-158.3" font-family="Times New Roman,serif" font-size="14.00">src.declare4py.log_generation.asp.asp_utils.asp_template</text>
</g>
<!-- src.declare4py.log_generation.asp.asp_generator&#45;&gt;src.declare4py.log_generation.asp.asp_utils.asp_template -->
<g id="edge3" class="edge">
<title>src.declare4py.log_generation.asp.asp_generator&#45;&gt;src.declare4py.log_generation.asp.asp_utils.asp_template</title>
<path fill="none" stroke="black" d="M2900.12,-108.03C2952.63,-118.3 3019.61,-131.4 3073.83,-142"/>
<polygon fill="black" stroke="black" points="3083.8,-143.95 3073.12,-146.45 3078.89,-142.99 3073.99,-142.03 3073.99,-142.03 3073.99,-142.03 3078.89,-142.99 3074.85,-137.61 3083.8,-143.95 3083.8,-143.95"/>
</g>
<!-- src.declare4py.log_generation.asp.asp_utils.distribution -->
<g id="node11" class="node">
<title>src.declare4py.log_generation.asp.asp_utils.distribution</title>
<polygon fill="none" stroke="black" points="3685.5,-180 3358.5,-180 3358.5,-144 3685.5,-144 3685.5,-180"/>
<text text-anchor="middle" x="3522" y="-158.3" font-family="Times New Roman,serif" font-size="14.00">src.declare4py.log_generation.asp.asp_utils.distribution</text>
</g>
<!-- src.declare4py.log_generation.asp.asp_generator&#45;&gt;src.declare4py.log_generation.asp.asp_utils.distribution -->
<g id="edge4" class="edge">
<title>src.declare4py.log_generation.asp.asp_generator&#45;&gt;src.declare4py.log_generation.asp.asp_utils.distribution</title>
<path fill="none" stroke="black" d="M2958.19,-105.33C3071.28,-116.5 3228.65,-132.04 3348.4,-143.86"/>
<polygon fill="black" stroke="black" points="3358.41,-144.85 3348.02,-148.34 3353.44,-144.36 3348.46,-143.87 3348.46,-143.87 3348.46,-143.87 3353.44,-144.36 3348.9,-139.39 3358.41,-144.85 3358.41,-144.85"/>
</g>
<!-- src.declare4py.log_generation.log_generator -->
<g id="node12" class="node">
<title>src.declare4py.log_generation.log_generator</title>
<polygon fill="none" stroke="black" points="2548,-180 2284,-180 2284,-144 2548,-144 2548,-180"/>
<text text-anchor="middle" x="2416" y="-158.3" font-family="Times New Roman,serif" font-size="14.00">src.declare4py.log_generation.log_generator</text>
</g>
<!-- src.declare4py.log_generation.asp.asp_generator&#45;&gt;src.declare4py.log_generation.log_generator -->
<g id="edge5" class="edge">
<title>src.declare4py.log_generation.asp.asp_generator&#45;&gt;src.declare4py.log_generation.log_generator</title>
<path fill="none" stroke="black" d="M2716.39,-108.03C2657.8,-118.37 2582.95,-131.56 2522.63,-142.2"/>
<polygon fill="black" stroke="black" points="2512.7,-143.95 2521.76,-137.78 2517.62,-143.08 2522.55,-142.21 2522.55,-142.21 2522.55,-142.21 2517.62,-143.08 2523.33,-146.65 2512.7,-143.95 2512.7,-143.95"/>
</g>
<!-- src.declare4py.process_models.decl_model -->
<g id="node29" class="node">
<title>src.declare4py.process_models.decl_model</title>
<polygon fill="none" stroke="black" points="2387.5,-396 2124.5,-396 2124.5,-360 2387.5,-360 2387.5,-396"/>
<text text-anchor="middle" x="2256" y="-374.3" font-family="Times New Roman,serif" font-size="14.00">src.declare4py.process_models.decl_model</text>
</g>
<!-- src.declare4py.log_generation.asp.asp_generator&#45;&gt;src.declare4py.process_models.decl_model -->
<g id="edge6" class="edge">
<title>src.declare4py.log_generation.asp.asp_generator&#45;&gt;src.declare4py.process_models.decl_model</title>
<path fill="none" stroke="black" d="M2731.67,-108.1C2697.33,-116.74 2657.41,-128.68 2623,-144 2587.75,-159.69 2374.6,-299.01 2290.29,-354.42"/>
<polygon fill="black" stroke="black" points="2281.83,-359.98 2287.72,-350.72 2286.01,-357.23 2290.19,-354.48 2290.19,-354.48 2290.19,-354.48 2286.01,-357.23 2292.66,-358.25 2281.83,-359.98 2281.83,-359.98"/>
</g>
<!-- src.declare4py.log_generation.asp.asp_translator -->
<g id="node5" class="node">
<title>src.declare4py.log_generation.asp.asp_translator</title>
<polygon fill="none" stroke="black" points="3673,-36 3383,-36 3383,0 3673,0 3673,-36"/>
<text text-anchor="middle" x="3528" y="-14.3" font-family="Times New Roman,serif" font-size="14.00">src.declare4py.log_generation.asp.asp_translator</text>
</g>
<!-- src.declare4py.log_generation.asp.asp_translator.declare_constraint_resolver -->
<g id="node7" class="node">
<title>src.declare4py.log_generation.asp.asp_translator.declare_constraint_resolver</title>
<polygon fill="none" stroke="black" points="2934.5,-324 2487.5,-324 2487.5,-288 2934.5,-288 2934.5,-324"/>
<text text-anchor="middle" x="2711" y="-302.3" font-family="Times New Roman,serif" font-size="14.00">src.declare4py.log_generation.asp.asp_translator.declare_constraint_resolver</text>
</g>
<!-- src.declare4py.log_generation.asp.asp_translator.asp_translator&#45;&gt;src.declare4py.log_generation.asp.asp_translator.declare_constraint_resolver -->
<g id="edge7" class="edge">
<title>src.declare4py.log_generation.asp.asp_translator.asp_translator&#45;&gt;src.declare4py.log_generation.asp.asp_translator.declare_constraint_resolver</title>
<path fill="none" stroke="black" d="M2711,-252.3C2711,-260.02 2711,-269.29 2711,-277.89"/>
<polygon fill="black" stroke="black" points="2711,-287.9 2706.5,-277.9 2711,-282.9 2711,-277.9 2711,-277.9 2711,-277.9 2711,-282.9 2715.5,-277.9 2711,-287.9 2711,-287.9"/>
</g>
<!-- src.declare4py.log_generation.asp.asp_translator.asp_translator&#45;&gt;src.declare4py.process_models.decl_model -->
<g id="edge8" class="edge">
<title>src.declare4py.log_generation.asp.asp_translator.asp_translator&#45;&gt;src.declare4py.process_models.decl_model</title>
<path fill="none" stroke="black" d="M2870.33,-252.06C2930.8,-264.73 2977.66,-286.57 2943,-324 2906.8,-363.1 2588.16,-373.45 2397.8,-376.13"/>
<polygon fill="black" stroke="black" points="2387.7,-376.26 2397.64,-371.63 2392.7,-376.19 2397.7,-376.13 2397.7,-376.13 2397.7,-376.13 2392.7,-376.19 2397.76,-380.63 2387.7,-376.26 2387.7,-376.26"/>
</g>
<!-- src.declare4py.log_generation.asp.asp_translator.declare_constraint_resolver&#45;&gt;src.declare4py.process_models.decl_model -->
<g id="edge9" class="edge">
<title>src.declare4py.log_generation.asp.asp_translator.declare_constraint_resolver&#45;&gt;src.declare4py.process_models.decl_model</title>
<path fill="none" stroke="black" d="M2600.28,-324.03C2532.71,-334.43 2446.28,-347.73 2376.93,-358.4"/>
<polygon fill="black" stroke="black" points="2366.83,-359.95 2376.02,-353.98 2371.77,-359.19 2376.71,-358.43 2376.71,-358.43 2376.71,-358.43 2371.77,-359.19 2377.39,-362.88 2366.83,-359.95 2366.83,-359.95"/>
</g>
<!-- src.declare4py.log_generation.asp.asp_utils -->
<g id="node8" class="node">
<title>src.declare4py.log_generation.asp.asp_utils</title>
<polygon fill="none" stroke="black" points="3951,-36 3691,-36 3691,0 3951,0 3951,-36"/>
<text text-anchor="middle" x="3821" y="-14.3" font-family="Times New Roman,serif" font-size="14.00">src.declare4py.log_generation.asp.asp_utils</text>
</g>
<!-- src.declare4py.pm_tasks.pm_task -->
<g id="node14" class="node">
<title>src.declare4py.pm_tasks.pm_task</title>
<polygon fill="none" stroke="black" points="1750,-252 1542,-252 1542,-216 1750,-216 1750,-252"/>
<text text-anchor="middle" x="1646" y="-230.3" font-family="Times New Roman,serif" font-size="14.00">src.declare4py.pm_tasks.pm_task</text>
</g>
<!-- src.declare4py.log_generation.log_generator&#45;&gt;src.declare4py.pm_tasks.pm_task -->
<g id="edge10" class="edge">
<title>src.declare4py.log_generation.log_generator&#45;&gt;src.declare4py.pm_tasks.pm_task</title>
<path fill="none" stroke="black" d="M2283.63,-175.03C2136.18,-188.44 1900.21,-209.89 1760.44,-222.6"/>
<polygon fill="black" stroke="black" points="1750.13,-223.53 1759.69,-218.15 1755.11,-223.08 1760.09,-222.63 1760.09,-222.63 1760.09,-222.63 1755.11,-223.08 1760.5,-227.11 1750.13,-223.53 1750.13,-223.53"/>
</g>
<!-- src.declare4py.process_models.process_model -->
<g id="node31" class="node">
<title>src.declare4py.process_models.process_model</title>
<polygon fill="none" stroke="black" points="1122,-540 838,-540 838,-504 1122,-504 1122,-540"/>
<text text-anchor="middle" x="980" y="-518.3" font-family="Times New Roman,serif" font-size="14.00">src.declare4py.process_models.process_model</text>
</g>
<!-- src.declare4py.log_generation.log_generator&#45;&gt;src.declare4py.process_models.process_model -->
<g id="edge11" class="edge">
<title>src.declare4py.log_generation.log_generator&#45;&gt;src.declare4py.process_models.process_model</title>
<path fill="none" stroke="black" d="M2548.06,-173.62C2885.34,-201.19 3752,-274.94 3752,-305 3752,-305 3752,-305 3752,-379 3752,-511.26 1712.6,-521.1 1132.34,-521.23"/>
<polygon fill="black" stroke="black" points="1122.23,-521.23 1132.23,-516.73 1127.23,-521.23 1132.23,-521.23 1132.23,-521.23 1132.23,-521.23 1127.23,-521.23 1132.24,-525.73 1122.23,-521.23 1122.23,-521.23"/>
</g>
<!-- src.declare4py.pm_tasks -->
<g id="node13" class="node">
<title>src.declare4py.pm_tasks</title>
<polygon fill="none" stroke="black" points="4125,-36 3969,-36 3969,0 4125,0 4125,-36"/>
<text text-anchor="middle" x="4047" y="-14.3" font-family="Times New Roman,serif" font-size="14.00">src.declare4py.pm_tasks</text>
</g>
<!-- src.declare4py.process_mining.log_analyzer -->
<g id="node20" class="node">
<title>src.declare4py.process_mining.log_analyzer</title>
<polygon fill="none" stroke="black" points="1632,-324 1368,-324 1368,-288 1632,-288 1632,-324"/>
<text text-anchor="middle" x="1500" y="-302.3" font-family="Times New Roman,serif" font-size="14.00">src.declare4py.process_mining.log_analyzer</text>
</g>
<!-- src.declare4py.pm_tasks.pm_task&#45;&gt;src.declare4py.process_mining.log_analyzer -->
<g id="edge12" class="edge">
<title>src.declare4py.pm_tasks.pm_task&#45;&gt;src.declare4py.process_mining.log_analyzer</title>
<path fill="none" stroke="black" d="M1610.28,-252.12C1590.5,-261.61 1565.73,-273.49 1544.67,-283.58"/>
<polygon fill="black" stroke="black" points="1535.6,-287.93 1542.67,-279.55 1540.11,-285.77 1544.62,-283.61 1544.62,-283.61 1544.62,-283.61 1540.11,-285.77 1546.56,-287.67 1535.6,-287.93 1535.6,-287.93"/>
</g>
<!-- src.declare4py.pm_tasks.pm_task&#45;&gt;src.declare4py.process_models.process_model -->
<g id="edge13" class="edge">
<title>src.declare4py.pm_tasks.pm_task&#45;&gt;src.declare4py.process_models.process_model</title>
<path fill="none" stroke="black" d="M1650.27,-252.03C1654.09,-271.53 1656.91,-303.44 1641,-324 1512.48,-490.07 1392.93,-410.39 1191,-468 1148.81,-480.04 1101.47,-492.06 1062.33,-501.61"/>
<polygon fill="black" stroke="black" points="1052.57,-503.98 1061.22,-497.25 1057.43,-502.8 1062.29,-501.62 1062.29,-501.62 1062.29,-501.62 1057.43,-502.8 1063.35,-505.99 1052.57,-503.98 1052.57,-503.98"/>
</g>
<!-- src.declare4py.process_mining -->
<g id="node15" class="node">
<title>src.declare4py.process_mining</title>
<polygon fill="none" stroke="black" points="4334.5,-36 4143.5,-36 4143.5,0 4334.5,0 4334.5,-36"/>
<text text-anchor="middle" x="4239" y="-14.3" font-family="Times New Roman,serif" font-size="14.00">src.declare4py.process_mining</text>
</g>
<!-- src.declare4py.process_mining.conformance_check -->
<g id="node16" class="node">
<title>src.declare4py.process_mining.conformance_check</title>
<polygon fill="none" stroke="black" points="4661,-36 4353,-36 4353,0 4661,0 4661,-36"/>
<text text-anchor="middle" x="4507" y="-14.3" font-family="Times New Roman,serif" font-size="14.00">src.declare4py.process_mining.conformance_check</text>
</g>
<!-- src.declare4py.process_mining.conformance_check.basic_conformance_checking_results -->
<g id="node17" class="node">
<title>src.declare4py.process_mining.conformance_check.basic_conformance_checking_results</title>
<polygon fill="none" stroke="black" points="551.5,-252 28.5,-252 28.5,-216 551.5,-216 551.5,-252"/>
<text text-anchor="middle" x="290" y="-230.3" font-family="Times New Roman,serif" font-size="14.00">src.declare4py.process_mining.conformance_check.basic_conformance_checking_results</text>
</g>
<!-- src.declare4py.utility.template_checkers.checker_result -->
<g id="node35" class="node">
<title>src.declare4py.utility.template_checkers.checker_result</title>
<polygon fill="none" stroke="black" points="590,-396 266,-396 266,-360 590,-360 590,-396"/>
<text text-anchor="middle" x="428" y="-374.3" font-family="Times New Roman,serif" font-size="14.00">src.declare4py.utility.template_checkers.checker_result</text>
</g>
<!-- src.declare4py.process_mining.conformance_check.basic_conformance_checking_results&#45;&gt;src.declare4py.utility.template_checkers.checker_result -->
<g id="edge14" class="edge">
<title>src.declare4py.process_mining.conformance_check.basic_conformance_checking_results&#45;&gt;src.declare4py.utility.template_checkers.checker_result</title>
<path fill="none" stroke="black" d="M306.65,-252.13C330.99,-277.18 376.44,-323.95 404.28,-352.59"/>
<polygon fill="black" stroke="black" points="411.29,-359.81 401.1,-355.78 407.81,-356.23 404.33,-352.64 404.33,-352.64 404.33,-352.64 407.81,-356.23 407.55,-349.5 411.29,-359.81 411.29,-359.81"/>
</g>
<!-- src.declare4py.process_mining.conformance_check.basic_mp_declare_conformance_checking -->
<g id="node18" class="node">
<title>src.declare4py.process_mining.conformance_check.basic_mp_declare_conformance_checking</title>
<polygon fill="none" stroke="black" points="796,-108 244,-108 244,-72 796,-72 796,-108"/>
<text text-anchor="middle" x="520" y="-86.3" font-family="Times New Roman,serif" font-size="14.00">src.declare4py.process_mining.conformance_check.basic_mp_declare_conformance_checking</text>
</g>
<!-- src.declare4py.process_mining.conformance_check.basic_mp_declare_conformance_checking&#45;&gt;src.declare4py.process_mining.conformance_check.basic_conformance_checking_results -->
<g id="edge15" class="edge">
<title>src.declare4py.process_mining.conformance_check.basic_mp_declare_conformance_checking&#45;&gt;src.declare4py.process_mining.conformance_check.basic_conformance_checking_results</title>
<path fill="none" stroke="black" d="M492.26,-108.13C450.81,-133.72 372.69,-181.95 326.61,-210.4"/>
<polygon fill="black" stroke="black" points="317.84,-215.81 323.99,-206.73 322.1,-213.18 326.35,-210.56 326.35,-210.56 326.35,-210.56 322.1,-213.18 328.71,-214.39 317.84,-215.81 317.84,-215.81"/>
</g>
<!-- src.declare4py.process_mining.conformance_check.conf_checking -->
<g id="node19" class="node">
<title>src.declare4py.process_mining.conformance_check.conf_checking</title>
<polygon fill="none" stroke="black" points="1041.5,-180 646.5,-180 646.5,-144 1041.5,-144 1041.5,-180"/>
<text text-anchor="middle" x="844" y="-158.3" font-family="Times New Roman,serif" font-size="14.00">src.declare4py.process_mining.conformance_check.conf_checking</text>
</g>
<!-- src.declare4py.process_mining.conformance_check.basic_mp_declare_conformance_checking&#45;&gt;src.declare4py.process_mining.conformance_check.conf_checking -->
<g id="edge16" class="edge">
<title>src.declare4py.process_mining.conformance_check.basic_mp_declare_conformance_checking&#45;&gt;src.declare4py.process_mining.conformance_check.conf_checking</title>
<path fill="none" stroke="black" d="M598.85,-108.03C646.07,-118.24 706.24,-131.24 755.14,-141.8"/>
<polygon fill="black" stroke="black" points="765.08,-143.95 754.36,-146.24 760.2,-142.89 755.31,-141.84 755.31,-141.84 755.31,-141.84 760.2,-142.89 756.26,-137.44 765.08,-143.95 765.08,-143.95"/>
</g>
<!-- src.declare4py.process_mining.conformance_check.basic_mp_declare_conformance_checking&#45;&gt;src.declare4py.process_mining.log_analyzer -->
<g id="edge17" class="edge">
<title>src.declare4py.process_mining.conformance_check.basic_mp_declare_conformance_checking&#45;&gt;src.declare4py.process_mining.log_analyzer</title>
<path fill="none" stroke="black" d="M796.33,-102.78C899.95,-110.51 1003.77,-123.21 1050,-144 1071.51,-153.67 1067.89,-169.48 1089,-180 1169.45,-220.08 1203.06,-186.63 1288,-216 1320.32,-227.18 1324.77,-238.06 1356,-252 1382.75,-263.94 1413.08,-275.4 1438.99,-284.59"/>
<polygon fill="black" stroke="black" points="1448.69,-288 1437.76,-288.93 1443.97,-286.34 1439.25,-284.68 1439.25,-284.68 1439.25,-284.68 1443.97,-286.34 1440.74,-280.44 1448.69,-288 1448.69,-288"/>
</g>
<!-- src.declare4py.process_models.ltl_model -->
<g id="node30" class="node">
<title>src.declare4py.process_models.ltl_model</title>
<polygon fill="none" stroke="black" points="1182,-468 932,-468 932,-432 1182,-432 1182,-468"/>
<text text-anchor="middle" x="1057" y="-446.3" font-family="Times New Roman,serif" font-size="14.00">src.declare4py.process_models.ltl_model</text>
</g>
<!-- src.declare4py.process_mining.conformance_check.basic_mp_declare_conformance_checking&#45;&gt;src.declare4py.process_models.ltl_model -->
<g id="edge18" class="edge">
<title>src.declare4py.process_mining.conformance_check.basic_mp_declare_conformance_checking&#45;&gt;src.declare4py.process_models.ltl_model</title>
<path fill="none" stroke="black" d="M324.52,-108.01C177.04,-126.43 0,-163.1 0,-233 0,-233 0,-233 0,-307 0,-427.88 138.53,-372.01 257,-396 380.14,-420.93 727.41,-437.06 921.49,-444.4"/>
<polygon fill="black" stroke="black" points="931.75,-444.78 921.59,-448.9 926.76,-444.59 921.76,-444.41 921.76,-444.41 921.76,-444.41 926.76,-444.59 921.93,-439.91 931.75,-444.78 931.75,-444.78"/>
</g>
<!-- src.declare4py.process_mining.conformance_check.conf_checking&#45;&gt;src.declare4py.pm_tasks.pm_task -->
<g id="edge19" class="edge">
<title>src.declare4py.process_mining.conformance_check.conf_checking&#45;&gt;src.declare4py.pm_tasks.pm_task</title>
<path fill="none" stroke="black" d="M1038.91,-180.01C1193.18,-193.48 1403.34,-211.82 1531.59,-223.01"/>
<polygon fill="black" stroke="black" points="1541.82,-223.91 1531.47,-227.52 1536.84,-223.47 1531.86,-223.04 1531.86,-223.04 1531.86,-223.04 1536.84,-223.47 1532.25,-218.55 1541.82,-223.91 1541.82,-223.91"/>
</g>
<!-- src.declare4py.process_mining.conformance_check.conf_checking&#45;&gt;src.declare4py.process_mining.log_analyzer -->
<g id="edge20" class="edge">
<title>src.declare4py.process_mining.conformance_check.conf_checking&#45;&gt;src.declare4py.process_mining.log_analyzer</title>
<path fill="none" stroke="black" d="M1008.32,-180.02C1111.52,-191.46 1229.27,-206.19 1252,-216 1275.2,-226.01 1273.47,-240.56 1296,-252 1324.92,-266.69 1358.28,-277.56 1389.53,-285.5"/>
<polygon fill="black" stroke="black" points="1399.59,-287.97 1388.81,-289.96 1394.74,-286.78 1389.88,-285.59 1389.88,-285.59 1389.88,-285.59 1394.74,-286.78 1390.96,-281.22 1399.59,-287.97 1399.59,-287.97"/>
</g>
<!-- src.declare4py.process_mining.conformance_check.conf_checking&#45;&gt;src.declare4py.process_models.process_model -->
<g id="edge21" class="edge">
<title>src.declare4py.process_mining.conformance_check.conf_checking&#45;&gt;src.declare4py.process_models.process_model</title>
<path fill="none" stroke="black" d="M840.76,-180.42C836.09,-207.13 828,-259.85 828,-305 828,-305 828,-305 828,-379 828,-419.97 824.96,-437.22 852,-468 864.26,-481.95 880.76,-492.31 897.84,-499.97"/>
<polygon fill="black" stroke="black" points="907.36,-503.95 896.4,-504.24 902.75,-502.02 898.13,-500.09 898.13,-500.09 898.13,-500.09 902.75,-502.02 899.87,-495.94 907.36,-503.95 907.36,-503.95"/>
</g>
<!-- src.declare4py.utility.template_checkers.constraint_checker -->
<g id="node36" class="node">
<title>src.declare4py.utility.template_checkers.constraint_checker</title>
<polygon fill="none" stroke="black" points="1243.5,-252 894.5,-252 894.5,-216 1243.5,-216 1243.5,-252"/>
<text text-anchor="middle" x="1069" y="-230.3" font-family="Times New Roman,serif" font-size="14.00">src.declare4py.utility.template_checkers.constraint_checker</text>
</g>
<!-- src.declare4py.process_mining.conformance_check.conf_checking&#45;&gt;src.declare4py.utility.template_checkers.constraint_checker -->
<g id="edge22" class="edge">
<title>src.declare4py.process_mining.conformance_check.conf_checking&#45;&gt;src.declare4py.utility.template_checkers.constraint_checker</title>
<path fill="none" stroke="black" d="M898.75,-180.03C930.6,-189.94 970.92,-202.49 1004.33,-212.88"/>
<polygon fill="black" stroke="black" points="1014,-215.89 1003.12,-217.22 1009.23,-214.4 1004.45,-212.92 1004.45,-212.92 1004.45,-212.92 1009.23,-214.4 1005.79,-208.62 1014,-215.89 1014,-215.89"/>
</g>
<!-- src.declare4py.process_mining.model_discovery -->
<g id="node21" class="node">
<title>src.declare4py.process_mining.model_discovery</title>
<polygon fill="none" stroke="black" points="4970.5,-36 4679.5,-36 4679.5,0 4970.5,0 4970.5,-36"/>
<text text-anchor="middle" x="4825" y="-14.3" font-family="Times New Roman,serif" font-size="14.00">src.declare4py.process_mining.model_discovery</text>
</g>
<!-- src.declare4py.process_mining.model_discovery.basic_mp_declare_discovery -->
<g id="node22" class="node">
<title>src.declare4py.process_mining.model_discovery.basic_mp_declare_discovery</title>
<polygon fill="none" stroke="black" points="1502.5,-108 1043.5,-108 1043.5,-72 1502.5,-72 1502.5,-108"/>
<text text-anchor="middle" x="1273" y="-86.3" font-family="Times New Roman,serif" font-size="14.00">src.declare4py.process_mining.model_discovery.basic_mp_declare_discovery</text>
</g>
<!-- src.declare4py.process_mining.model_discovery.basic_mp_declare_discovery&#45;&gt;src.declare4py.process_mining.log_analyzer -->
<g id="edge23" class="edge">
<title>src.declare4py.process_mining.model_discovery.basic_mp_declare_discovery&#45;&gt;src.declare4py.process_mining.log_analyzer</title>
<path fill="none" stroke="black" d="M1397.92,-108.14C1419.87,-116.06 1440.82,-127.5 1457,-144 1492.43,-180.13 1499.52,-242.04 1500.46,-277.64"/>
<polygon fill="black" stroke="black" points="1500.57,-287.79 1495.96,-277.84 1500.51,-282.79 1500.46,-277.79 1500.46,-277.79 1500.46,-277.79 1500.51,-282.79 1504.96,-277.74 1500.57,-287.79 1500.57,-287.79"/>
</g>
<!-- src.declare4py.process_mining.model_discovery.discovery -->
<g id="node23" class="node">
<title>src.declare4py.process_mining.model_discovery.discovery</title>
<polygon fill="none" stroke="black" points="1448,-180 1098,-180 1098,-144 1448,-144 1448,-180"/>
<text text-anchor="middle" x="1273" y="-158.3" font-family="Times New Roman,serif" font-size="14.00">src.declare4py.process_mining.model_discovery.discovery</text>
</g>
<!-- src.declare4py.process_mining.model_discovery.basic_mp_declare_discovery&#45;&gt;src.declare4py.process_mining.model_discovery.discovery -->
<g id="edge24" class="edge">
<title>src.declare4py.process_mining.model_discovery.basic_mp_declare_discovery&#45;&gt;src.declare4py.process_mining.model_discovery.discovery</title>
<path fill="none" stroke="black" d="M1267.08,-108.3C1266.29,-116.02 1266.06,-125.29 1266.4,-133.89"/>
<polygon fill="black" stroke="black" points="1267.1,-143.9 1261.92,-134.23 1266.76,-138.91 1266.41,-133.92 1266.41,-133.92 1266.41,-133.92 1266.76,-138.91 1270.9,-133.61 1267.1,-143.9 1267.1,-143.9"/>
</g>
<!-- src.declare4py.process_mining.model_discovery.basic_mp_declare_discovery&#45;&gt;src.declare4py.process_models.decl_model -->
<g id="edge25" class="edge">
<title>src.declare4py.process_mining.model_discovery.basic_mp_declare_discovery&#45;&gt;src.declare4py.process_models.decl_model</title>
<path fill="none" stroke="black" d="M1502.62,-98.65C1756.82,-108.03 2134.51,-125.02 2161,-144 2229.15,-192.82 2248.51,-299.39 2253.93,-349.69"/>
<polygon fill="black" stroke="black" points="2254.92,-359.8 2249.47,-350.29 2254.43,-354.83 2253.95,-349.85 2253.95,-349.85 2253.95,-349.85 2254.43,-354.83 2258.43,-349.42 2254.92,-359.8 2254.92,-359.8"/>
</g>
<!-- src.declare4py.process_mining.model_discovery.basic_mp_declare_discovery&#45;&gt;src.declare4py.process_models.ltl_model -->
<g id="edge26" class="edge">
<title>src.declare4py.process_mining.model_discovery.basic_mp_declare_discovery&#45;&gt;src.declare4py.process_models.ltl_model</title>
<path fill="none" stroke="black" d="M1043.2,-96.96C873.78,-103.54 667.64,-117.03 637,-144 606.64,-170.72 618,-192.55 618,-233 618,-233 618,-233 618,-307 618,-371.7 792.8,-411.29 921.8,-431.69"/>
<polygon fill="black" stroke="black" points="931.79,-433.25 921.21,-436.16 926.85,-432.48 921.91,-431.71 921.91,-431.71 921.91,-431.71 926.85,-432.48 922.6,-427.26 931.79,-433.25 931.79,-433.25"/>
</g>
<!-- src.declare4py.process_mining.model_discovery.basic_mp_declare_discovery&#45;&gt;src.declare4py.utility.template_checkers.checker_result -->
<g id="edge27" class="edge">
<title>src.declare4py.process_mining.model_discovery.basic_mp_declare_discovery&#45;&gt;src.declare4py.utility.template_checkers.checker_result</title>
<path fill="none" stroke="black" d="M1043.37,-97.42C864.01,-104.38 639.35,-118.14 604,-144 562.16,-174.6 589.26,-209.22 560,-252 532.11,-292.79 488.97,-330.43 459.66,-353.53"/>
<polygon fill="black" stroke="black" points="451.41,-359.93 456.55,-350.24 455.36,-356.87 459.31,-353.8 459.31,-353.8 459.31,-353.8 455.36,-356.87 462.07,-357.35 451.41,-359.93 451.41,-359.93"/>
</g>
<!-- src.declare4py.process_mining.model_discovery.discovery&#45;&gt;src.declare4py.pm_tasks.pm_task -->
<g id="edge28" class="edge">
<title>src.declare4py.process_mining.model_discovery.discovery&#45;&gt;src.declare4py.pm_tasks.pm_task</title>
<path fill="none" stroke="black" d="M1363.77,-180.03C1418.59,-190.32 1488.56,-203.45 1545.11,-214.07"/>
<polygon fill="black" stroke="black" points="1555.15,-215.95 1544.49,-218.53 1550.23,-215.03 1545.32,-214.11 1545.32,-214.11 1545.32,-214.11 1550.23,-215.03 1546.15,-209.68 1555.15,-215.95 1555.15,-215.95"/>
</g>
<!-- src.declare4py.process_mining.model_discovery.discovery&#45;&gt;src.declare4py.process_mining.log_analyzer -->
<g id="edge29" class="edge">
<title>src.declare4py.process_mining.model_discovery.discovery&#45;&gt;src.declare4py.process_mining.log_analyzer</title>
<path fill="none" stroke="black" d="M1300.38,-180.13C1341.29,-205.72 1418.39,-253.95 1463.87,-282.4"/>
<polygon fill="black" stroke="black" points="1472.52,-287.81 1461.66,-286.32 1468.28,-285.16 1464.04,-282.51 1464.04,-282.51 1464.04,-282.51 1468.28,-285.16 1466.43,-278.69 1472.52,-287.81 1472.52,-287.81"/>
</g>
<!-- src.declare4py.process_mining.model_discovery.discovery&#45;&gt;src.declare4py.process_mining.model_discovery.basic_mp_declare_discovery -->
<g id="edge30" class="edge">
<title>src.declare4py.process_mining.model_discovery.discovery&#45;&gt;src.declare4py.process_mining.model_discovery.basic_mp_declare_discovery</title>
<path fill="none" stroke="black" d="M1278.9,-143.9C1279.7,-136.21 1279.94,-126.95 1279.6,-118.33"/>
<polygon fill="black" stroke="black" points="1278.92,-108.3 1284.09,-117.97 1279.26,-113.29 1279.6,-118.28 1279.6,-118.28 1279.6,-118.28 1279.26,-113.29 1275.11,-118.59 1278.92,-108.3 1278.92,-108.3"/>
</g>
<!-- src.declare4py.process_mining.model_discovery.discovery&#45;&gt;src.declare4py.process_models.process_model -->
<g id="edge31" class="edge">
<title>src.declare4py.process_mining.model_discovery.discovery&#45;&gt;src.declare4py.process_models.process_model</title>
<path fill="none" stroke="black" d="M1097.76,-177.71C1002.73,-187.3 901.34,-200.84 885,-216 855.35,-243.51 866,-264.55 866,-305 866,-305 866,-305 866,-379 866,-422.55 879.37,-434.34 907,-468 916.43,-479.5 928.91,-489.75 940.88,-498.11"/>
<polygon fill="black" stroke="black" points="949.45,-503.85 938.64,-502.03 945.3,-501.07 941.14,-498.29 941.14,-498.29 941.14,-498.29 945.3,-501.07 943.65,-494.55 949.45,-503.85 949.45,-503.85"/>
</g>
<!-- src.declare4py.process_mining.model_discovery.discovery&#45;&gt;src.declare4py.utility.template_checkers.constraint_checker -->
<g id="edge32" class="edge">
<title>src.declare4py.process_mining.model_discovery.discovery&#45;&gt;src.declare4py.utility.template_checkers.constraint_checker</title>
<path fill="none" stroke="black" d="M1223.36,-180.03C1194.73,-189.86 1158.55,-202.27 1128.42,-212.61"/>
<polygon fill="black" stroke="black" points="1118.87,-215.89 1126.86,-208.39 1123.6,-214.27 1128.32,-212.64 1128.32,-212.64 1128.32,-212.64 1123.6,-214.27 1129.78,-216.9 1118.87,-215.89 1118.87,-215.89"/>
</g>
<!-- src.declare4py.process_mining.monitoring -->
<g id="node24" class="node">
<title>src.declare4py.process_mining.monitoring</title>
<polygon fill="none" stroke="black" points="2152,-180 1898,-180 1898,-144 2152,-144 2152,-180"/>
<text text-anchor="middle" x="2025" y="-158.3" font-family="Times New Roman,serif" font-size="14.00">src.declare4py.process_mining.monitoring</text>
</g>
<!-- src.declare4py.process_mining.monitoring&#45;&gt;src.declare4py.pm_tasks.pm_task -->
<g id="edge33" class="edge">
<title>src.declare4py.process_mining.monitoring&#45;&gt;src.declare4py.pm_tasks.pm_task</title>
<path fill="none" stroke="black" d="M1932.77,-180.03C1876.95,-190.34 1805.68,-203.51 1748.15,-214.13"/>
<polygon fill="black" stroke="black" points="1738.31,-215.95 1747.33,-209.71 1743.23,-215.04 1748.15,-214.13 1748.15,-214.13 1748.15,-214.13 1743.23,-215.04 1748.96,-218.56 1738.31,-215.95 1738.31,-215.95"/>
</g>
<!-- src.declare4py.process_mining.query_checking -->
<g id="node25" class="node">
<title>src.declare4py.process_mining.query_checking</title>
<polygon fill="none" stroke="black" points="5271.5,-36 4988.5,-36 4988.5,0 5271.5,0 5271.5,-36"/>
<text text-anchor="middle" x="5130" y="-14.3" font-family="Times New Roman,serif" font-size="14.00">src.declare4py.process_mining.query_checking</text>
</g>
<!-- src.declare4py.process_mining.query_checking.basic_mp_declare_query_checking -->
<g id="node26" class="node">
<title>src.declare4py.process_mining.query_checking.basic_mp_declare_query_checking</title>
<polygon fill="none" stroke="black" points="2422.5,-108 1937.5,-108 1937.5,-72 2422.5,-72 2422.5,-108"/>
<text text-anchor="middle" x="2180" y="-86.3" font-family="Times New Roman,serif" font-size="14.00">src.declare4py.process_mining.query_checking.basic_mp_declare_query_checking</text>
</g>
<!-- src.declare4py.process_mining.query_checking.basic_mp_declare_query_checking&#45;&gt;src.declare4py.process_mining.log_analyzer -->
<g id="edge34" class="edge">
<title>src.declare4py.process_mining.query_checking.basic_mp_declare_query_checking&#45;&gt;src.declare4py.process_mining.log_analyzer</title>
<path fill="none" stroke="black" d="M2181.51,-108.03C2182.29,-128.14 2180.21,-161.23 2161,-180 2088.97,-250.36 1814.06,-282.65 1642.27,-296.23"/>
<polygon fill="black" stroke="black" points="1632.13,-297.02 1641.75,-291.76 1637.12,-296.63 1642.1,-296.24 1642.1,-296.24 1642.1,-296.24 1637.12,-296.63 1642.45,-300.73 1632.13,-297.02 1632.13,-297.02"/>
</g>
<!-- src.declare4py.process_mining.query_checking.query_checking -->
<g id="node27" class="node">
<title>src.declare4py.process_mining.query_checking.query_checking</title>
<polygon fill="none" stroke="black" points="1879.5,-180 1504.5,-180 1504.5,-144 1879.5,-144 1879.5,-180"/>
<text text-anchor="middle" x="1692" y="-158.3" font-family="Times New Roman,serif" font-size="14.00">src.declare4py.process_mining.query_checking.query_checking</text>
</g>
<!-- src.declare4py.process_mining.query_checking.basic_mp_declare_query_checking&#45;&gt;src.declare4py.process_mining.query_checking.query_checking -->
<g id="edge35" class="edge">
<title>src.declare4py.process_mining.query_checking.basic_mp_declare_query_checking&#45;&gt;src.declare4py.process_mining.query_checking.query_checking</title>
<path fill="none" stroke="black" d="M2061.25,-108.03C1988.48,-118.47 1895.32,-131.83 1820.79,-142.53"/>
<polygon fill="black" stroke="black" points="1810.86,-143.95 1820.12,-138.08 1815.81,-143.24 1820.76,-142.53 1820.76,-142.53 1820.76,-142.53 1815.81,-143.24 1821.4,-146.98 1810.86,-143.95 1810.86,-143.95"/>
</g>
<!-- src.declare4py.process_mining.query_checking.basic_mp_declare_query_checking&#45;&gt;src.declare4py.process_models.decl_model -->
<g id="edge36" class="edge">
<title>src.declare4py.process_mining.query_checking.basic_mp_declare_query_checking&#45;&gt;src.declare4py.process_models.decl_model</title>
<path fill="none" stroke="black" d="M2202.86,-108.13C2213.58,-117.48 2225.42,-130 2232,-144 2264.19,-212.51 2262.26,-304.59 2258.8,-349.73"/>
<polygon fill="black" stroke="black" points="2257.94,-359.9 2254.3,-349.55 2258.36,-354.92 2258.79,-349.94 2258.79,-349.94 2258.79,-349.94 2258.36,-354.92 2263.27,-350.32 2257.94,-359.9 2257.94,-359.9"/>
</g>
<!-- src.declare4py.process_mining.query_checking.query_checking&#45;&gt;src.declare4py.pm_tasks.pm_task -->
<g id="edge37" class="edge">
<title>src.declare4py.process_mining.query_checking.query_checking&#45;&gt;src.declare4py.pm_tasks.pm_task</title>
<path fill="none" stroke="black" d="M1680.63,-180.3C1675.28,-188.44 1668.8,-198.31 1662.89,-207.3"/>
<polygon fill="black" stroke="black" points="1657.24,-215.9 1658.97,-205.07 1659.99,-211.72 1662.73,-207.54 1662.73,-207.54 1662.73,-207.54 1659.99,-211.72 1666.49,-210.01 1657.24,-215.9 1657.24,-215.9"/>
</g>
<!-- src.declare4py.process_mining.query_checking.query_checking&#45;&gt;src.declare4py.process_mining.log_analyzer -->
<g id="edge38" class="edge">
<title>src.declare4py.process_mining.query_checking.query_checking&#45;&gt;src.declare4py.process_mining.log_analyzer</title>
<path fill="none" stroke="black" d="M1595.67,-180.04C1572.9,-187.87 1550.25,-199.31 1533,-216 1516.03,-232.41 1507.72,-258.33 1503.69,-277.97"/>
<polygon fill="black" stroke="black" points="1501.91,-287.86 1499.25,-277.22 1502.79,-282.94 1503.68,-278.02 1503.68,-278.02 1503.68,-278.02 1502.79,-282.94 1508.11,-278.82 1501.91,-287.86 1501.91,-287.86"/>
</g>
<!-- src.declare4py.process_mining.query_checking.query_checking&#45;&gt;src.declare4py.process_models.ltl_model -->
<g id="edge39" class="edge">
<title>src.declare4py.process_mining.query_checking.query_checking&#45;&gt;src.declare4py.process_models.ltl_model</title>
<path fill="none" stroke="black" d="M1724.53,-180.02C1737.79,-188.82 1751.7,-200.91 1759,-216 1765.97,-230.4 1766.83,-238.05 1759,-252 1728.93,-305.57 1698.07,-301.25 1641,-324 1493.34,-382.87 1313.08,-416.06 1192.23,-433.21"/>
<polygon fill="black" stroke="black" points="1182.18,-434.62 1191.46,-428.78 1187.13,-433.93 1192.09,-433.23 1192.09,-433.23 1192.09,-433.23 1187.13,-433.93 1192.71,-437.69 1182.18,-434.62 1182.18,-434.62"/>
</g>
<!-- src.declare4py.process_mining.query_checking.query_checking&#45;&gt;src.declare4py.utility.template_checkers.constraint_checker -->
<g id="edge40" class="edge">
<title>src.declare4py.process_mining.query_checking.query_checking&#45;&gt;src.declare4py.utility.template_checkers.constraint_checker</title>
<path fill="none" stroke="black" d="M1540.39,-180.03C1446.56,-190.58 1326.16,-204.11 1230.53,-214.85"/>
<polygon fill="black" stroke="black" points="1220.48,-215.98 1229.91,-210.39 1225.44,-215.42 1230.41,-214.86 1230.41,-214.86 1230.41,-214.86 1225.44,-215.42 1230.92,-219.34 1220.48,-215.98 1220.48,-215.98"/>
</g>
<!-- src.declare4py.process_models -->
<g id="node28" class="node">
<title>src.declare4py.process_models</title>
<polygon fill="none" stroke="black" points="5484,-36 5290,-36 5290,0 5484,0 5484,-36"/>
<text text-anchor="middle" x="5387" y="-14.3" font-family="Times New Roman,serif" font-size="14.00">src.declare4py.process_models</text>
</g>
<!-- src.declare4py.process_models.decl_model&#45;&gt;src.declare4py.process_models.ltl_model -->
<g id="edge41" class="edge">
<title>src.declare4py.process_models.decl_model&#45;&gt;src.declare4py.process_models.ltl_model</title>
<path fill="none" stroke="black" d="M2124.26,-386.69C1894.83,-400.09 1424.31,-427.56 1192.37,-441.1"/>
<polygon fill="black" stroke="black" points="1182.19,-441.69 1191.91,-436.62 1187.18,-441.4 1192.17,-441.11 1192.17,-441.11 1192.17,-441.11 1187.18,-441.4 1192.43,-445.6 1182.19,-441.69 1182.19,-441.69"/>
</g>
<!-- src.declare4py.process_models.ltl_model&#45;&gt;src.declare4py.process_models.process_model -->
<g id="edge42" class="edge">
<title>src.declare4py.process_models.ltl_model&#45;&gt;src.declare4py.process_models.process_model</title>
<path fill="none" stroke="black" d="M1037.97,-468.3C1028.46,-476.95 1016.79,-487.55 1006.43,-496.97"/>
<polygon fill="black" stroke="black" points="998.81,-503.9 1003.19,-493.84 1002.51,-500.53 1006.21,-497.17 1006.21,-497.17 1006.21,-497.17 1002.51,-500.53 1009.24,-500.5 998.81,-503.9 998.81,-503.9"/>
</g>
<!-- src.declare4py.run_log_generator -->
<g id="node32" class="node">
<title>src.declare4py.run_log_generator</title>
<polygon fill="none" stroke="black" points="3365,-36 3161,-36 3161,0 3365,0 3365,-36"/>
<text text-anchor="middle" x="3263" y="-14.3" font-family="Times New Roman,serif" font-size="14.00">src.declare4py.run_log_generator</text>
</g>
<!-- src.declare4py.run_log_generator&#45;&gt;src.declare4py.log_generation.asp.asp_generator -->
<g id="edge43" class="edge">
<title>src.declare4py.run_log_generator&#45;&gt;src.declare4py.log_generation.asp.asp_generator</title>
<path fill="none" stroke="black" d="M3160.89,-34.88C3093.03,-45.44 3003.65,-59.34 2932.49,-70.41"/>
<polygon fill="black" stroke="black" points="2922.57,-71.96 2931.76,-65.97 2927.51,-71.19 2932.45,-70.42 2932.45,-70.42 2932.45,-70.42 2927.51,-71.19 2933.14,-74.87 2922.57,-71.96 2922.57,-71.96"/>
</g>
<!-- src.declare4py.run_log_generator&#45;&gt;src.declare4py.process_models.decl_model -->
<g id="edge44" class="edge">
<title>src.declare4py.run_log_generator&#45;&gt;src.declare4py.process_models.decl_model</title>
<path fill="none" stroke="black" d="M3343.63,-36.02C3473.35,-64.54 3714,-122.62 3714,-161 3714,-161 3714,-161 3714,-235 3714,-366.38 2764.15,-378.18 2397.77,-377.85"/>
<polygon fill="black" stroke="black" points="2387.64,-377.84 2397.64,-373.35 2392.64,-377.85 2397.64,-377.85 2397.64,-377.85 2397.64,-377.85 2392.64,-377.85 2397.63,-382.35 2387.64,-377.84 2387.64,-377.84"/>
</g>
<!-- src.declare4py.utility -->
<g id="node33" class="node">
<title>src.declare4py.utility</title>
<polygon fill="none" stroke="black" points="5634,-36 5502,-36 5502,0 5634,0 5634,-36"/>
<text text-anchor="middle" x="5568" y="-14.3" font-family="Times New Roman,serif" font-size="14.00">src.declare4py.utility</text>
</g>
<!-- src.declare4py.utility.template_checkers -->
<g id="node34" class="node">
<title>src.declare4py.utility.template_checkers</title>
<polygon fill="none" stroke="black" points="5891.5,-36 5652.5,-36 5652.5,0 5891.5,0 5891.5,-36"/>
<text text-anchor="middle" x="5772" y="-14.3" font-family="Times New Roman,serif" font-size="14.00">src.declare4py.utility.template_checkers</text>
</g>
<!-- src.declare4py.utility.template_checkers.constraint_checker&#45;&gt;src.declare4py.process_mining.log_analyzer -->
<g id="edge45" class="edge">
<title>src.declare4py.utility.template_checkers.constraint_checker&#45;&gt;src.declare4py.process_mining.log_analyzer</title>
<path fill="none" stroke="black" d="M1173.88,-252.03C1237.76,-262.41 1319.42,-275.67 1385.04,-286.33"/>
<polygon fill="black" stroke="black" points="1395.02,-287.95 1384.43,-290.79 1390.09,-287.15 1385.15,-286.35 1385.15,-286.35 1385.15,-286.35 1390.09,-287.15 1385.87,-281.9 1395.02,-287.95 1395.02,-287.95"/>
</g>
<!-- src.declare4py.utility.template_checkers.constraint_checker&#45;&gt;src.declare4py.process_models.decl_model -->
<g id="edge46" class="edge">
<title>src.declare4py.utility.template_checkers.constraint_checker&#45;&gt;src.declare4py.process_models.decl_model</title>
<path fill="none" stroke="black" d="M1214.6,-252.01C1250.37,-259.85 1287.65,-271.29 1320,-288 1340.96,-298.83 1337.29,-314.77 1359,-324 1426.49,-352.71 1878.84,-367.84 2114.22,-373.85"/>
<polygon fill="black" stroke="black" points="2124.23,-374.1 2114.12,-378.35 2119.23,-373.97 2114.23,-373.85 2114.23,-373.85 2114.23,-373.85 2119.23,-373.97 2114.34,-369.35 2124.23,-374.1 2124.23,-374.1"/>
</g>
<!-- src.declare4py.utility.template_checkers.constraint_checker&#45;&gt;src.declare4py.process_models.ltl_model -->
<g id="edge47" class="edge">
<title>src.declare4py.utility.template_checkers.constraint_checker&#45;&gt;src.declare4py.process_models.ltl_model</title>
<path fill="none" stroke="black" d="M1005.9,-252.05C988.34,-260.01 971.27,-271.51 961,-288 930.79,-336.48 987.13,-394.16 1025.54,-425.64"/>
<polygon fill="black" stroke="black" points="1033.43,-431.95 1022.81,-429.22 1029.52,-428.82 1025.62,-425.7 1025.62,-425.7 1025.62,-425.7 1029.52,-428.82 1028.43,-422.19 1033.43,-431.95 1033.43,-431.95"/>
</g>
<!-- src.declare4py.utility.template_checkers.constraint_checker&#45;&gt;src.declare4py.process_models.process_model -->
<g id="edge48" class="edge">
<title>src.declare4py.utility.template_checkers.constraint_checker&#45;&gt;src.declare4py.process_models.process_model</title>
<path fill="none" stroke="black" d="M1000.31,-252.11C981.1,-260.06 961.96,-271.53 949,-288 899.01,-351.52 890.72,-393.9 923,-468 927.93,-479.32 936.61,-489.32 945.73,-497.49"/>
<polygon fill="black" stroke="black" points="953.42,-503.91 942.86,-500.96 949.58,-500.71 945.74,-497.5 945.74,-497.5 945.74,-497.5 949.58,-500.71 948.63,-494.05 953.42,-503.91 953.42,-503.91"/>
</g>
<!-- src.declare4py.utility.template_checkers.template_checker -->
<g id="node37" class="node">
<title>src.declare4py.utility.template_checkers.template_checker</title>
<polygon fill="none" stroke="black" points="1311.5,-324 970.5,-324 970.5,-288 1311.5,-288 1311.5,-324"/>
<text text-anchor="middle" x="1141" y="-302.3" font-family="Times New Roman,serif" font-size="14.00">src.declare4py.utility.template_checkers.template_checker</text>
</g>
<!-- src.declare4py.utility.template_checkers.constraint_checker&#45;&gt;src.declare4py.utility.template_checkers.template_checker -->
<g id="edge49" class="edge">
<title>src.declare4py.utility.template_checkers.constraint_checker&#45;&gt;src.declare4py.utility.template_checkers.template_checker</title>
<path fill="none" stroke="black" d="M1086.8,-252.3C1095.6,-260.86 1106.38,-271.34 1116,-280.7"/>
<polygon fill="black" stroke="black" points="1123.41,-287.9 1113.1,-284.15 1119.82,-284.41 1116.24,-280.92 1116.24,-280.92 1116.24,-280.92 1119.82,-284.41 1119.37,-277.7 1123.41,-287.9 1123.41,-287.9"/>
</g>
<!-- src.declare4py.utility.template_checkers.template_checker&#45;&gt;src.declare4py.process_models.decl_model -->
<g id="edge50" class="edge">
<title>src.declare4py.utility.template_checkers.template_checker&#45;&gt;src.declare4py.process_models.decl_model</title>
<path fill="none" stroke="black" d="M1311.84,-322.92C1316.61,-323.29 1321.34,-323.65 1326,-324 1604.97,-344.76 1931.55,-361.66 2114.03,-370.44"/>
<polygon fill="black" stroke="black" points="2124.23,-370.93 2114.02,-374.95 2119.23,-370.69 2114.24,-370.45 2114.24,-370.45 2114.24,-370.45 2119.23,-370.69 2114.45,-365.96 2124.23,-370.93 2124.23,-370.93"/>
</g>
<!-- src.declare4py.utility.template_checkers.template_checker&#45;&gt;src.declare4py.utility.template_checkers.checker_result -->
<g id="edge51" class="edge">
<title>src.declare4py.utility.template_checkers.template_checker&#45;&gt;src.declare4py.utility.template_checkers.checker_result</title>
<path fill="none" stroke="black" d="M970.22,-323.77C858.24,-334.76 712.35,-349.08 600.11,-360.1"/>
<polygon fill="black" stroke="black" points="590.04,-361.09 599.55,-355.64 595.02,-360.6 599.99,-360.11 599.99,-360.11 599.99,-360.11 595.02,-360.6 600.43,-364.59 590.04,-361.09 590.04,-361.09"/>
</g>
</g>
</svg>
